<?xml version="1.0" encoding="UTF-8"?>
<svg viewBox="0 0 499 556" version="1.1" xmlns="http://www.w3.org/2000/svg" xmlns:xlink="http://www.w3.org/1999/xlink">
    <!-- Generator: sketchtool 51.1 (57501) - http://www.bohemiancoding.com/sketch -->
    <title>CE8E14DE-9D8B-4298-BF4A-19D584661AAC</title>
    <desc>Created with sketchtool.</desc>
    <defs>
        <polygon id="path-1" points="0.195803261 0.547815217 50.7688915 0.547815217 50.7688915 46.7090351 0.195803261 46.7090351"></polygon>
        <polygon id="path-3" points="0 0.357487813 105.061306 0.357487813 105.061306 130.394976 0 130.394976"></polygon>
        <polygon id="path-5" points="0.713593245 0.560096506 370.487354 0.560096506 370.487354 220.126489 0.713593245 220.126489"></polygon>
    </defs>
    <g id="Page-1" stroke="none" stroke-width="1" fill="none" fill-rule="evenodd">
        <g id="Homepage" transform="translate(-200.000000, -3883.000000)">
            <g id="Group-250" transform="translate(200.000000, 3883.000000)">
                <path d="M75.7454106,401.788911 C72.6824494,401.788911 70.1998469,399.306309 70.1998469,396.243348 L70.1998469,303.404552 C70.1998469,300.341591 72.6824494,297.858989 75.7454106,297.858989 C78.8075969,297.858989 81.2909742,300.341591 81.2909742,303.404552 L81.2909742,396.243348 C81.2909742,399.306309 78.8075969,401.788911 75.7454106,401.788911" id="Fill-1" fill="#99A7AD"></path>
                <path d="M56.1140222,432.738766 C57.656738,430.066327 60.2974089,428.7026 62.0113654,429.692077 L64.0716775,430.881464 L58.4842722,440.559274 L56.4239601,439.369887 C54.7100036,438.379636 54.5713064,435.411206 56.1140222,432.738766" id="Fill-3" fill="#99A7AD"></path>
                <path d="M58.1741019,433.928308 C56.631386,436.600747 56.7700832,439.569177 58.4840398,440.559429 C60.1979963,441.548906 62.8386671,440.184404 64.3813829,437.511965 C65.9240988,434.8403 65.7861764,431.871095 64.071445,430.880844 C62.3574885,429.891367 59.7168177,431.255868 58.1741019,433.928308" id="Fill-5" fill="#334F5C"></path>
                <path d="M59.5565798,434.72663 C61.0992957,432.054191 63.7391916,430.689689 65.453923,431.679166 L67.5134602,432.869328 L61.926055,442.546363 L59.8665177,441.357752 C58.1525612,440.3675 58.0130891,437.398295 59.5565798,434.72663" id="Fill-7" fill="#99A7AD"></path>
                <path d="M61.616272,435.91532 C60.0735562,438.587759 60.2122534,441.556189 61.9262099,442.546441 C63.6401665,443.535918 66.2808373,442.171416 67.8235531,439.499751 C69.3662689,436.827312 69.2283466,433.858882 67.5136152,432.86863 C65.7996587,431.879154 63.1589879,433.243655 61.616272,435.91532" id="Fill-9" fill="#334F5C"></path>
                <path d="M22.4450045,419.858523 C23.9877203,417.186083 26.6283911,415.821582 28.3423477,416.811058 L30.4026598,418.00122 L24.8152545,427.67903 L22.7549424,426.489644 C21.0409859,425.499392 20.9022887,422.530962 22.4450045,419.858523" id="Fill-11" fill="#99A7AD"></path>
                <path d="M24.5050067,421.047987 C22.9622908,423.719651 23.100988,426.688856 24.8149446,427.679108 C26.5289011,428.668584 29.1695719,427.304083 30.7122877,424.631643 C32.2550036,421.959204 32.1170812,418.990774 30.4023498,418.000522 C28.6883933,417.011046 26.0477225,418.375547 24.5050067,421.047987" id="Fill-13" fill="#334F5C"></path>
                <path d="M25.8870972,421.845534 C27.429813,419.173095 30.0704839,417.809368 31.7844404,418.798845 L33.8447525,419.988232 L28.2573472,429.666042 L26.1970351,428.476655 C24.4830786,427.486404 24.3443814,424.517974 25.8870972,421.845534" id="Fill-15" fill="#99A7AD"></path>
                <path d="M27.9471769,423.035076 C26.404461,425.707515 26.5431582,428.675945 28.2571148,429.666197 C29.9710713,430.655674 32.6117421,429.291172 34.1544579,426.618733 C35.6971738,423.947068 35.5592514,420.977863 33.84452,419.987612 C32.1305635,418.998135 29.4898927,420.362636 27.9471769,423.035076" id="Fill-17" fill="#334F5C"></path>
                <path d="M20.0330679,395.344993 C21.5757837,392.672553 24.2156797,391.308052 25.930411,392.297528 L27.9907231,393.486915 L22.4033179,403.164725 L20.3430057,401.976114 C18.6290492,400.985862 18.4895772,398.016657 20.0330679,395.344993" id="Fill-19" fill="#99A7AD"></path>
                <path d="M22.0927601,396.533682 C20.5500443,399.206121 20.6887415,402.174551 22.402698,403.164803 C24.1166545,404.15428 26.7573253,402.789778 28.3000411,400.117339 C29.842757,397.445674 29.7048346,394.476469 27.9901033,393.486218 C26.2761467,392.497516 23.6362508,393.861242 22.0927601,396.533682" id="Fill-21" fill="#334F5C"></path>
                <path d="M23.4751606,397.332004 C25.0178764,394.659565 27.6585472,393.295063 29.3725037,394.28454 L31.4328158,395.474702 L25.8454106,405.151737 L23.7850984,403.963125 C22.0711419,402.972874 21.9316699,400.004444 23.4751606,397.332004" id="Fill-23" fill="#99A7AD"></path>
                <path d="M25.5348528,398.521546 C23.992137,401.193211 24.1308342,404.162416 25.8447907,405.151892 C27.5587472,406.141369 30.199418,404.777642 31.7429087,402.105203 C33.2856245,399.432763 33.1469273,396.464333 31.432196,395.474082 C29.7182394,394.484605 27.0783435,395.849107 25.5348528,398.521546" id="Fill-25" fill="#334F5C"></path>
                <path d="M83.3417557,381.84495 C84.8844716,379.172511 87.5243675,377.808009 89.2390989,378.797486 L91.299411,379.987648 L85.7120057,389.665458 L83.6516936,388.476072 C81.9377371,387.48582 81.7990399,384.51739 83.3417557,381.84495" id="Fill-27" fill="#99A7AD"></path>
                <path d="M85.401448,383.034492 C83.8587321,385.706932 83.9974293,388.675362 85.7113859,389.665613 C87.4253424,390.65509 90.066788,389.290588 91.6095039,386.618149 C93.1522197,383.945709 93.0127477,380.977279 91.2987911,379.987028 C89.5848346,378.997551 86.9441638,380.362053 85.401448,383.034492" id="Fill-29" fill="#334F5C"></path>
                <path d="M86.7839259,383.832737 C88.3266418,381.160298 90.9665377,379.795796 92.6812691,380.785273 L94.7415812,381.975434 L89.1541759,391.65247 L87.0938638,390.463858 C85.3799073,389.473607 85.2412101,386.504402 86.7839259,383.832737" id="Fill-31" fill="#99A7AD"></path>
                <path d="M88.8436182,385.021504 C87.3009023,387.693943 87.4395995,390.662373 89.1535561,391.652625 C90.8675126,392.642102 93.5089582,391.2776 95.0516741,388.605161 C96.5943899,385.933496 96.4549179,382.964291 94.7409613,381.974814 C93.0270048,380.985338 90.386334,382.349064 88.8436182,385.021504" id="Fill-33" fill="#334F5C"></path>
                <path d="M119.975872,396.177331 C121.518588,393.504891 124.158484,392.14039 125.873215,393.129866 L127.933527,394.319253 L122.346122,403.997064 L120.285035,402.808452 C118.571853,401.8182 118.433156,398.848995 119.975872,396.177331" id="Fill-35" fill="#99A7AD"></path>
                <path d="M122.035564,397.366098 C120.492848,400.038537 120.631545,403.006967 122.345502,403.997219 C124.059458,404.986695 126.700129,403.622194 128.24362,400.949754 C129.786336,398.27809 129.646864,395.308885 127.932907,394.318633 C126.218951,393.329931 123.57828,394.693658 122.035564,397.366098" id="Fill-37" fill="#334F5C"></path>
                <path d="M123.418042,398.164343 C124.960758,395.491903 127.600654,394.127402 129.315385,395.116878 L131.375697,396.30704 L125.788292,405.98485 L123.727205,404.795464 C122.014023,403.805212 121.875326,400.836782 123.418042,398.164343" id="Fill-39" fill="#99A7AD"></path>
                <path d="M125.477734,399.353884 C123.935018,402.025549 124.073716,404.994754 125.787672,405.985005 C127.501629,406.974482 130.143074,405.60998 131.68579,402.937541 C133.228506,400.265102 133.089034,397.296671 131.375077,396.30642 C129.661121,395.316943 127.02045,396.681445 125.477734,399.353884" id="Fill-41" fill="#334F5C"></path>
                <path d="M116.49062,428.192597 C118.033336,425.520158 120.674007,424.155656 122.387963,425.145133 L124.448275,426.335295 L118.86087,436.013105 L116.800558,434.823718 C115.086602,433.833467 114.947904,430.865037 116.49062,428.192597" id="Fill-43" fill="#99A7AD"></path>
                <path d="M118.551087,429.382139 C117.008371,432.054578 117.147069,435.023009 118.86025,436.01326 C120.574982,437.002737 123.215652,435.638235 124.758368,432.965796 C126.301084,430.293356 126.162387,427.324926 124.44843,426.334675 C122.733699,425.345198 120.093803,426.7097 118.551087,429.382139" id="Fill-45" fill="#334F5C"></path>
                <path d="M119.93279,430.180461 C121.475506,427.508022 124.116177,426.14352 125.830134,427.132997 L127.890446,428.322384 L122.30304,438.000194 L120.242728,436.811583 C118.528772,435.821331 118.390075,432.852126 119.93279,430.180461" id="Fill-47" fill="#99A7AD"></path>
                <path d="M121.993257,431.369228 C120.450542,434.041668 120.589239,437.010098 122.30242,438.000349 C124.017152,438.989826 126.657823,437.625325 128.200539,434.95366 C129.743254,432.28122 129.604557,429.312016 127.890601,428.321764 C126.175869,427.333062 123.535973,428.696789 121.993257,431.369228" id="Fill-49" fill="#334F5C"></path>
                <path d="M29.2736335,421.398371 C28.5855714,421.398371 27.9075823,421.079135 27.4736693,420.478631 C26.756163,419.486055 26.9800932,418.099083 27.9726693,417.381576 C55.3564565,397.592817 80.6194938,392.334721 96.9896382,391.408781 C114.827339,390.403808 126.065686,394.081221 126.534467,394.237739 C127.69596,394.627486 128.322809,395.884284 127.934612,397.045777 C127.544865,398.207269 126.290391,398.837218 125.127349,398.445146 C124.939837,398.383934 113.999804,394.850642 97.0097842,395.851741 C81.2835357,396.776131 56.9913789,401.885457 30.5714984,420.977631 C30.1786522,421.261224 29.7238183,421.398371 29.2736335,421.398371" id="Fill-51" fill="#99A7AD"></path>
                <path d="M118.620668,425.457241 C118.015515,425.457241 117.412685,425.21084 116.974898,424.726562 C100.732603,406.774959 81.0166792,396.627593 58.3733919,394.564182 C41.422114,393.019916 29.0935596,396.84455 28.971909,396.884067 C27.8049929,397.254442 26.556718,396.608222 26.1871171,395.441306 C25.8159665,394.27439 26.4590876,393.027664 27.6252289,392.656514 C28.1544478,392.487598 40.7859665,388.545963 58.5771761,390.127421 C74.9876124,391.587228 99.0108981,398.258641 120.264114,421.750383 C121.086999,422.659276 121.016488,424.06097 120.107595,424.883855 C119.68298,425.267404 119.150662,425.457241 118.620668,425.457241" id="Fill-53" fill="#99A7AD"></path>
                <path d="M61.9711509,433.791315 C61.8285795,433.791315 61.6836835,433.777368 61.5380127,433.748699 C60.3362286,433.510822 59.5551851,432.343905 59.7930624,431.142121 C68.3884149,387.716724 87.2961758,379.736598 88.0965904,379.419686 C89.2371618,378.963303 90.5257286,379.521966 90.977463,380.660988 C91.4284227,381.794586 90.8790578,383.078503 89.7508839,383.536436 C89.4827876,383.650339 72.1836043,391.387163 64.1445904,432.002974 C63.9361571,433.059862 63.008668,433.791315 61.9711509,433.791315" id="Fill-55" fill="#99A7AD"></path>
                <path d="M16.953525,308.679773 C15.2752113,309.945869 13.1924287,312.279701 10.9740483,315.134229 L9.46775016,314.324517 L11.7047269,266.879225 L3.03188991,218.046961 L84.3177502,171.116941 C85.9015328,170.04843 88.7576104,170.3204 89.6362843,172.018085 C93.3973806,179.276055 97.5458992,204.847481 97.5458992,221.089776 C97.5458992,237.332071 95.331393,257.615181 99.8386648,266.499551 C94.6100126,267.488253 85.5094613,284.974173 60.8539023,296.826973 C36.1983433,308.679773 24.438525,303.035804 16.953525,308.679773 Z" id="Fill-57" fill="#99A7AD"></path>
                <path d="M166.552873,308.80677 C168.178497,311.678344 167.346314,315.695914 165.450269,317.010051 L165.451818,317.012375 L165.412301,317.034846 C165.314671,317.100708 165.213941,317.158046 165.111661,317.209186 L83.8041056,364.152379 L64.6514938,343.970773 L10.9741258,315.134152 C13.1925062,312.279624 15.2752888,309.945792 16.9536025,308.679695 C24.4386025,303.035726 36.1984208,308.679695 60.8539798,296.826896 C85.5095388,284.974096 94.6100901,267.488175 99.8379674,266.499473 C104.345239,275.385393 154.946474,288.304379 166.552873,308.80677" id="Fill-59" fill="#99A7AD"></path>
                <path d="M10.6482261,217.622113 C14.4085475,224.880084 18.557841,250.452284 18.557841,266.693804 C18.557841,282.935325 16.3425599,303.218435 20.8490568,312.104354 C25.3555537,320.989498 75.957563,333.909259 87.5639621,354.410876 C90.0101469,358.73141 86.896046,365.653873 82.9551857,362.046196 C79.0143255,358.439293 49.7259699,334.645362 20.928091,323.981174 C11.2161873,320.385894 1.91030217,313.206183 4.77490311,299.641752 C7.55582081,286.47404 8.96913758,280.245064 9.36043416,263.782713 C9.75173075,247.321137 6.75540621,224.729764 4.65402733,220.297652 C2.55342329,215.863991 9.21786273,214.861342 10.6482261,217.622113" id="Fill-61" fill="#FFFFFF"></path>
                <path d="M7.98888152,219.157468 C11.749203,226.415439 15.8984964,251.987639 15.8984964,268.229159 C15.8984964,284.470679 13.6832154,304.75379 18.1897123,313.639709 C22.6962092,322.525628 73.2982185,335.444614 84.9053924,355.946231 C87.3508023,360.26754 84.2359266,367.189227 80.2950663,363.582325 C76.3542061,359.974648 47.0666253,336.180717 18.2687464,325.517304 C8.5568427,321.921249 -0.749042391,314.741538 2.11555854,301.177881 C4.89647624,288.009395 6.30979301,281.780418 6.7010896,265.318068 C7.09238618,248.856491 4.09606165,226.265894 1.99468276,221.833007 C-0.105921273,217.399345 6.55851817,216.396696 7.98888152,219.157468" id="Fill-63" fill="#99A7AD"></path>
                <path d="M319.529459,175.558815 L319.675129,176.575412 L348.057691,160.188995 C359.027943,153.85619 372.54201,153.85619 383.511486,160.188995 L422.246749,182.552564 L421.84383,172.271149 L438.816803,169.996205 L438.816803,247.692985 C438.816803,251.107725 437.127642,254.523241 433.746994,256.4743 L383.511486,285.478287 C372.54201,291.811093 359.027943,291.811093 348.057691,285.478287 L297.822184,256.4743 C294.442311,254.523241 292.752375,251.107725 292.752375,247.692985 L292.752375,169.996205 L319.529459,175.558815 Z" id="Fill-65" fill="#99A7AD"></path>
                <path d="M297.822416,178.777365 L348.057924,207.781353 C359.027401,214.114159 372.542242,214.114159 383.511719,207.781353 L433.747227,178.777365 C440.506972,174.874473 440.506972,165.118403 433.747227,161.21551 L383.511719,132.211522 C372.542242,125.878716 359.027401,125.878716 348.057924,132.211522 L297.822416,161.21551 C291.062671,165.118403 291.062671,174.874473 297.822416,178.777365" id="Fill-67" fill="#FFFFFF"></path>
                <path d="M242.274263,294.337475 C241.992994,293.523888 235.3518,274.129524 232.21213,249.460793 C227.771494,214.576509 232.341529,186.919201 245.795157,167.259066 C261.262608,144.656071 292.187435,143.295443 319.471268,142.095984 C328.067395,141.71786 336.184668,141.360656 342.688715,140.352583 C350.224855,139.184117 352.035667,137.649925 352.109277,137.584838 C352.027918,137.657673 351.755173,137.964512 351.580058,138.416246 L380.556151,149.592607 C376.54633,159.988698 367.235021,166.86622 352.883347,170.032235 C343.367479,172.130515 332.422797,172.612468 320.836544,173.121541 C301.809457,173.958374 278.128653,174.999765 271.424696,184.797676 C252.811376,211.9986 265.259257,265.769725 271.626931,284.193982 L242.274263,294.337475 Z" id="Fill-69" fill="#334F5C"></path>
                <path d="M321.958364,331.104709 C316.066445,331.104709 310.431774,327.732585 307.823647,322.022754 C307.443973,321.189796 298.443377,301.329751 292.909436,276.154271 C284.993622,240.147237 287.956628,211.697263 301.713996,191.592367 C316.230712,170.377119 339.283117,165.772217 357.806555,162.070783 C367.675752,160.098804 378.862186,157.863377 380.398703,153.8799 C383.48336,145.879628 392.469234,141.893052 400.474155,144.980033 C408.475201,148.065465 412.460228,157.053664 409.374021,165.055485 C401.692985,184.972094 381.609785,188.985015 363.890636,192.52528 C348.888867,195.52238 334.718507,198.353662 327.343535,209.130203 C309.263308,235.553957 328.063366,291.579105 336.074485,309.122364 C339.635672,316.923501 336.20001,326.13563 328.399648,329.698366 C326.308343,330.652974 324.115532,331.104709 321.958364,331.104709" id="Fill-71" fill="#334F5C"></path>
                <path d="M272.597579,148.527815 C275.924762,149.813282 275.924762,151.452079 275.924762,155.438655 C275.924762,159.426006 267.237978,174.953894 256.793071,179.390655 C246.347389,183.827416 239.062299,179.620784 239.062299,179.620784 C239.062299,179.620784 246.121909,163.800779 249.309621,161.871416 C252.498882,159.941278 272.597579,148.527815 272.597579,148.527815" id="Fill-73" fill="#213238"></path>
                <path d="M330.169936,141.834939 C345.653658,147.113956 382.77182,171.545585 377.254925,189.538254 C377.254925,189.538254 395.399464,186.334271 400.205826,178.939928 C405.012188,171.545585 365.187494,144.925794 365.187494,144.925794 L342.837873,141.834939 L330.169936,141.834939 Z" id="Fill-75" fill="#213238"></path>
                <path d="M262.053957,164.054541 C261.184581,164.054541 260.299708,163.90732 259.434207,163.596608 C255.397266,162.149198 253.298211,157.703914 254.744846,153.667747 C255.57703,151.350962 275.58507,96.6120564 318.460328,69.7272691 C322.093575,67.4484508 326.885214,68.5479554 329.163258,72.1804275 C331.441301,75.8136744 330.342572,80.6045393 326.7101,82.8825828 C288.339014,106.943836 269.548255,158.391976 269.363067,158.908797 C268.22637,162.078687 265.238568,164.054541 262.053957,164.054541" id="Fill-77" fill="#F0C9A4"></path>
                <path d="M241.232252,176.844825 C238.711682,176.844825 236.208934,175.777864 234.453135,173.70283 C231.28867,169.96188 231.755126,164.362852 235.496076,161.197611 C249.564932,149.293671 257.875142,148.111258 260.087323,148.032999 L260.717272,165.76842 C260.717272,165.76842 260.941202,165.791665 261.37589,165.712631 C261.323201,165.721929 256.48817,166.681187 246.959129,174.744996 C245.291663,176.155213 243.256146,176.844825 241.232252,176.844825" id="Fill-79" fill="#F0C9A4"></path>
                <path d="M256.567979,175.242911 C256.03721,175.242911 255.502567,175.080969 255.042309,174.743136 C253.888566,173.89933 253.637516,172.279905 254.481322,171.126936 L262.368466,160.343422 C263.213822,159.190453 264.833247,158.938629 265.985441,159.782434 C267.13996,160.62624 267.39101,162.245666 266.547204,163.39941 L258.659284,174.182924 C258.151761,174.875635 257.365294,175.242911 256.567979,175.242911" id="Fill-81" fill="#F0C9A4"></path>
                <path d="M413.657208,79.7330714 C406.149737,43.308396 350.461647,43.1053866 337.816956,52.5716646 C325.172265,62.0379425 323.32891,63.273045 318.435765,66.5072469 C310.364983,71.8428276 318.651172,91.9244783 328.937236,87.2513898 C331.582556,86.0488307 332.491448,82.5713276 335.801585,95.2105947 C347.43123,139.623144 322.068237,141.834551 322.068237,141.834551 C330.268419,141.783411 340.452203,148.12784 359.857414,159.397957 C379.2634,170.668073 394.565034,186.37495 392.719354,198.886368 C392.542689,200.084278 433.198792,182.63555 415.296779,88.1757795 C414.807852,85.5955466 414.211222,82.4233323 413.657208,79.7330714" id="Fill-83" fill="#E3584E"></path>
                <path d="M374.123468,53.8851039 C385.744589,57.327739 383.378213,69.3463554 374.942479,76.3052359 C366.505195,83.2641163 350.383775,79.1791349 349.515949,68.105829 C348.862755,59.7816722 354.196786,47.9831116 374.123468,53.8851039" id="Fill-85" fill="#F0C9A4"></path>
                <g id="Group-89" transform="translate(355.653727, 0.227030)">
                    <mask id="mask-2" fill="white">
                        <use xlink:href="#path-1"></use>
                    </mask>
                    <g id="Clip-88"></g>
                    <path d="M0.195803261,14.3143264 C3.69345233,4.78063696 6.40463401,2.80865714 15.0309803,0.836677329 C23.6581014,-1.13452764 38.4243172,7.40968509 34.2448048,13.3659165 C30.0668421,19.3229227 30.3132427,24.5887674 39.4331651,25.2830283 C48.5523126,25.9772891 53.909589,30.9269972 48.7669446,38.5584429 C43.6227505,46.1891137 40.4838545,49.0940065 34.2448048,43.1331261 C28.0073048,37.1730205 25.5208281,48.7809693 17.3183219,46.3758512 C9.11659053,43.9707332 10.2129958,29.2719289 7.07642438,25.2830283 C3.93985295,21.2941276 0.195803261,14.3143264 0.195803261,14.3143264" id="Fill-87" fill="#DD902F" mask="url(#mask-2)"></path>
                </g>
                <path d="M326.60596,40.2746464 C326.60596,25.5386495 338.551741,13.5928685 353.287738,13.5928685 C368.02296,13.5928685 379.968741,25.5386495 379.968741,40.2746464 C379.968741,55.0106433 368.02296,66.9556495 353.287738,66.9556495 C338.551741,66.9556495 326.60596,55.0106433 326.60596,40.2746464" id="Fill-90" fill="#F0C9A4"></path>
                <path d="M358.973859,10.875953 C357.118106,13.8443831 359.683617,18.7933163 364.703061,21.9314374 C369.72173,25.0687837 375.294413,25.2067061 377.150941,22.2390508 C379.006694,19.2706207 376.441183,14.3209126 371.420964,11.1835663 C366.402295,8.04544519 360.829612,7.90752283 358.973859,10.875953" id="Fill-92" fill="#334F5C"></path>
                <path d="M377.529298,53.0126287 C372.677995,61.4150449 365.411501,50.9709129 361.969641,48.9834362 C361.969641,48.9834362 345.400361,57.9491644 325.207133,43.6222856 C325.207133,43.6222856 320.747127,26.5911986 339.516191,15.3598244 C360.154955,3.00879953 376.692466,21.5733042 378.952688,28.1765309 C379.968509,31.1434113 384.023271,41.7649828 377.529298,53.0126287" id="Fill-94" fill="#DD902F"></path>
                <path d="M359.677573,51.3684082 C359.677573,48.4828865 362.016829,46.1444051 364.901576,46.1444051 C367.787098,46.1444051 370.125579,48.4828865 370.125579,51.3684082 C370.125579,54.25393 367.787098,56.5924113 364.901576,56.5924113 C362.016829,56.5924113 359.677573,54.25393 359.677573,51.3684082" id="Fill-96" fill="#F0C9A4"></path>
                <path d="M361.741837,51.3684082 C361.741837,49.6234579 363.156703,48.2078166 364.901653,48.2078166 C366.647379,48.2078166 368.062245,49.6234579 368.062245,51.3684082 C368.062245,53.1133585 366.647379,54.528225 364.901653,54.528225 C363.156703,54.528225 361.741837,53.1133585 361.741837,51.3684082" id="Fill-98" fill="#EBB17E"></path>
                <path d="M362.283608,57.938704 C362.283608,56.4928438 363.455948,55.3205037 364.901808,55.3205037 C366.347669,55.3205037 367.520009,56.4928438 367.520009,57.938704 C367.520009,59.3845643 366.347669,60.5569043 364.901808,60.5569043 C363.455948,60.5569043 362.283608,59.3845643 362.283608,57.938704" id="Fill-100" fill="#DD902F"></path>
                <path d="M398.01503,103.96851 C398.01503,132.106221 385.84067,152.738011 365.962803,144.082221 C365.903915,144.056651 365.843477,144.030306 365.784589,144.003961 C345.801344,135.148261 384.679952,169.996128 384.679952,169.996128 L399.287325,169.996128 L407.71996,139.341721 L403.347511,105.376402 L398.01503,103.96851 Z" id="Fill-102" fill="#BC4542"></path>
                <path d="M123.029147,417.384908 C119.071241,419.1717 114.90645,422.808046 114.908775,428.788298 C114.90955,433.694615 120.107208,440.936314 135.676938,456.077554 C151.248217,471.218795 156.221171,459.441155 156.221171,459.441155 L128.308164,429.749105 L123.029147,417.384908 Z" id="Fill-104" fill="#334F5C"></path>
                <path d="M143.146363,420.233082 C143.146363,420.233082 161.00421,448.88684 157.625887,457.182328 C154.277008,465.40343 149.448175,463.002186 145.043958,460.78768 C140.640516,458.572399 118.698463,437.055736 117.633826,428.175241 C116.201138,416.222486 132.537964,412.713989 137.907638,414.217963 C140.091925,414.829315 143.146363,420.233082 143.146363,420.233082" id="Fill-106" fill="#99A7AD"></path>
                <path d="M147.456437,430.479319 C147.702063,435.656057 143.57369,436.08687 140.268977,435.778482 C135.412251,435.325973 124.215745,425.544333 129.896131,417.936133 C140.870257,403.236554 147.456437,430.479319 147.456437,430.479319" id="Fill-108" fill="#334F5C"></path>
                <path d="M146.556687,431.849709 L156.389467,420.486612 C159.863096,416.472141 159.424534,410.401233 155.410063,406.927604 C151.395593,403.4532 145.324684,403.892537 141.851055,407.907782 L133.054243,417.47634 C129.580614,421.49081 131.602959,426.178621 134.69149,429.691767 C140.058065,435.794444 144.655993,434.047169 146.556687,431.849709" id="Fill-110" fill="#FFFFFF"></path>
                <path d="M149.127932,429.725705 C144.740761,429.725705 140.381485,427.876926 137.31,424.279322 C131.742741,417.756679 132.516036,407.954893 139.038679,402.387634 C153.857584,389.679405 174.359976,365.173391 173.504547,350.513329 C173.336406,347.647954 172.39032,344.198345 166.642522,340.33187 C137.8121,320.940606 107.514896,314.495447 107.212707,314.432685 C98.8149399,312.690059 93.420471,304.469732 95.1638716,296.073514 C96.9072722,287.675747 105.12915,282.282828 113.524592,284.024679 C115.003771,284.331517 150.145303,291.807219 183.975024,314.562084 C199.943799,325.302207 203.955945,339.083595 204.510733,348.751332 C206.559423,384.497244 164.055316,421.864131 159.202463,426.007225 C156.277424,428.503775 152.693768,429.725705 149.127932,429.725705" id="Fill-112" fill="#334F5C"></path>
                <path d="M204.272004,481.320213 C198.016682,481.320213 192.120889,477.512626 189.759937,471.319292 C182.553881,452.436326 159.72773,399.09834 140.900553,379.349873 C131.617139,369.611625 100.245226,351.432993 82.6516016,342.261156 C75.0472755,338.297825 72.0951171,328.919104 76.0584478,321.314778 C80.0217786,313.712002 89.39585,310.759069 97.0040503,314.720075 C102.126549,317.39019 147.516178,341.280977 163.378799,357.920767 C190.371289,386.233593 217.631102,457.246562 218.778647,460.255284 C221.833859,468.268729 217.813965,477.24143 209.801296,480.297418 C207.981185,480.990904 206.11071,481.320213 204.272004,481.320213" id="Fill-114" fill="#334F5C"></path>
                <path d="M93.0091834,345.642191 C90.8295452,345.642191 88.6336352,345.191231 86.5702238,344.290086 C86.2533123,344.14984 78.6923775,340.835829 70.6890064,336.455632 C56.3133123,328.584759 49.3931741,322.321689 46.8067424,314.835914 C45.0331228,309.705667 44.069216,299.686925 57.5305933,290.235369 C61.4722284,287.468399 66.693907,284.593725 73.4962688,281.44708 C84.1356616,276.525267 94.9269241,272.688236 95.3809831,272.527068 C100.020753,270.882847 105.164947,271.534492 109.246829,274.285965 C113.653371,277.25517 126.451482,285.693229 132.682008,289.033585 C138.669233,292.243767 142.131239,298.939975 140.851196,305.610613 C139.579676,312.243284 134.420759,317.254979 127.728426,318.067017 C126.570808,318.305669 118.521721,320.203264 112.374877,327.917618 C111.228882,329.355729 109.851983,330.560613 108.321665,331.495076 C107.99623,335.787715 105.849135,339.760344 102.326691,342.490897 C99.6139598,344.593051 96.3309427,345.642191 93.0091834,345.642191" id="Fill-116" fill="#334F5C"></path>
                <path d="M91.7773352,206.089867 C78.38027,245.439581 132.774369,289.127651 133.560837,289.58171 C134.346529,290.035769 104.596366,275.316819 79.0613585,330.415252 C79.0613585,330.415252 73.6513927,346.142275 54.1865185,343.715462 C54.1865185,343.715462 9.24784922,242.009344 19.4099377,208.990886 C30.6622328,172.432162 65.2148834,173.568859 84.2218244,189.286584 C92.7342685,196.326823 91.7773352,206.089867 91.7773352,206.089867" id="Fill-118" fill="#E3584E"></path>
                <path d="M28.5915377,232.552674 C28.5915377,232.552674 28.0367489,273.69073 35.4318669,282.052079 C42.8262101,290.413428 29.5755905,278.269287 29.4221713,277.779585 C29.2695269,277.289883 21.0817427,251.639424 21.4513436,249.514025 L28.5915377,232.552674 Z" id="Fill-120" fill="#BC4542"></path>
                <polygon id="Fill-122" fill="#BC4542" points="84.824886 319.071913 77.963636 332.741723 43.522563 317.76475 38.1404916 303.404552"></polygon>
                <g id="Group-126" transform="translate(0.000000, 193.938210)">
                    <mask id="mask-4" fill="white">
                        <use xlink:href="#path-3"></use>
                    </mask>
                    <g id="Clip-125"></g>
                    <path d="M94.3507495,130.394976 C93.7486952,130.394976 93.1404421,130.343836 92.5267651,130.239232 C91.8929421,130.129979 76.8144638,127.511004 59.1557526,121.384307 C34.3893908,112.792054 17.1452216,101.764464 7.90442345,88.6083753 C1.10903525,78.934439 -1.32242748,68.3384374 0.677446739,57.1148116 C3.41574798,41.7550648 21.055088,9.52152438 23.0572868,5.89680078 C25.920338,0.713864441 32.4429809,-1.1666837 37.6259172,1.6955927 C42.8088536,4.55864394 44.6901766,11.0812868 41.8279002,16.2642231 C34.9271331,28.7616936 23.3842713,51.9256766 21.788866,60.8766828 C20.8001641,66.4230213 21.9639809,71.3192651 25.451557,76.2829203 C39.0159887,95.5936005 81.0838582,106.521236 96.1483893,109.103018 C101.985295,110.104118 105.905234,115.645807 104.905684,121.481937 C104.010739,126.705166 99.4763474,130.394976 94.3507495,130.394976" id="Fill-124" fill="#E3584E" mask="url(#mask-4)"></path>
                </g>
                <path d="M55.4621453,181.168536 C66.9220988,183.882817 69.5085304,198.243789 63.0974652,207.813896 C56.0742727,218.299095 37.8057587,212.116609 32.5631593,203.849016 C27.3205599,195.582198 33.6061003,189.395837 35.3169575,188.168483 C37.0278146,186.941129 46.0764512,178.945507 55.4621453,181.168536" id="Fill-127" fill="#F0C9A4"></path>
                <path d="M32.609495,154.634599 C34.9967916,140.093088 48.7192916,130.240937 63.2608025,132.627459 C77.8015385,135.014755 87.654464,148.737255 85.2671674,163.278766 C82.8798708,177.819502 69.1573708,187.672428 54.6166348,185.285131 C40.0751239,182.898609 30.2221984,169.175335 32.609495,154.634599" id="Fill-129" fill="#F0C9A4"></path>
                <path d="M44.9302234,203.925416 C43.8981303,203.925416 42.8497654,203.744877 41.8269703,203.362104 C37.2360154,201.647372 34.9045076,196.535722 36.619239,191.945541 L43.2643073,174.153557 C44.9782638,169.563377 50.0899144,167.231094 54.6816443,168.945826 C59.2718244,170.660557 61.6033321,175.772208 59.8893756,180.363163 L53.2435325,198.154372 C51.9115744,201.721757 48.5270526,203.925416 44.9302234,203.925416" id="Fill-131" fill="#F0C9A4"></path>
                <path d="M143.757716,446.747261 C143.569429,446.747261 143.378042,446.699221 143.202152,446.597716 C142.672933,446.290878 142.49162,445.612114 142.799233,445.08212 L148.467997,435.298156 C148.77561,434.767387 149.454374,434.587623 149.983593,434.893687 C150.514362,435.2013 150.694901,435.880064 150.388062,436.410058 L144.718523,446.194022 C144.513189,446.548901 144.140489,446.747261 143.757716,446.747261" id="Fill-133" fill="#334F5C"></path>
                <path d="M152.140296,442.988102 C152.057388,442.988102 151.972155,442.978804 151.888471,442.959433 L140.488181,440.310239 C139.890776,440.170767 139.5204,439.575686 139.659097,438.978281 C139.79702,438.38165 140.3921,438.0074 140.99028,438.149197 L152.390571,440.798391 C152.987976,440.937088 153.358352,441.532944 153.22043,442.130349 C153.101103,442.642522 152.64472,442.988102 152.140296,442.988102" id="Fill-135" fill="#334F5C"></path>
                <path d="M33.5830099,147.147971 C40.0250689,125.980763 68.1511575,128.846914 76.376909,136.888252 C78.8106963,139.267026 80.9740627,141.975883 82.7515565,144.766874 L84.9505658,143.565864 C86.8466109,148.331934 87.4037242,151.878398 87.5602429,153.824034 L89.7793981,153.824034 C89.0401963,159.903465 87.1921916,162.799835 87.1921916,162.799835 C79.5413748,180.742139 54.0838516,174.806054 45.968128,168.389565 C44.1201233,166.928207 39.0185457,176.704423 39.0185457,176.704423 C39.0185457,176.704423 27.908822,165.789961 33.5830099,147.147971" id="Fill-137" fill="#DD902F"></path>
                <path d="M38.532873,171.481815 C37.3496851,168.850442 38.5235748,165.758037 41.1549475,164.574074 C43.7863202,163.391661 46.8787255,164.565551 48.0619134,167.196924 C49.2451012,169.828296 48.0719863,172.920702 45.4398388,174.103889 C42.8084661,175.287077 39.7160609,174.113188 38.532873,171.481815" id="Fill-139" fill="#F0C9A4"></path>
                <path d="M40.9179225,170.409197 C40.326716,169.095061 40.9132734,167.550795 42.2274101,166.959589 C43.5415467,166.368382 45.0858123,166.95494 45.6770188,168.269076 C46.2682253,169.583213 45.6816679,171.127478 44.3675312,171.718685 C43.0533946,172.309891 41.509129,171.723334 40.9179225,170.409197" id="Fill-141" fill="#EBB17E"></path>
                <path d="M211.516492,488.730363 C208.089354,488.730363 204.773018,486.893206 203.038916,483.662879 L198.264323,474.770761 C195.753051,470.093023 197.509624,464.266191 202.186587,461.754919 C206.865874,459.242098 212.692706,460.999445 215.203203,465.677183 L219.977021,474.569301 C222.488293,479.246264 220.732495,485.073871 216.053983,487.584368 C214.607348,488.361537 213.04991,488.730363 211.516492,488.730363" id="Fill-143" fill="#FFFFFF"></path>
                <path d="M214.991206,473.2282 C214.575114,469.531416 208.012954,471.260094 206.349362,472.590502 C204.684996,473.921686 201.766931,477.377493 203.869859,478.977548 C205.973563,480.576827 214.991206,473.2282 214.991206,473.2282" id="Fill-145" fill="#334F5C"></path>
                <path d="M233.682862,492.022756 C230.965482,486.747613 228.991177,480.869641 220.364831,474.030086 C214.40705,469.307408 198.057827,476.55608 202.494587,490.667552 C206.931348,504.77825 209.135007,506.050545 209.135007,506.050545 L233.682862,492.022756 Z" id="Fill-147" fill="#99A7AD"></path>
                <path d="M235.709236,495.08502 C235.709236,495.08502 234.66707,492.502462 233.683017,492.022833 C232.619155,491.504462 214.387059,499.462892 208.59277,505.110735 C207.975994,505.712015 210.135486,508.558794 210.135486,508.558794 L235.709236,495.08502 Z" id="Fill-149" fill="#334F5C"></path>
                <path d="M232.00757,495.669175 C219.331111,502.112784 220.056366,501.696692 214.756428,504.77825 C209.457265,507.859032 206.397403,510.778647 217.283196,506.134228 C240.822204,496.089916 236.878244,493.193546 232.00757,495.669175" id="Fill-151" fill="#99A7AD"></path>
                <path d="M205.980614,485.058994 C205.671451,485.058994 205.363837,484.93037 205.144556,484.680095 C204.740862,484.219062 204.788128,483.518602 205.249935,483.114908 L215.308969,474.318871 C215.770002,473.915177 216.470462,473.962443 216.874156,474.4227 C217.277075,474.884508 217.230584,475.584967 216.768777,475.988661 L206.708968,484.784699 C206.498985,484.969112 206.239412,485.058994 205.980614,485.058994" id="Fill-153" fill="#2D146B"></path>
                <path d="M204.888005,481.830991 C204.375058,481.830991 203.9148,481.473787 203.803998,480.952317 C203.676923,480.353362 204.058921,479.76448 204.657876,479.637405 L217.895324,476.820845 C218.495828,476.690671 219.083161,477.076543 219.21101,477.675498 C219.338084,478.274453 218.956086,478.86411 218.357131,478.991185 L205.119684,481.80697 C205.041425,481.823242 204.96394,481.830991 204.888005,481.830991" id="Fill-155" fill="#334F5C"></path>
                <path d="M117.752765,337.366307 C114.329501,337.366307 111.067405,335.374181 109.613021,332.035375 C107.57363,327.353763 106.55006,325.003659 97.2379759,324.092442 C92.3603284,323.615912 88.7937182,319.275232 89.2702477,314.398359 C89.7467772,309.520712 94.1029542,305.952552 98.96433,306.430631 C115.305805,308.029136 121.54408,314.988016 125.882436,324.947095 C127.840468,329.44042 125.784805,334.669072 121.292255,336.625555 C120.137737,337.128429 118.935178,337.366307 117.752765,337.366307" id="Fill-157" fill="#F0C9A4"></path>
                <path d="M100.791646,312.351839 C99.4767348,312.351839 98.3508854,311.353839 98.2199366,310.016457 C98.0781401,308.594617 99.1187565,307.328521 100.541371,307.188274 L110.560889,306.200347 C111.988152,306.050802 113.250375,307.099167 113.389847,308.521782 C113.530868,309.944397 112.491027,311.209718 111.068412,311.35074 L101.04812,312.337892 C100.962112,312.347965 100.87533,312.351839 100.791646,312.351839" id="Fill-159" fill="#F0C9A4"></path>
                <path d="M130.663305,280.812482 C132.488064,276.905715 135.500661,273.445259 139.707293,271.016895 L318.303577,167.904434 C337.961387,156.554509 362.181484,156.554509 381.839294,167.904434 L487.192606,228.73052 C491.69058,231.327024 494.817078,235.105942 496.592248,239.345892 L498.330999,239.345892 L498.330999,247.726613 L498.327125,247.726613 C498.429404,255.334038 494.723322,262.986405 487.192606,267.334059 L308.596322,370.447295 C288.938511,381.796445 264.718415,381.796445 245.060605,370.447295 L139.707293,309.621209 C132.278081,305.332444 128.562701,297.824973 128.562701,290.319052 L128.562701,280.812482 L130.663305,280.812482 Z" id="Fill-161" fill="#99A7AD"></path>
                <g id="Group-165" transform="translate(127.849379, 149.772061)">
                    <mask id="mask-6" fill="white">
                        <use xlink:href="#path-5"></use>
                    </mask>
                    <g id="Clip-164"></g>
                    <path d="M253.989993,9.07195947 L359.343305,69.89727 C374.202502,78.4763508 374.202502,99.922503 359.343305,108.501584 L180.747021,211.614045 C161.08921,222.96397 136.869114,222.96397 117.211303,211.614045 L11.8579911,150.787959 C-3.00120606,142.209654 -3.00120606,120.762727 11.8579911,112.184421 L190.454275,9.07195947 C210.112086,-2.27719115 234.332182,-2.27719115 253.989993,9.07195947" id="Fill-163" fill="#FFFFFF" mask="url(#mask-6)"></path>
                </g>
                <polygon id="Fill-166" fill="#99A7AD" points="281.002087 201.674259 330.679707 230.355911 265.722149 267.859171 216.04453 239.177519"></polygon>
                <path d="M316.667647,544.226369 C315.210939,551.815198 313.075467,554.803 308.100964,555.644481 C303.15513,556.481313 286.143414,554.202495 265.83086,535.872768 C263.023597,533.339026 260.524723,526.728826 265.240428,519.256223 C269.956908,511.78517 293.289032,541.911133 293.289032,541.911133 L316.667647,544.226369 Z" id="Fill-168" fill="#FFFFFF"></path>
                <path d="M265.424221,518.931951 C262.862585,523.181974 263.827266,530.308221 269.560342,534.741107 C296.861996,555.857176 313.759035,554.567834 315.889083,547.211458 C318.663802,537.631278 319.59904,525.180298 312.344943,521.856215 C301.194928,516.746889 283.39597,513.104343 270.517276,515.98909 C268.980759,516.333121 266.199066,517.646483 265.424221,518.931951" id="Fill-170" fill="#334F5C"></path>
                <path d="M387.153567,303.894332 C383.662116,303.894332 380.490677,301.523307 379.619751,297.982267 C379.569386,297.776933 374.507326,277.268343 368.080764,258.187017 C366.711613,254.123731 368.896675,249.720288 372.961511,248.350363 C377.024796,246.983537 381.427464,249.167824 382.79739,253.23111 C389.436259,272.947809 394.487472,293.414557 394.699005,294.276184 C395.722574,298.439425 393.176435,302.644507 389.013194,303.668077 C388.390994,303.821496 387.766469,303.894332 387.153567,303.894332" id="Fill-172" fill="#F0C9A4"></path>
                <path d="M314.23417,526.092446 C316.376615,530.069724 318.216097,538.02428 311.536935,540.833092 C304.856999,543.641904 294.291991,541.027578 289.797892,534.13146 C285.968609,528.254262 286.446688,525.976219 289.848257,518.442404 L314.23417,526.092446 Z" id="Fill-174" fill="#334F5C"></path>
                <path d="M305.948445,422.236753 L306.094891,423.25335 L334.476678,406.866934 C345.44693,400.533353 358.961771,400.533353 369.931248,406.866934 L408.66651,429.230502 L408.263591,418.949087 L425.236565,416.674143 L425.236565,494.371698 C425.236565,497.786438 423.546628,501.200404 420.166756,503.152238 L369.931248,532.155451 C358.961771,538.489031 345.44693,538.489031 334.476678,532.155451 L284.24117,503.152238 C280.862073,501.200404 279.171361,497.786438 279.171361,494.371698 L279.171361,416.674143 L305.948445,422.236753 Z" id="Fill-176" fill="#99A7AD"></path>
                <path d="M284.24148,425.455691 L334.476988,454.459678 C345.446465,460.791709 358.962081,460.791709 369.931558,454.459678 L420.167066,425.455691 C426.926036,421.552798 426.926036,411.795953 420.167066,407.893835 L369.931558,378.889848 C358.962081,372.556267 345.446465,372.556267 334.476988,378.889848 L284.24148,407.893835 C277.481735,411.795953 277.481735,421.552798 284.24148,425.455691" id="Fill-178" fill="#FFFFFF"></path>
                <path d="M400.793546,436.640264 L375.438302,451.279406 C375.438302,451.279406 332.790074,424.300087 326.737761,419.370525 C320.685449,414.441738 319.73239,401.984559 328.835266,400.819193 C337.938917,399.652277 400.793546,436.640264 400.793546,436.640264" id="Fill-180" fill="#99A7AD"></path>
                <path d="M357.892563,427.628898 C355.065155,427.628898 352.205203,426.857152 349.635043,425.240052 C349.471551,425.136222 345.516743,422.640448 337.087207,416.86553 C330.378602,412.269926 322.961013,402.972564 325.731083,384.783084 C327.06924,375.993246 330.404172,367.018219 333.347032,359.099306 C334.871152,355.000378 336.957034,349.385853 337.188712,347.511503 C337.286343,346.473211 337.394821,345.412449 337.502524,344.354011 C338.543141,334.143882 339.231978,327.397309 332.917768,315.274089 C328.955212,307.668213 331.91047,298.290267 339.515571,294.329261 C347.122221,290.36593 356.499392,293.321963 360.460398,300.927839 C371.071122,321.297732 369.588844,335.82762 368.399457,347.50453 C368.299502,348.483159 368.198773,349.466437 368.105016,350.457463 C367.565725,356.175042 365.199349,362.543491 362.458723,369.918463 C360.301555,375.722825 355.990319,387.3238 356.132891,392.264985 C362.948425,396.912503 366.157832,398.943371 366.191925,398.964292 C373.440597,403.540525 375.614037,413.127679 371.042453,420.379451 C368.088745,425.061837 363.046055,427.628898 357.892563,427.628898" id="Fill-182" fill="#334F5C"></path>
                <path d="M390.456497,440.884476 C388.663507,440.884476 386.84727,440.41802 385.192202,439.438616 L355.13675,421.645857 C350.217261,418.73399 348.590087,412.384913 351.502729,407.464649 C354.414595,402.545934 360.763673,400.916436 365.683937,403.830627 L395.739389,421.622611 C400.659652,424.534478 402.286826,430.88433 399.374185,435.80382 C397.441722,439.069015 393.994438,440.884476 390.456497,440.884476" id="Fill-184" fill="#F0C9A4"></path>
                <path d="M419.822647,461.396708 C417.603492,461.396708 415.355667,460.809376 413.318601,459.574273 L386.7515,443.473 C380.815414,439.875396 378.919369,432.14477 382.516973,426.20791 C386.116127,420.271825 393.843653,418.37578 399.783613,421.972609 L426.349939,438.074657 C432.286799,441.673036 434.182844,449.402887 430.58524,455.340522 C428.220414,459.24109 424.07267,461.396708 419.822647,461.396708" id="Fill-186" fill="#FFFFFF"></path>
                <path d="M430.768801,432.723657 C425.11166,430.447938 415.361789,426.386202 409.66513,429.330612 C403.967697,432.275797 402.314953,440.631722 403.631414,446.412064 C404.946326,452.192405 410.823523,481.373832 415.778655,485.837713 C421.881332,491.336011 429.191992,490.627028 429.191992,490.627028 L430.768801,432.723657 Z" id="Fill-188" fill="#334F5C"></path>
                <path d="M427.117035,433.112629 C417.512835,438.657418 416.947198,446.398116 417.495789,456.022463 C417.987815,464.658107 422.542352,489.856057 428.033677,490.830037 C428.789925,490.964085 431.773077,491.528172 432.862509,491.363905 C437.54722,490.656472 437.716136,461.02486 436.567816,452.337301 C435.791422,446.45778 438.59791,435.075311 434.376556,433.442713 C432.518478,432.723657 429.417549,431.784545 427.117035,433.112629" id="Fill-190" fill="#FFFFFF"></path>
                <path d="M430.768801,433.851133 C421.163826,439.395922 420.598964,447.137396 421.146779,456.760967 C421.695369,466.385314 426.289424,496.336936 434.419869,490.700716 C444.055064,484.022329 441.367127,461.76414 440.219582,453.075806 C439.072812,444.387472 437.883425,429.743682 430.768801,433.851133" id="Fill-192" fill="#334F5C"></path>
                <path d="M304.752162,539.780852 C311.692447,539.59334 315.0452,537.729064 314.856912,530.78878 L314.257183,508.613498 C314.06812,501.673989 308.290103,496.200486 301.349819,496.388773 C294.41031,496.576286 288.936807,502.355078 289.125094,509.294587 L289.574504,525.89486 C289.762791,532.83437 296.313329,538.657328 304.752162,539.780852" id="Fill-194" fill="#FFFFFF"></path>
                <path d="M301.752661,518.168419 C296.038956,518.168419 291.405385,513.538721 291.40151,507.824242 L291.359669,451.128853 C291.35502,445.412824 295.986267,440.773829 301.703846,440.769954 L301.710819,440.769954 C307.425299,440.769954 312.058871,445.399652 312.062745,451.114131 L312.104586,507.80952 C312.109236,513.526324 307.477989,518.164544 301.761184,518.168419 L301.752661,518.168419 Z" id="Fill-196" fill="#F0C9A4"></path>
                <path d="M301.825264,471.128448 C293.414325,471.128448 286.50271,464.408995 286.308224,455.956214 C284.692672,385.484861 297.050671,362.008616 306.074512,344.867501 C310.279595,336.878077 312.390272,332.868255 312.177964,325.015979 C311.945511,316.442322 318.706806,309.304453 327.280463,309.072774 C327.423034,309.0689 327.56638,309.06735 327.708177,309.06735 C336.089672,309.06735 342.994314,315.744187 343.223668,324.174498 C343.655256,340.146372 338.52036,349.900892 333.555155,359.333852 C326.115096,373.467794 315.924339,392.82419 317.356252,455.244131 C317.553062,463.817788 310.762323,470.927763 302.187891,471.124574 C302.067016,471.126898 301.945365,471.128448 301.825264,471.128448" id="Fill-198" fill="#334F5C"></path>
                <path d="M365.966368,312.898182 C366.210444,313.75981 367.795001,322.851063 368.039852,324.633981 C368.283928,326.416898 334.926088,355.737023 319.467161,356.907038 C305.104639,357.992595 301.15758,354.562358 301.15758,354.562358 L314.305145,327.434269 L365.966368,312.898182 Z" id="Fill-200" fill="#BC4542"></path>
                <path d="M292.781431,201.109785 C272.836928,224.973453 296.08227,264.21004 297.33132,302.750816 C298.581144,341.291592 297.33132,344.936462 297.33132,344.936462 C297.33132,344.936462 297.776855,351.589279 316.310366,350.579656 C334.843877,349.570033 374.553119,317.47829 374.119981,306.443726 C373.686068,295.408387 353.727618,182.635162 328.834956,182.635162 C309.524276,182.635162 292.781431,201.109785 292.781431,201.109785" id="Fill-202" fill="#E3584E"></path>
                <path d="M326.488649,178.562888 C328.123571,182.208533 329.921986,186.072683 330.630969,193.047061 C331.339952,200.021438 324.257871,204.068452 314.863654,202.044558 C305.469436,200.021438 297.021304,198.770839 290.261559,204.526385 L287.247413,191.544637 L326.488649,178.562888 Z" id="Fill-204" fill="#BC4542"></path>
                <path d="M316.10542,173.333384 C330.105314,172.188163 334.993809,191.271039 303.137618,195.457525 C271.279878,199.644786 293.486153,175.182938 316.10542,173.333384" id="Fill-206" fill="#E3584E"></path>
                <path d="M207.675587,281.513949 C204.675388,278.129428 203.333357,274.021976 202.778568,271.865583 C202.778568,271.865583 204.286416,273.568692 212.943756,272.310344 C222.809079,270.876881 238.421425,263.469366 238.421425,263.469366 L268.554361,297.60515 L232.259085,309.620667 L207.675587,281.513949 Z" id="Fill-208" fill="#DD902F"></path>
                <path d="M219.490496,297.735711 C216.115273,297.735711 213.008145,295.516556 212.031066,292.108789 C210.850203,287.98739 213.233625,283.687776 217.355024,282.506138 L258.273024,270.776539 C262.392099,269.5949 266.694037,271.977548 267.875675,276.100497 C269.058088,280.221896 266.673891,284.520734 262.551717,285.703147 L221.634492,297.432747 C220.91931,297.638081 220.199479,297.735711 219.490496,297.735711" id="Fill-210" fill="#F0C9A4"></path>
                <path d="M313.80661,176.212939 C324.232146,175.359835 327.872367,189.570487 304.148946,192.688463 C280.425525,195.806438 296.962261,177.589838 313.80661,176.212939" id="Fill-212" fill="#BC4542"></path>
                <path d="M257.374592,290.721274 C253.102873,290.721274 249.065932,288.151114 247.400791,283.937509 C245.223477,278.431462 247.923036,272.201711 253.429857,270.025172 C267.719544,264.376554 271.558899,262.857858 284.50578,218.08578 C286.15,212.39687 292.096159,209.120827 297.783519,210.764273 C303.471654,212.409268 306.750797,218.353877 305.105802,224.042787 C291.607232,270.721757 285.059019,280.579332 261.313902,289.966575 C260.019912,290.477973 258.685629,290.721274 257.374592,290.721274" id="Fill-214" fill="#E3584E"></path>
                <path d="M375.435512,266.433224 C370.868578,266.433999 366.637925,263.494238 365.204463,258.904833 C363.885677,254.680379 358.915048,246.838951 342.729317,233.466681 C342.059851,232.913441 341.532182,232.476429 341.176528,232.169591 C335.748741,227.494177 336.237668,221.215611 338.986817,217.361533 C341.770834,213.459415 347.596891,211.192994 353.349339,214.409375 C353.685621,214.597662 354.18927,214.894427 354.878882,215.315943 C356.199217,216.123331 357.28245,217.171696 358.108435,218.368831 C368.423943,227.031595 381.609475,239.498847 385.673536,252.513139 C387.437857,258.165631 384.287339,264.178426 378.634846,265.943522 C377.570984,266.275931 376.49395,266.433224 375.435512,266.433224" id="Fill-216" fill="#E3584E"></path>
                <path d="M300.733353,163.747005 L314.102524,189.693455 C314.171485,189.836027 314.224949,189.981698 314.283837,190.126593 C311.684233,191.230747 308.353951,192.135766 304.148868,192.689005 C301.914991,192.981896 300.039092,193.0865 298.486303,193.033036 L287.247955,171.537294 C290.062966,168.495253 295.10798,165.373404 300.733353,163.747005" id="Fill-218" fill="#F0C9A4"></path>
                <path d="M268.12409,161.290747 C268.12409,146.55475 280.069871,134.608969 294.805868,134.608969 C309.540315,134.608969 321.486096,146.55475 321.486096,161.290747 C321.486096,176.026744 309.540315,187.972525 294.805868,187.972525 C280.069871,187.972525 268.12409,176.026744 268.12409,161.290747" id="Fill-220" fill="#F0C9A4"></path>
                <path d="M267.246346,152.079316 C264.321307,163.980931 266.583854,164.348982 270.403838,167.881499 C274.224598,171.414016 284.481992,172.61425 292.316447,166.553415 C292.316447,166.553415 290.164703,181.090277 304.725585,187.972448 C319.287242,194.853844 312.415919,202.040528 304.966562,210.019879 C297.51643,217.998455 296.748559,235.128723 308.963986,239.564709 C321.178638,244.001469 329.866197,248.253042 336.521338,260.269334 C343.17648,272.284851 375.239554,260.186426 378.854205,237.917389 C381.590182,221.064516 371.589261,213.674822 357.910152,209.24271 C344.230268,204.811373 354.804574,184.061806 346.369615,174.902367 C337.934655,165.742927 331.494921,169.225855 330.403939,157.07164 C329.312183,144.917426 311.105657,130.670356 294.805248,132.34712 C278.504065,134.023884 268.129669,148.486361 267.246346,152.079316" id="Fill-222" fill="#DD902F"></path>
                <path d="M285.377248,171.391778 C285.377248,168.294724 287.887745,165.784227 290.984799,165.784227 C294.081078,165.784227 296.59235,168.294724 296.59235,171.391778 C296.59235,174.488832 294.081078,176.999329 290.984799,176.999329 C287.887745,176.999329 285.377248,174.488832 285.377248,171.391778" id="Fill-224" fill="#F0C9A4"></path>
                <path d="M287.473977,171.391778 C287.473977,169.453116 289.045363,167.881731 290.984799,167.881731 C292.92346,167.881731 294.49562,169.453116 294.49562,171.391778 C294.49562,173.330439 292.92346,174.902599 290.984799,174.902599 C289.045363,174.902599 287.473977,173.330439 287.473977,171.391778" id="Fill-226" fill="#EBB17E"></path>
                <path d="M212.202075,299.464777 C202.909362,299.464777 193.698783,294.888544 190.402593,287.881623 C188.317486,283.446412 190.222054,278.160421 194.655716,276.074539 C198.973925,274.045996 204.095649,275.795595 206.287685,279.978982 C207.266314,280.894074 211.035933,282.401921 214.525834,281.425617 C219.246188,280.104507 224.141657,282.85908 225.461992,287.577109 C226.783102,292.296689 224.029304,297.192932 219.3105,298.514043 C217.002238,299.160263 214.598669,299.464777 212.202075,299.464777" id="Fill-228" fill="#F0C9A4"></path>
                <path d="M213.31142,279.893827 L213.31142,279.894601 L213.31142,279.893827 Z M215.159424,287.628327 C214.693743,287.628327 214.222637,287.502027 213.797247,287.239355 C212.504032,286.43739 208.274929,283.551868 208.139331,280.097611 C208.083542,278.669572 209.195445,277.465463 210.624258,277.409674 C212.019754,277.343038 213.223862,278.437893 213.309095,279.838813 C213.502806,280.469536 215.078841,281.943291 216.52625,282.840561 C217.741207,283.59371 218.114682,285.18989 217.361533,286.404847 C216.871831,287.194414 216.024926,287.628327 215.159424,287.628327 Z" id="Fill-230" fill="#F0C9A4"></path>
                <path d="M394.396505,307.097385 L394.404254,307.097385 L394.396505,307.097385 Z M401.244583,310.730632 C398.342014,310.731407 395.567295,309.297169 393.903704,306.84866 C392.546951,306.2745 389.638959,305.64765 387.321398,305.463237 C382.444525,305.07504 378.791132,300.811845 379.168482,295.934197 C379.545056,291.055775 383.779583,287.403157 388.665754,287.768109 C395.005533,288.241539 406.137727,290.270857 409.470334,298.537675 C411.303617,303.08214 409.104608,308.252678 404.559368,310.084411 C403.472261,310.523748 402.349511,310.730632 401.244583,310.730632 Z" id="Fill-232" fill="#F0C9A4"></path>
                <path d="M389.515913,294.653766 C388.515589,294.653766 387.563305,294.070308 387.141014,293.094004 C386.571503,291.782966 387.173558,290.258847 388.48537,289.690886 L397.296129,285.870126 C398.607166,285.302165 400.131286,285.903445 400.700022,287.214482 C401.268758,288.526294 400.667478,290.049639 399.354891,290.618375 L390.543357,294.439134 C390.208624,294.58403 389.859169,294.653766 389.515913,294.653766" id="Fill-234" fill="#F0C9A4"></path>
                <path d="M353.288901,176.622367 C353.241635,176.622367 353.195144,176.619268 353.146329,176.613069 C352.538851,176.53481 352.110362,175.979246 352.187071,175.371768 L355.759106,147.547094 C355.835815,146.938841 356.391379,146.511901 356.999632,146.587836 C357.60711,146.666095 358.036374,147.221659 357.958115,147.829137 L354.38763,175.653811 C354.316345,176.214024 353.838266,176.622367 353.288901,176.622367" id="Fill-236" fill="#2D146B"></path>
                <path d="M394.298177,183.062102 C383.386814,183.063651 370.786289,172.391715 355.23903,150.162195 C352.781997,146.648274 353.637426,141.807819 357.151347,139.350012 C360.666042,136.891429 365.507272,137.749957 367.964305,141.263103 C386.886013,168.316807 394.627486,167.475325 394.693348,167.448206 C394.801052,167.406364 405.301747,161.483451 397.168202,98.005847 C396.623486,93.7527244 399.629109,89.8637787 403.883007,89.318288 C408.128381,88.7712477 412.02585,91.7791949 412.570566,96.0330924 C421.450286,165.339853 409.815218,178.250316 400.291601,181.931603 C398.34984,182.683203 396.352291,183.062102 394.298177,183.062102" id="Fill-238" fill="#F0C9A4"></path>
                <path d="M352.270367,156.359868 L352.261069,156.369941 L352.270367,156.359868 Z M352.259519,156.371491 C352.25642,156.37459 352.254095,156.376914 352.251771,156.380014 C352.254095,156.376914 352.25642,156.37459 352.259519,156.371491 Z M352.247897,156.383888 C352.247122,156.385438 352.246347,156.385438 352.245572,156.386987 C352.246347,156.386213 352.247122,156.384663 352.247897,156.383888 Z M345.802738,159.16868 C343.638597,159.16868 341.470582,158.379888 339.764373,156.786807 C336.193889,153.451101 336.002502,147.852848 339.338984,144.280814 C341.516297,141.948531 346.595405,138.952206 358.419535,137.920888 C363.303381,137.496273 367.5782,141.099301 368.00204,145.966876 C368.427429,150.83445 364.824401,155.12554 359.956052,155.550155 C354.308984,156.042182 351.885269,156.994466 351.28244,157.269536 C349.68626,158.531758 347.746049,159.16868 345.802738,159.16868 Z" id="Fill-240" fill="#F0C9A4"></path>
                <path d="M411.736678,88.9661211 C413.222055,93.5198835 413.457608,102.075719 413.457608,102.962141 C413.457608,102.962141 412.593656,101.409352 410.429515,101.287702 C405.98888,101.038202 398.414772,102.756807 398.014952,107.85916 C398.014952,107.85916 390.931322,89.4736444 394.013654,84.6432624 C403.432667,69.884795 410.322586,84.6300901 411.736678,88.9661211" id="Fill-242" fill="#E3584E"></path>
                <path d="M161.199316,286.794051 C159.113434,286.794051 157.005856,286.185798 155.153977,284.914278 C154.199368,284.259534 131.064055,268.144314 69.9032363,205.459376 C65.7686649,201.22175 65.8515733,194.433335 70.0899739,190.297989 C74.3291494,186.161868 81.1160143,186.246326 85.2521354,190.484727 C144.364264,251.07061 167.092784,267.097498 167.31594,267.253242 C172.166468,270.626141 173.387623,277.29678 170.029446,282.15893 C167.947438,285.172301 164.601659,286.794051 161.199316,286.794051" id="Fill-244" fill="#E3584E"></path>
                <path d="M184.785899,301.976901 C180.593989,301.976901 176.864661,298.992974 176.071995,294.722805 C175.7977,293.772845 172.388383,289.141598 161.9489,286.382376 C157.2115,285.130227 154.386416,280.2735 155.638565,275.5361 C156.890714,270.798699 161.752865,267.976715 166.484066,269.22499 C181.340939,273.151903 191.700613,281.680618 193.519948,291.482404 C194.414894,296.301164 191.234157,300.931636 186.416172,301.827356 C185.868357,301.928861 185.322866,301.976901 184.785899,301.976901" id="Fill-246" fill="#F0C9A4"></path>
                <path d="M167.157407,294.04838 C166.261686,294.04838 165.390761,293.582698 164.911907,292.750515 L159.033934,282.528764 C158.321852,281.289012 158.748017,279.706779 159.987768,278.994697 C161.225195,278.28184 162.807428,278.708779 163.521835,279.948531 L169.399807,290.170282 C170.111889,291.410034 169.68495,292.992267 168.445198,293.704349 C168.03918,293.937577 167.595194,294.04838 167.157407,294.04838" id="Fill-248" fill="#F0C9A4"></path>
            </g>
        </g>
    </g>
</svg>