<?xml version="1.0" encoding="UTF-8"?>
<svg width="250px" height="188px" viewBox="0 0 250 188" version="1.1" xmlns="http://www.w3.org/2000/svg" xmlns:xlink="http://www.w3.org/1999/xlink">
    <!-- Generator: sketchtool 51.1 (57501) - http://www.bohemiancoding.com/sketch -->
    <title>5CE641C5-FAF2-46DA-852A-C7F2C07451F5</title>
    <desc>Created with sketchtool.</desc>
    <defs>
        <polygon id="path-1" points="0.452322282 0.0191348885 19.3650924 0.0191348885 19.3650924 13.39695 0.452322282 13.39695"></polygon>
        <polygon id="path-3" points="0 0.466666592 18.1830669 0.466666592 18.1830669 34.5 0 34.5"></polygon>
    </defs>
    <g id="Page-1" stroke="none" stroke-width="1" fill="none" fill-rule="evenodd">
        <g id="Homepage" transform="translate(-1077.000000, -2347.000000)">
            <g id="Group-18" transform="translate(1036.000000, 2347.000000)">
                <g id="Group-23" transform="translate(41.000000, 0.000000)">
                    <path d="M0.736269054,73.6358121 C8.44310815,59.3688302 62.0752963,73.4742125 81.6624442,56.517555 C101.249592,39.5608975 55.7654671,15.430049 81.6624442,3.57775971 C107.559421,-8.27452956 114.149371,13.1178895 160.620744,13.1178895 C207.092117,13.1178895 216.359908,-6.37660898 237.672731,3.57775971 C258.985555,13.5321284 235.100923,17.6458821 237.672731,56.517555 C240.24454,95.3892279 257.382004,119.839631 246.313253,134.175154 C235.244502,148.510677 216.438436,119.558839 193.580672,134.175154 C170.722907,148.791469 208.325511,184.575552 178.300185,187.813217 C148.27486,191.050881 125.961826,145.488797 104.529626,145.488797 C83.0974252,145.488797 108.905379,191.250142 81.6624442,187.813217 C54.4195098,184.376291 19.6771158,146.943966 14.8515487,134.175154 C10.0259815,121.406342 56.6651091,128.563577 52.4680191,110.562583 C48.2709292,92.5615893 -6.97057004,87.9027941 0.736269054,73.6358121 Z" id="Path-3" fill="#F2F3F5" fill-rule="nonzero"></path>
                    <g id="Group-69" transform="translate(52.000000, 0.000000)">
                        <path d="M162.336454,89.7668 C161.845081,89.7668 161.362232,89.5328 161.063398,89.0983 C160.581552,88.3983 160.761053,87.4408 161.463515,86.9608 C161.810485,86.7238 164.9307,84.6648 167.550017,84.7153 C168.401395,84.7368 169.074275,85.4423 169.052714,86.2913 C169.031655,87.1398 168.333204,87.8113 167.472801,87.7898 C166.074896,87.7563 163.871742,89.0438 163.206885,89.4978 C162.94014,89.6798 162.636793,89.7668 162.336454,89.7668" id="Fill-1" fill="#EBAF7C"></path>
                        <g id="Group-5" transform="translate(159.445378, 83.320000)">
                            <mask id="mask-2" fill="white">
                                <use xlink:href="#path-1"></use>
                            </mask>
                            <g id="Clip-4"></g>
                            <path d="M18.7035445,13.39695 C18.5741832,13.39695 18.443819,13.35945 18.3294997,13.28145 L0.738863866,1.22045 C0.438023529,1.01395 0.361810644,0.60445 0.568889076,0.30395 C0.775466106,0.00495 1.18711597,-0.07055 1.4874549,0.13445 L19.0785922,12.19495 C19.3794325,12.40145 19.4556454,12.81145 19.2485669,13.11145 C19.1207098,13.29695 18.9136314,13.39695 18.7035445,13.39695" id="Fill-3" fill="#2D146B" mask="url(#mask-2)"></path>
                        </g>
                        <path d="M144.049774,97.98555 C141.5889,97.98555 139.542183,96.05255 139.432376,93.57705 C139.319561,91.03155 141.297085,88.87755 143.849213,88.76505 L160.882793,88.01405 C163.432917,87.90755 165.595457,89.87355 165.707771,92.41855 C165.820586,94.96355 163.843564,97.11805 161.291435,97.23055 L144.257855,97.98105 C144.18816,97.98455 144.118466,97.98555 144.049774,97.98555" id="Fill-6" fill="#EBAF7C"></path>
                        <path d="M78.6556585,133.1413 C76.371779,133.1413 74.1510759,131.9598 72.9266557,129.8453 C71.1020591,126.6938 72.1850843,122.6643 75.345412,120.8443 L93.1862468,110.5718 C96.3470759,108.7518 100.388364,109.8323 102.212961,112.9843 C104.038059,116.1353 102.955034,120.1653 99.7947062,121.9853 L81.95337,132.2573 C80.9129639,132.8568 79.7762888,133.1413 78.6556585,133.1413" id="Fill-8" fill="#FFFFFF"></path>
                        <path d="M102.045694,112.5251 C103.697307,115.1246 102.103355,119.1476 99.3281028,120.6956 C81.3223073,130.7381 77.0709319,134.3261 73.70503,130.9531 C69.7018479,126.9416 70.4950636,120.4981 74.9164137,118.3091 C81.7118955,114.9456 93.243607,107.3091 99.3080468,109.9976 C100.196529,110.3911 101.546299,111.7396 102.045694,112.5251" id="Fill-10" fill="#99A7AD"></path>
                        <path d="M78.1265807,127.18035 C78.0002277,127.18035 77.8733734,127.17685 77.7455162,127.16985 C74.2236787,126.96285 71.5366731,123.94835 71.7442529,120.43685 L72.331393,110.47935 C72.5384714,106.96735 75.558407,104.28085 79.0832529,104.49435 C82.6050905,104.70085 85.2920961,107.71535 85.0845162,111.22735 L84.4973762,121.18485 C84.2978188,124.56885 81.4824546,127.18035 78.1265807,127.18035" id="Fill-12" fill="#FFFFFF"></path>
                        <path d="M29.5402146,165.1691 C25.6734134,165.1691 22.067842,162.7321 20.7702174,158.8746 C19.1456796,154.0446 21.7549681,148.8151 26.5995003,147.1946 C39.781321,142.7851 48.2379429,139.9326 54.4989317,137.4986 C57.8051669,136.2141 59.9967888,135.2261 61.4458364,134.4921 C58.2749793,132.1326 51.060828,128.6506 46.021251,126.2186 C31.4209681,119.1716 16.3237972,111.8851 12.8445787,99.9986 C11.3824947,95.0011 12.1541501,89.8586 15.0773154,85.1261 C17.7573014,80.7891 23.4562202,79.4381 27.8063714,82.1106 C32.1565227,84.7831 33.5103042,90.4656 30.8308196,94.8041 C30.7741613,94.8946 30.7315423,94.9711 30.6994527,95.0336 C31.0183434,95.6356 32.3295059,97.5551 37.1640101,100.6731 C41.9238056,103.7426 48.1045703,106.7256 54.0817664,109.6106 C65.2830549,115.0166 74.1307692,119.2866 78.2131725,125.5436 C79.4701838,127.4706 83.2953686,133.3321 80.91873,140.1376 C78.7667188,146.2986 72.8983266,149.8416 64.7485619,153.2666 C57.7690661,156.1996 47.9406123,159.5171 32.4834359,164.6876 C31.507209,165.0136 30.5154387,165.1691 29.5402146,165.1691" id="Fill-14" fill="#334F5C"></path>
                        <path d="M78.1321964,123.2586 C77.8082916,123.2586 77.4823812,123.2421 77.1529611,123.2076 C72.0722692,122.6746 68.3864737,118.1351 68.9204653,113.0681 C70.1714597,101.2001 71.1577146,87.4726 71.3467426,78.4446 C63.4582076,82.9956 51.7710619,90.5911 41.8799331,97.5151 C37.6982524,100.4421 31.9286361,99.4351 28.9929359,95.2656 C26.0572356,91.0961 27.0670563,85.3426 31.248737,82.4151 C31.6508602,82.1331 41.2291151,75.4346 51.4561824,68.9416 C57.581793,65.0531 62.6765241,62.0446 66.5994821,60.0001 C71.3407258,57.5291 78.5052384,53.7946 84.414244,57.8736 C89.2286922,61.1976 89.7315969,67.3976 89.8484232,73.9981 C89.9256389,78.3796 89.7411235,84.2026 89.299891,91.3051 C88.5618294,103.1801 87.3715045,114.5211 87.320863,114.9981 C86.8209667,119.7371 82.8062524,123.2586 78.1321964,123.2586 Z" id="Fill-16" fill="#334F5C"></path>
                        <path d="M71.3917182,90.60855 L70.4480824,101.99405 C70.4480824,101.99405 85.511158,97.37805 90.006214,83.39705 L90.006214,70.65755 L71.3917182,90.60855 Z" id="Fill-18" fill="#334F5C"></path>
                        <path d="M104.759825,65.12615 C90.0733014,65.12615 80.9804022,62.77615 75.7342482,57.73315 C70.0714303,52.28915 70.1371137,45.22165 70.1897608,39.54315 C70.2053042,37.86615 70.2203462,36.28315 70.1105395,34.77665 C69.8543238,31.26765 72.4992118,28.21665 76.0175395,27.96115 C79.53687,27.70815 82.5959148,30.34365 82.8521305,33.85215 C83.0000437,35.87915 82.9819933,37.80215 82.9649457,39.66115 C82.9213238,44.29965 82.9764779,46.99965 84.6010157,48.56115 C86.4175899,50.30765 92.3702174,53.10615 111.822052,52.21365 C115.347901,52.05565 118.333741,54.77015 118.496195,58.28415 C118.657646,61.79865 115.932032,64.77865 112.408189,64.93965 C109.705139,65.06365 107.157021,65.12615 104.759825,65.12615" id="Fill-20" fill="#E3584E"></path>
                        <path d="M14.7819403,95.2609 C25.5510216,110.0474 40.1061784,113.8549 56.397184,110.8534 L45.8888311,103.5329 L14.7819403,95.2609 Z" id="Fill-22" fill="#334F5C"></path>
                        <path d="M70.0941437,32.91375 C48.352914,41.47775 11.5275499,76.88975 11.2337291,87.14025 C10.9399084,97.39025 34.5177683,114.50175 55.4011017,106.39775 C55.4011017,106.39775 92.2911465,74.87675 97.5774126,62.21075 C102.863679,49.54425 109.347791,17.45125 70.0941437,32.91375" id="Fill-24" fill="#E3584E"></path>
                        <path d="M12.7305602,169.13935 C10.1087367,169.13935 7.65137255,167.51785 6.7167619,164.91535 C5.52693838,161.60335 7.25576751,157.95685 10.5765434,156.77085 L27.3875014,150.76685 C30.7082773,149.58185 34.365493,151.30385 35.5548151,154.61585 C36.7446387,157.92785 35.0163109,161.57435 31.6950336,162.76035 L14.8840756,168.76435 C14.1725882,169.01885 13.445056,169.13935 12.7305602,169.13935" id="Fill-26" fill="#FFFFFF"></path>
                        <path d="M10.5276067,153.83515 C14.0519513,152.95665 18.0140185,150.83315 21.1357384,153.03015 C24.2574583,155.22615 24.551279,160.27815 23.3027916,163.57315 C22.0548056,166.86765 16.2054667,183.56265 12.9167804,185.78665 C8.86646667,188.52565 5.68157031,187.66065 5.68157031,187.66065 L10.5276067,153.83515 Z" id="Fill-28" fill="#99A7AD"></path>
                        <g id="Group-32" transform="translate(0.000000, 153.320000)">
                            <mask id="mask-4" fill="white">
                                <use xlink:href="#path-3"></use>
                            </mask>
                            <g id="Clip-31"></g>
                            <path d="M6.61507787,34.5 C6.10966611,34.5 5.59623193,34.442 5.08279776,34.321 C1.53187899,33.48 -0.662751261,29.928 0.180103081,26.387 L5.14447003,5.536 C5.98782577,1.9945 9.54927395,-0.1945 13.1001927,0.6465 C16.6511115,1.4875 18.8457417,5.039 18.0028874,8.58 L13.0385204,29.431 C12.3175064,32.4605 9.60643361,34.5 6.61507787,34.5" id="Fill-30" fill="#FFFFFF" mask="url(#mask-4)"></path>
                        </g>
                        <path d="M54.2718975,41.7956 C53.8918359,51.6946 55.5068471,62.0146 64.6112784,58.7581 C73.7152084,55.5016 90.9588751,43.4856 101.509346,45.8421 C101.509346,45.8421 101.834253,43.7226 101.509346,41.5266 C101.184438,39.3296 83.0397546,41.5266 83.0397546,41.5266 L56.3968331,40.3631 L54.2718975,41.7956 Z" id="Fill-33" fill="#BC4542"></path>
                        <path d="M87.5552678,19.5319 C50.5875059,15.7249 51.8430129,49.0199 59.3645227,52.2414 C66.8860325,55.4624 84.4064723,43.3239 97.9447888,44.6659 C102.356612,45.1029 104.203772,35.3404 99.7799148,31.3399 C95.0146039,27.0304 87.5552678,19.5319 87.5552678,19.5319" id="Fill-35" fill="#E3584E"></path>
                        <path d="M86.1641821,19.53385 C80.6171877,19.47935 74.2293445,20.46735 71.5864622,22.71885 C68.9430784,24.97035 66.6852717,29.54535 87.7205294,34.31435 C108.755787,39.08285 98.2163473,30.96785 98.2163473,30.96785 L86.1641821,19.53385 Z" id="Fill-37" fill="#BC4542"></path>
                        <path d="M87.8441748,20.81415 C81.0697518,19.77315 65.5288415,24.15365 77.4230655,28.79015 C89.3172896,33.42715 99.1136538,35.20165 100.660976,34.31415 C102.208799,33.42715 87.8441748,20.81415 87.8441748,20.81415" id="Fill-39" fill="#BC4542"></path>
                        <path d="M116.752575,16.55925 C116.752575,7.80475 109.635695,0.70775 100.856673,0.70775 C92.0776501,0.70775 84.9607706,7.80475 84.9607706,16.55925 C84.9607706,25.31375 92.0776501,32.41075 100.856673,32.41075 C109.635695,32.41075 116.752575,25.31375 116.752575,16.55925" id="Fill-41" fill="#EBAF7C"></path>
                        <path d="M90.7492395,54.403 C90.7492395,54.403 82.5052115,82.163 68.9528557,94.2805 C68.9528557,94.2805 89.2686036,77.498 93.888007,68.65 C98.506909,59.802 90.7492395,54.403 90.7492395,54.403" id="Fill-43" fill="#BC4542"></path>
                        <path d="M139.025239,99.74385 C121.070085,99.74385 107.458564,94.25835 98.524107,83.40935 C90.8030398,74.03335 88.4996056,62.71235 87.9270062,54.86535 C87.6712919,51.35685 90.3161798,48.30535 93.8345076,48.05035 C97.3563451,47.79585 100.412883,50.43235 100.669099,53.94135 C101.826832,69.81035 110.05983,88.41085 142.70251,86.91835 C146.227858,86.74935 149.215202,89.47535 149.377155,92.98885 C149.538606,96.50385 146.812992,99.48335 143.288648,99.64435 C141.842107,99.71085 140.420135,99.74385 139.025239,99.74385" id="Fill-45" fill="#E3584E"></path>
                        <path d="M123.274943,63.3708 L112.430151,63.3708 C109.875515,63.3708 107.804731,61.3053 107.804731,58.7578 C107.804731,56.2108 109.875515,54.1458 112.430151,54.1458 L123.274943,54.1458 C125.829579,54.1458 127.900364,56.2108 127.900364,58.7578 C127.900364,61.3053 125.829579,63.3708 123.274943,63.3708" id="Fill-47" fill="#EBAF7C"></path>
                        <path d="M168.233275,87.56365 C168.232774,87.56465 168.232273,87.56565 168.231771,87.56715 C168.232273,87.56565 168.232774,87.56465 168.233275,87.56365 M168.23127,87.56765 C168.230267,87.56965 168.229264,87.57115 168.228763,87.57265 C168.229264,87.57115 168.230267,87.56965 168.23127,87.56765 M168.228261,87.57365 C168.227259,87.57465 168.226256,87.57615 168.225754,87.57765 C168.226256,87.57615 168.227259,87.57465 168.228261,87.57365 M163.663009,98.29815 C163.16211,98.29815 162.645166,98.28715 162.10967,98.26415 C159.192522,98.14015 156.9292,95.68115 157.053547,92.77265 C157.178396,89.86415 159.641777,87.61915 162.560931,87.73065 C166.660382,87.90665 168.281911,87.11165 168.668992,86.87515 C170.195256,84.82965 173.028169,84.13815 175.363191,85.36065 C177.948413,86.71365 178.944194,89.90015 177.587404,92.47815 C176.845833,93.88665 173.709071,98.29815 163.663009,98.29815" id="Fill-49" fill="#EBAF7C"></path>
                        <path d="M130.070275,67.69205 C129.993059,67.69205 129.915843,67.69055 129.838126,67.68705 C127.788902,67.59855 126.063082,66.35855 125.261342,64.62005 C122.756345,64.85455 120.365667,63.27555 119.673233,60.77255 C118.896563,57.96605 120.548678,55.06305 123.363039,54.28855 C127.786897,53.07205 130.613292,54.32305 132.205238,55.58755 C134.663605,57.53905 135.440275,60.51505 135.348017,62.64855 C135.225174,65.47955 132.884636,67.69205 130.070275,67.69205" id="Fill-51" fill="#EBAF7C"></path>
                        <path d="M126.497545,68.51385 C126.424341,68.51385 126.349632,68.50185 126.276427,68.47535 C125.932968,68.35385 125.752464,67.97685 125.874806,67.63385 L133.01475,47.57235 C133.13659,47.22935 133.514646,47.04885 133.858105,47.17135 C134.202066,47.29335 134.382069,47.66985 134.259727,48.01285 L127.120285,68.07485 C127.024016,68.34485 126.769304,68.51385 126.497545,68.51385" id="Fill-53" fill="#7094D7"></path>
                        <path d="M125.27488,70.24235 C125.213208,70.24235 125.150532,70.23335 125.088359,70.21535 C124.738381,70.11285 124.537821,69.74685 124.640608,69.39785 L130.653905,48.97235 C130.756692,48.62285 131.123216,48.42285 131.474196,48.52535 C131.824174,48.62785 132.024734,48.99385 131.921947,49.34335 L125.90865,69.76885 C125.823913,70.05635 125.560678,70.24235 125.27488,70.24235" id="Fill-55" fill="#8D28A2"></path>
                        <path d="M127.453114,69.35025 C127.373893,69.35025 127.293669,69.33625 127.21545,69.30625 C126.875501,69.17525 126.705526,68.79425 126.836893,68.45425 L134.506316,48.58825 C134.637683,48.24825 135.018747,48.07875 135.360703,48.21025 C135.700652,48.34075 135.870627,48.72175 135.739761,49.06175 L128.069837,68.92775 C127.968554,69.18975 127.718355,69.35025 127.453114,69.35025" id="Fill-57" fill="#FFFFFF"></path>
                        <path d="M129.116912,67.2502 C128.773452,67.2502 128.42548,67.2152 128.086032,67.1492 C127.747085,67.0787 127.41215,66.9777 127.095265,66.8457 C126.777878,66.7142 126.469517,66.5517 126.183217,66.3627 C125.892405,66.1697 125.623654,65.9497 125.376965,65.7037 C125.134789,65.4622 124.914172,65.1942 124.720632,64.9042 C124.531102,64.6182 124.368147,64.3112 124.235777,63.9947 C124.103909,63.6742 124.002626,63.3442 123.931929,63.0067 C123.865744,62.6682 123.830646,62.3212 123.830646,61.9782 C123.830646,61.6357 123.865744,61.2887 123.931929,60.9502 C124.002626,60.6122 124.103909,60.2782 124.235777,59.9622 C124.368147,59.6457 124.531102,59.3382 124.720632,59.0522 C124.914172,58.7622 125.134789,58.4947 125.376965,58.2487 C125.623654,58.0072 125.892405,57.7872 126.183217,57.5942 C126.469517,57.4057 126.777878,57.2427 127.095265,57.1112 C127.41215,56.9792 127.747085,56.8782 128.086032,56.8122 C128.764427,56.6717 129.469396,56.6717 130.147791,56.8122 C130.486738,56.8782 130.817662,56.9792 131.13906,57.1112 C131.456447,57.2427 131.764808,57.4057 132.051108,57.5942 C132.34192,57.7872 132.610671,58.0072 132.852847,58.2487 C133.099536,58.4947 133.319651,58.7622 133.513693,59.0522 C133.702721,59.3382 133.866178,59.6457 133.998046,59.9622 C134.130416,60.2782 134.231699,60.6122 134.297884,60.9502 C134.36808,61.2887 134.403178,61.6357 134.403178,61.9782 C134.403178,62.3212 134.36808,62.6682 134.297884,63.0067 C134.231699,63.3442 134.130416,63.6742 133.998046,63.9947 C133.866178,64.3112 133.702721,64.6182 133.513693,64.9042 C133.319651,65.1942 133.099536,65.4622 132.852847,65.7037 C132.610671,65.9497 132.34192,66.1697 132.051108,66.3627 C131.764808,66.5517 131.456447,66.7142 131.13906,66.8457 C130.817662,66.9777 130.486738,67.0787 130.147791,67.1492 C129.808845,67.2152 129.460873,67.2502 129.116912,67.2502" id="Fill-59" fill="#EBAF7C"></path>
                        <path d="M117.852547,12.41425 C121.183852,23.36125 99.1227291,17.81275 97.8010373,32.41075 C96.4793454,47.00825 115.534071,62.38625 99.9339952,60.74175 C86.9251577,59.37075 104.258575,45.03125 90.8115134,34.96725 C81.5511465,28.03625 84.009012,24.60275 84.009012,24.60275 C75.1462557,22.92125 77.3729756,18.91725 82.1543314,11.71175 C90.8962501,-1.46075 112.11502,-6.43975 117.852547,12.41425" id="Fill-61" fill="#F1CD58"></path>
                        <path d="M106.473362,22.56025 C106.473362,20.72025 104.977684,19.22925 103.13253,19.22925 C101.287877,19.22925 99.7921992,20.72025 99.7921992,22.56025 C99.7921992,24.40025 101.287877,25.89175 103.13253,25.89175 C104.977684,25.89175 106.473362,24.40025 106.473362,22.56025" id="Fill-63" fill="#EBAF7C"></path>
                        <path d="M105.224273,22.56025 C105.224273,21.40825 104.287656,20.47475 103.132931,20.47475 C101.977704,20.47475 101.041088,21.40825 101.041088,22.56025 C101.041088,23.71225 101.977704,24.64625 103.132931,24.64625 C104.287656,24.64625 105.224273,23.71225 105.224273,22.56025" id="Fill-65" fill="#EBB17E"></path>
                        <path d="M104.332131,25.1901 C104.332131,24.5296 103.795131,23.9936 103.13278,23.9936 C102.47043,23.9936 101.93343,24.5296 101.93343,25.1901 C101.93343,25.8506 102.47043,26.3861 103.13278,26.3861 C103.795131,26.3861 104.332131,25.8506 104.332131,25.1901" id="Fill-67" fill="#334F5C"></path>
                    </g>
                </g>
            </g>
        </g>
    </g>
</svg>