<?xml version="1.0" encoding="UTF-8"?>
<svg width="190px" height="25px" viewBox="0 0 190 25" version="1.1" xmlns="http://www.w3.org/2000/svg" xmlns:xlink="http://www.w3.org/1999/xlink">
    <!-- Generator: sketchtool 51.1 (57501) - http://www.bohemiancoding.com/sketch -->
    <title>3D166C18-720A-4F9C-BC41-3CC86527B12B</title>
    <desc>Created with sketchtool.</desc>
    <defs>
        <path d="M5,0 C3.61928813,0 2.5,1.11928813 2.5,2.5 C2.5,3.88071187 3.61928813,5 5,5 C6.38071187,5 7.5,3.88071187 7.5,2.5 C7.5,1.11928813 6.38071187,0 5,0 Z M2.5,6.25 C1.11875,6.25 0,7.36875 0,8.75 L0,17.5 L1.25,17.5 L1.25,25 L3.75,25 L3.75,17.5 L6.25,17.5 L6.25,25 L8.75,25 L8.75,17.5 L10,17.5 L10,8.75 C10,7.36875 8.88125,6.25 7.5,6.25 L2.5,6.25 Z" id="path-1"></path>
    </defs>
    <g id="Page-1" stroke="none" stroke-width="1" fill="none" fill-rule="evenodd">
        <g id="Homepage" transform="translate(-200.000000, -750.000000)">
            <g id="Group-5" transform="translate(200.000000, 750.000000)">
                <g id="icon" fill="#40B49F" fill-rule="nonzero">
                    <path d="M5,0 C3.61928813,0 2.5,1.11928813 2.5,2.5 C2.5,3.88071187 3.61928813,5 5,5 C6.38071187,5 7.5,3.88071187 7.5,2.5 C7.5,1.11928813 6.38071187,0 5,0 Z M2.5,6.25 C1.11875,6.25 0,7.36875 0,8.75 L0,17.5 L1.25,17.5 L1.25,25 L3.75,25 L3.75,17.5 L6.25,17.5 L6.25,25 L8.75,25 L8.75,17.5 L10,17.5 L10,8.75 C10,7.36875 8.88125,6.25 7.5,6.25 L2.5,6.25 Z" id="Shape"></path>
                </g>
                <g id="icon-copy" transform="translate(20.000000, 0.000000)" fill="#40B49F" fill-rule="nonzero">
                    <path d="M5,0 C3.61928813,0 2.5,1.11928813 2.5,2.5 C2.5,3.88071187 3.61928813,5 5,5 C6.38071187,5 7.5,3.88071187 7.5,2.5 C7.5,1.11928813 6.38071187,0 5,0 Z M2.5,6.25 C1.11875,6.25 0,7.36875 0,8.75 L0,17.5 L1.25,17.5 L1.25,25 L3.75,25 L3.75,17.5 L6.25,17.5 L6.25,25 L8.75,25 L8.75,17.5 L10,17.5 L10,8.75 C10,7.36875 8.88125,6.25 7.5,6.25 L2.5,6.25 Z" id="Shape"></path>
                </g>
                <g id="icon-copy-2" transform="translate(40.000000, 0.000000)" fill="#40B49F" fill-rule="nonzero">
                    <path d="M5,0 C3.61928813,0 2.5,1.11928813 2.5,2.5 C2.5,3.88071187 3.61928813,5 5,5 C6.38071187,5 7.5,3.88071187 7.5,2.5 C7.5,1.11928813 6.38071187,0 5,0 Z M2.5,6.25 C1.11875,6.25 0,7.36875 0,8.75 L0,17.5 L1.25,17.5 L1.25,25 L3.75,25 L3.75,17.5 L6.25,17.5 L6.25,25 L8.75,25 L8.75,17.5 L10,17.5 L10,8.75 C10,7.36875 8.88125,6.25 7.5,6.25 L2.5,6.25 Z" id="Shape"></path>
                </g>
                <g id="icon-copy-3" transform="translate(60.000000, 0.000000)" fill="#40B49F" fill-rule="nonzero">
                    <path d="M5,0 C3.61928813,0 2.5,1.11928813 2.5,2.5 C2.5,3.88071187 3.61928813,5 5,5 C6.38071187,5 7.5,3.88071187 7.5,2.5 C7.5,1.11928813 6.38071187,0 5,0 Z M2.5,6.25 C1.11875,6.25 0,7.36875 0,8.75 L0,17.5 L1.25,17.5 L1.25,25 L3.75,25 L3.75,17.5 L6.25,17.5 L6.25,25 L8.75,25 L8.75,17.5 L10,17.5 L10,8.75 C10,7.36875 8.88125,6.25 7.5,6.25 L2.5,6.25 Z" id="Shape"></path>
                </g>
                <g id="icon-copy-4" transform="translate(80.000000, 0.000000)" fill="#40B49F" fill-rule="nonzero">
                    <path d="M5,0 C3.61928813,0 2.5,1.11928813 2.5,2.5 C2.5,3.88071187 3.61928813,5 5,5 C6.38071187,5 7.5,3.88071187 7.5,2.5 C7.5,1.11928813 6.38071187,0 5,0 Z M2.5,6.25 C1.11875,6.25 0,7.36875 0,8.75 L0,17.5 L1.25,17.5 L1.25,25 L3.75,25 L3.75,17.5 L6.25,17.5 L6.25,25 L8.75,25 L8.75,17.5 L10,17.5 L10,8.75 C10,7.36875 8.88125,6.25 7.5,6.25 L2.5,6.25 Z" id="Shape"></path>
                </g>
                <g id="icon-copy-5" transform="translate(100.000000, 0.000000)" fill="#40B49F" fill-rule="nonzero">
                    <path d="M5,0 C3.61928813,0 2.5,1.11928813 2.5,2.5 C2.5,3.88071187 3.61928813,5 5,5 C6.38071187,5 7.5,3.88071187 7.5,2.5 C7.5,1.11928813 6.38071187,0 5,0 Z M2.5,6.25 C1.11875,6.25 0,7.36875 0,8.75 L0,17.5 L1.25,17.5 L1.25,25 L3.75,25 L3.75,17.5 L6.25,17.5 L6.25,25 L8.75,25 L8.75,17.5 L10,17.5 L10,8.75 C10,7.36875 8.88125,6.25 7.5,6.25 L2.5,6.25 Z" id="Shape"></path>
                </g>
                <g id="icon-copy-6" transform="translate(120.000000, 0.000000)" fill="#40B49F" fill-rule="nonzero">
                    <path d="M5,0 C3.61928813,0 2.5,1.11928813 2.5,2.5 C2.5,3.88071187 3.61928813,5 5,5 C6.38071187,5 7.5,3.88071187 7.5,2.5 C7.5,1.11928813 6.38071187,0 5,0 Z M2.5,6.25 C1.11875,6.25 0,7.36875 0,8.75 L0,17.5 L1.25,17.5 L1.25,25 L3.75,25 L3.75,17.5 L6.25,17.5 L6.25,25 L8.75,25 L8.75,17.5 L10,17.5 L10,8.75 C10,7.36875 8.88125,6.25 7.5,6.25 L2.5,6.25 Z" id="Shape"></path>
                </g>
                <g id="icon-copy-7" transform="translate(140.000000, 0.000000)" fill="#40B49F" fill-rule="nonzero">
                    <path d="M5,0 C3.61928813,0 2.5,1.11928813 2.5,2.5 C2.5,3.88071187 3.61928813,5 5,5 C6.38071187,5 7.5,3.88071187 7.5,2.5 C7.5,1.11928813 6.38071187,0 5,0 Z M2.5,6.25 C1.11875,6.25 0,7.36875 0,8.75 L0,17.5 L1.25,17.5 L1.25,25 L3.75,25 L3.75,17.5 L6.25,17.5 L6.25,25 L8.75,25 L8.75,17.5 L10,17.5 L10,8.75 C10,7.36875 8.88125,6.25 7.5,6.25 L2.5,6.25 Z" id="Shape"></path>
                </g>
                <g id="icon-copy-8" transform="translate(160.000000, 0.000000)" fill="#40B49F" fill-rule="nonzero">
                    <path d="M5,0 C3.61928813,0 2.5,1.11928813 2.5,2.5 C2.5,3.88071187 3.61928813,5 5,5 C6.38071187,5 7.5,3.88071187 7.5,2.5 C7.5,1.11928813 6.38071187,0 5,0 Z M2.5,6.25 C1.11875,6.25 0,7.36875 0,8.75 L0,17.5 L1.25,17.5 L1.25,25 L3.75,25 L3.75,17.5 L6.25,17.5 L6.25,25 L8.75,25 L8.75,17.5 L10,17.5 L10,8.75 C10,7.36875 8.88125,6.25 7.5,6.25 L2.5,6.25 Z" id="Shape"></path>
                </g>
                <g id="icon-copy-9" transform="translate(180.000000, 0.000000)">
                    <g id="Rectangle-4">
                        <mask id="mask-2" fill="white">
                            <use xlink:href="#path-1"></use>
                        </mask>
                        <use id="Mask" fill-opacity="0.15" fill="#334F5C" fill-rule="nonzero" xlink:href="#path-1"></use>
                        <rect fill="#40B49F" fill-rule="nonzero" mask="url(#mask-2)" x="0" y="0" width="6" height="25"></rect>
                    </g>
                </g>
            </g>
        </g>
    </g>
</svg>