<?xml version="1.0" encoding="UTF-8"?>
<svg width="251px" height="280px" viewBox="0 0 251 280" version="1.1" xmlns="http://www.w3.org/2000/svg" xmlns:xlink="http://www.w3.org/1999/xlink">
    <!-- Generator: sketchtool 51.1 (57501) - http://www.bohemiancoding.com/sketch -->
    <title>F05FC998-9029-4BC5-AE6F-9D629F276EA4</title>
    <desc>Created with sketchtool.</desc>
    <defs>
        <polygon id="path-1" points="0.000201260404 0.262207903 20.0669657 0.262207903 20.0669657 28.56102 0.000201260404 28.56102"></polygon>
        <polygon id="path-3" points="0.272910059 0.276429872 19.6300343 0.276429872 19.6300343 19.6773698 0.272910059 19.6773698"></polygon>
    </defs>
    <g id="Page-1" stroke="none" stroke-width="1" fill="none" fill-rule="evenodd">
        <g id="Homepage" transform="translate(-675.000000, -2363.000000)">
            <g id="Group-22" transform="translate(675.000000, 2363.000000)">
                <path d="M1.27649867,120.105747 C8.98333776,105.838765 62.6155259,119.944147 82.2026738,102.98749 C101.789822,86.0308322 56.3056967,61.8999837 82.2026738,50.0476944 C108.099651,38.1954051 114.689601,59.5878242 161.160974,59.5878242 C207.632347,59.5878242 216.900138,40.0933257 238.212961,50.0476944 C259.525784,60.0020631 235.641152,64.1158168 238.212961,102.98749 C240.78477,141.859163 257.922234,166.309566 246.853483,180.645089 C235.784732,194.980612 216.978665,166.028774 194.120901,180.645089 C171.263137,195.261404 208.865741,231.045486 178.840415,234.283151 C148.815089,237.520816 126.502056,191.958732 105.069855,191.958732 C83.6376548,191.958732 109.445608,237.720076 82.2026738,234.283151 C54.9597394,230.846226 20.2173455,193.413901 15.3917783,180.645089 C10.5662111,167.876277 57.2053387,175.033512 53.0082488,157.032518 C48.8111589,139.031524 -6.43034042,134.372729 1.27649867,120.105747 Z" id="Path-3" fill="#F2F3F5" fill-rule="nonzero"></path>
                <g id="Group-16" transform="translate(93.000000, 0.000000)">
                    <g id="Group-79">
                        <g id="Group-3" transform="translate(0.000000, 251.162550)">
                            <mask id="mask-2" fill="white">
                                <use xlink:href="#path-1"></use>
                            </mask>
                            <g id="Clip-2"></g>
                            <path d="M13.5488675,24.4580765 L19.2528556,12.3864554 C21.3504414,7.94725683 19.243187,2.6430674 14.6704296,0.849333333 C9.91345917,-1.0163133 4.61962485,1.73370492 3.40900947,6.69975228 L0.235151479,19.7240874 C-1.79424497,28.0511548 9.88852426,32.2052532 13.5488675,24.4580765" id="Fill-1" fill="#334F5C" mask="url(#mask-2)"></path>
                        </g>
                        <path d="M13.7068734,272.827971 L19.4108615,260.75635 C21.5084473,256.317151 19.4017018,251.012962 14.8284355,249.219228 C10.0714651,247.353581 4.77763077,250.103599 3.56752426,255.070157 L0.393157396,268.093982 C-1.63623905,276.421049 10.0465302,280.575148 13.7068734,272.827971" id="Fill-4" fill="#99A7AD"></path>
                        <path d="M33.1012982,243.538288 L35.862458,243.538288 L35.862458,245.914973 C42.938884,242.941566 46.4786237,243.543898 48.6937598,245.883862 C50.2850142,247.565392 52.0981385,251.185501 53.185097,254.361894 L54.1331325,254.361894 L54.1331325,258.333916 L54.1326237,258.333916 C54.1672272,259.586011 53.3235112,261.438397 50.9969314,262.051439 C48.5400793,262.699162 45.2003278,262.027468 43.6319728,261.027832 C40.5588722,259.067832 35.5891917,254.369035 33.5409669,250.494936 C33.2829669,250.006849 33.1486237,249.553953 33.114529,249.132168 L33.1012982,249.132168 L33.1012982,243.538288 Z" id="Fill-6" fill="#334F5C"></path>
                        <path d="M33.5411195,246.326965 C35.4346462,251.075745 40.6379006,255.207403 43.6321254,256.859352 C45.2605278,257.758004 48.540232,258.531191 50.997084,257.883468 C53.4478296,257.237275 54.2549065,255.215563 54.1210722,253.969078 C53.7638414,250.636619 49.5172734,240.795308 47.2156284,238.363541 C44.9898059,236.011337 39.3509538,235.073923 36.4747882,236.429042 C32.6358296,238.237056 32.7945988,244.455199 33.5411195,246.326965" id="Fill-8" fill="#99A7AD"></path>
                        <path d="M47.1505432,244.867089 C40.8028272,250.900095 31.1336793,243.279913 35.2967917,238.604066 C40.8394663,232.379293 51.9126024,240.340678 47.1505432,244.867089" id="Fill-10" fill="#334F5C"></path>
                        <path d="M19.1420225,259.166317 C15.048626,268.028393 2.16134793,262.225406 4.56171479,255.587009 C7.75643669,246.750434 22.2130876,252.517719 19.1420225,259.166317" id="Fill-12" fill="#334F5C"></path>
                        <path d="M11.9059621,261.852124 C11.734471,261.852124 11.5619621,261.843964 11.3879266,261.828663 C8.26648284,261.545603 5.96483787,258.779774 6.24726391,255.650812 L15.9952876,147.635585 C16.2777136,144.507133 19.0353112,142.201851 22.1587905,142.483381 C25.2802343,142.766441 27.5823882,145.53176 27.2999621,148.660721 L17.5519385,256.676459 C17.2852876,259.630485 14.8096071,261.852124 11.9059621,261.852124" id="Fill-14" fill="#E79D70"></path>
                        <path d="M40.8601775,245.440656 C37.7926746,245.440656 35.2676331,242.988488 35.1892663,239.896758 C34.8427219,226.225209 34.9699408,215.483716 35.0930888,205.096175 C35.3302249,185.110601 35.5347929,167.851585 32.3899408,135.765319 C32.0841065,132.638397 34.3643787,129.855738 37.483787,129.548707 C40.6057396,129.236066 43.3801302,131.527067 43.6869822,134.652969 C46.8923905,167.361457 46.6745917,185.756284 46.4430533,205.23133 C46.3209231,215.514317 46.1947219,226.148197 46.5361775,239.607577 C46.616071,242.74827 44.1403905,245.359053 41.0072426,245.438616 C40.9578817,245.440146 40.9090296,245.440656 40.8601775,245.440656" id="Fill-16" fill="#E79D70"></path>
                        <path d="M3.73163669,183.959541 C3.94841775,173.717865 3.64818107,165.215352 3.73468994,158.797282 C3.94027574,143.538557 3.66192071,137.251563 4.62573136,127.108321 C6.57879645,106.550506 47.7112225,93.8209617 48.8388911,114.926026 C49.8011751,132.935279 49.1691515,169.65863 48.7523822,177.677647 C48.2826899,186.713129 3.32504497,203.163257 3.73163669,183.959541" id="Fill-18" fill="#334F5C"></path>
                        <path d="M67.4842,115.887053 C66.9941527,115.887053 66.4969811,115.823811 66.0008272,115.692226 C62.9150047,114.873647 61.0754189,111.701843 61.8926734,108.609093 C64.7413598,97.8283279 66.3107325,91.8896758 65.7896438,88.509275 C65.3820343,85.8638106 63.384697,83.6340109 57.6695136,77.5755046 C53.2453479,72.884867 47.1851467,66.4611876 39.2075018,56.4709508 C37.2127089,53.9728816 37.6157385,50.3272714 40.1082118,48.328 C42.601703,46.3282186 46.238129,46.732663 48.2329219,49.2307322 C55.9133834,58.8486557 61.783774,65.071388 66.0700343,69.6151403 C72.4101172,76.3361603 76.2363538,80.3923352 77.214413,86.7410419 C78.1044367,92.5144481 76.4210757,98.8845756 73.0686024,111.575359 C72.382129,114.170842 70.0428272,115.887053 67.4842,115.887053" id="Fill-20" fill="#E3584E"></path>
                        <path d="M1.22450769,131.735461 C1.20669704,120.697647 4.50828284,110.14639 4.6014071,103.231053 C4.82327692,86.7895956 2.11809349,81.4073734 3.15670888,70.4776831 C5.26141893,48.3265719 49.5809337,34.6106521 50.7966379,57.3508342 C51.8337266,76.7565173 51.6408627,116.365552 50.7030047,124.967009 C50.3717266,128.009268 45.8340817,131.555934 39.9377385,134.325843 C39.6537858,134.459468 38.0111349,125.917173 37.9521053,126.231854 C37.2188154,130.127883 36.6860225,135.473894 36.0677385,135.727883 C20.9576911,141.929195 1.24435385,144.003949 1.22450769,131.735461" id="Fill-22" fill="#FFFFFF"></path>
                        <path d="M66.3392296,119.732131 C66.0395018,119.732131 65.7362118,119.70051 65.432413,119.634718 C63.1205905,119.1349 61.6504485,116.852058 62.1496556,114.535556 L63.7571941,107.063789 C64.2558923,104.746776 66.5356556,103.272823 68.8454426,103.773661 C71.1572651,104.273479 72.6263893,106.556831 72.1282,108.873333 L70.5201527,116.34459 C70.0870994,118.356102 68.3121408,119.732131 66.3392296,119.732131" id="Fill-24" fill="#FFFFFF"></path>
                        <path d="M54.5451692,131.800488 C54.5451692,133.695716 48.6472994,136.03976 48.6472994,136.03976 L40.6991692,74.3790674 L44.1244118,60.7544408 L40.5205538,45.8690492 C40.5205538,45.8690492 48.8650982,46.5703242 50.1902107,52.3503607 C54.7217491,72.1099964 52.3671811,84.6778652 52.2832166,104.455862 C52.232329,116.486681 54.5451692,131.800488 54.5451692,131.800488" id="Fill-26" fill="#E3584E"></path>
                        <path d="M20.0404935,48.9889836 L19.7545053,54.067235 L21.541168,55.8191475 C21.541168,55.8191475 29.3676769,49.7116794 30.4948367,49.811643 C31.6219964,49.9116066 30.3162213,44.6976903 30.3162213,44.6976903 L20.0404935,48.9889836 Z" id="Fill-28" fill="#DDD8F0"></path>
                        <path d="M22.966071,50.7486485 C17.0310533,52.724969 33.032142,66.6010346 33.4560355,66.5117814 C33.4560355,66.5117814 43.507858,43.9093042 22.966071,50.7486485" id="Fill-30" fill="#EAB07E"></path>
                        <path d="M36.2628923,46.5663971 C39.2270935,52.7350674 37.8714485,72.2600947 38.3711645,78.482827 C38.8708805,84.7050492 44.6277917,137.37667 44.6277917,137.37667 L48.6474012,136.039913 L45.1417562,102.823956 L47.3716497,72.1101494 L42.7337562,73.6549945 L46.2923243,67.8616976 C46.2923243,67.8616976 45.7931172,48.8012969 40.797484,45.8686922 L36.2628923,46.5663971 Z" id="Fill-32" fill="#BC4542"></path>
                        <polygon id="Fill-34" fill="#DDD8F0" points="33.4561373 66.5119344 29.9596521 63.5793297 25.1426343 66.7261421"></polygon>
                        <polygon id="Fill-36" fill="#DDD8F0" points="34.5265574 61.8629654 33.4558828 66.5117814 39.3079538 63.2216539"></polygon>
                        <path d="M34.5265574,61.8629654 L42.0451964,66.2134208 C42.0451964,66.2134208 44.2313266,50.5624918 37.5238355,44.6977923 L32.6498237,45.2700328 C32.6498237,45.2700328 38.2372793,50.5624918 34.5265574,61.8629654" id="Fill-38" fill="#FFFFFF"></path>
                        <path d="M28.7689337,60.0268488 C28.436129,60.0268488 28.0992533,59.9972678 27.760342,59.9365756 C24.6750284,59.3816758 22.6227325,56.4251002 23.1763893,53.3333698 L26.2835846,35.9733698 C26.8372414,32.8811293 29.7871941,30.8226958 32.8719988,31.3791257 C35.9573124,31.9335155 38.0096083,34.8900911 37.4559515,37.9823315 L34.3487562,55.3418215 C33.8556556,58.0943898 31.4644485,60.0268488 28.7689337,60.0268488" id="Fill-40" fill="#E79D70"></path>
                        <path d="M43.202787,44.659592 C50.852716,38.4373698 51.4577692,26.9966412 44.5070355,19.9986812 C38.5562426,14.0064772 28.8891302,13.4939089 22.3398994,18.8215592 C14.691497,25.0442914 14.0864438,36.48349 21.0356509,43.4809399 C26.9864438,49.4731439 36.6530473,49.9867322 43.202787,44.659592" id="Fill-42" fill="#EAB07E"></path>
                        <path d="M18.255968,50.4871621 L18.2737787,50.4922623 C18.2763231,50.4861421 18.2681811,50.4856321 18.255968,50.4871621" id="Fill-44" fill="#E3584E"></path>
                        <path d="M3.15665799,70.4774791 C2.1180426,81.4076794 4.82322604,86.7893916 4.60135621,103.231359 C4.50823195,110.146186 1.20664615,120.697953 1.2244568,131.735257 C1.24074083,142.044765 14.6206107,146.423271 28.0330485,142.538973 L28.6228355,138.326732 C28.6228355,138.326732 30.6730959,101.700284 28.7622675,95.2633443 C26.8514391,88.8264044 25.3538178,83.9858215 25.3538178,83.9858215 L27.9216047,79.5287723 L23.4755574,80.8160583 C15.5131787,70.0052022 14.312232,57.3644007 14.1315811,53.5887359 C8.21335621,57.9580619 3.78715503,63.8375519 3.15665799,70.4774791" id="Fill-46" fill="#E3584E"></path>
                        <path d="M19.5343148,50.2129253 C17.629084,51.2049107 15.794587,52.3402113 14.0842556,53.6030164 C14.2649065,57.3781712 15.4658533,70.0194827 23.4277231,80.8298288 L27.8742793,79.5425428 L25.3064923,84.000102 C25.3064923,84.000102 26.8046225,88.8401749 28.714942,95.2771148 C30.6257704,101.714055 28.0330485,142.538973 28.0330485,142.538973 C29.0935456,142.231432 30.6619006,141.749464 31.708658,141.394492 C32.0714864,131.593472 33.3497822,89.9433443 32.1422201,82.0594827 C30.7743621,73.1300838 22.0659716,61.6082623 19.5343148,50.2129253 Z" id="Fill-48" fill="#BC4542"></path>
                        <path d="M4.75086391,70.1911038 C4.75086391,70.1911038 10.0141657,97.5546011 19.808497,113.960357 C20.0115385,114.301049 20.2115266,114.635621 20.4074438,114.963563 C23.5380473,120.20247 31.5533491,118.101705 31.7284024,111.997807 L31.7976095,109.57318 L4.75086391,70.1911038 Z" id="Fill-50" fill="#BC4542"></path>
                        <path d="M20.0404935,48.9889836 C19.968742,52.9941566 29.9594994,63.5790747 29.9594994,63.5790747 L25.3536651,71.2145574 C25.3536651,71.2145574 16.4412154,57.9943752 17.032529,50.4920073 C17.3185172,50.3492022 17.6050142,50.2063971 17.8904935,50.063082 L20.0404935,48.9889836 Z" id="Fill-52" fill="#FFFFFF"></path>
                        <polygon id="Fill-54" fill="#99A7AD" points="54.7215964 97.1996794 49.3534663 123.377384 80.8111467 100.322521 85.6073006 74.1932678"></polygon>
                        <polygon id="Fill-56" fill="#FFFFFF" points="58.8224225 96.9491585 54.7213929 116.946463 79.755026 98.3302878 83.453026 78.1830383"></polygon>
                        <polygon id="Fill-58" fill="#334F5C" points="81.7640675 83.9590965 80.0120083 92.6671475 82.5787775 90.77549 84.2672272 82.0730492"></polygon>
                        <path d="M61.4178923,114.309464 L61.4178923,114.314055 L61.4178923,114.309464 Z M64.8008982,119.861523 C62.0081882,119.861523 59.7309692,117.561341 58.8831822,116.70451 C57.2171231,115.02247 57.2278095,112.305603 58.9065905,110.635803 C60.4785077,109.072087 62.9572414,108.982324 64.6334781,110.360393 C65.0365077,110.25737 65.4614189,110.211468 65.8990521,110.232889 C68.2607444,110.346113 70.0840462,112.356605 69.9715846,114.724109 C69.8927089,116.372488 68.9726615,118.616058 66.6374308,119.51573 C66.0079515,119.757989 65.3927207,119.861523 64.8008982,119.861523 Z" id="Fill-60" fill="#EEB17E"></path>
                        <path d="M68.5566556,104.717195 C68.4299456,104.717195 68.3022178,104.679964 68.1902651,104.601931 L55.9879337,96.0851366 C55.6968568,95.8816393 55.6251053,95.480765 55.8276379,95.1890346 C56.0306793,94.8967942 56.4311645,94.8253916 56.7217325,95.0283789 L68.9245728,103.545683 C69.2156497,103.74867 69.2874012,104.149545 69.0843598,104.441275 C68.9596852,104.621311 68.759697,104.717195 68.5566556,104.717195" id="Fill-62" fill="#334F5C"></path>
                        <path d="M58.4104367,109.149457 C57.4583302,109.149457 56.6736438,109.127016 56.1927562,109.108656 C53.8295373,109.018893 51.9868982,107.026251 52.0764604,104.657727 C52.1655136,102.290222 54.150129,100.454157 56.5148746,100.532189 C59.5757621,100.645413 63.1897976,100.436816 64.0966142,100.092554 C66.2888509,99.2061421 68.782342,100.26902 69.6672769,102.466689 C70.5522118,104.664357 69.4896793,107.165996 67.2974426,108.052918 C65.0166615,108.975541 61.0642237,109.149457 58.4104367,109.149457" id="Fill-64" fill="#EEB17E"></path>
                        <path d="M55.7780734,110.613566 L55.7251503,110.613566 C41.7142746,110.486062 32.6364402,110.041836 24.7315645,104.959505 C17.0943574,100.048539 11.7267361,91.7153515 4.92561183,74.2120364 C3.76741065,71.23098 5.24009704,67.87302 8.21447574,66.7117086 C11.1883456,65.5503971 14.5403101,67.0263898 15.6980024,70.0079563 C26.871387,98.7643133 31.8598959,98.8097049 55.8294698,99.0274827 C59.0216473,99.0565537 61.5858722,101.673457 61.5568663,104.872801 C61.5283692,108.054295 58.9463337,110.613566 55.7780734,110.613566" id="Fill-66" fill="#E3584E"></path>
                        <path d="M26.3309101,32.3927359 C28.7129574,30.3179818 32.7457976,28.7731366 36.384768,29.7896029 C42.572697,31.5190747 43.9822828,39.6390747 47.4034544,39.0423534 C49.0349101,38.7577632 50.4368627,36.7890929 50.701987,35.4875264 C54.4167799,17.2528452 38.9067562,9.57401093 29.1058095,10.2513151 C22.9555373,10.6766703 17.3197385,15.1087286 14.9061408,20.7551403 C10.3751112,31.3543388 18.5970166,43.5937559 21.314413,43.1704408 C23.1463657,42.8853406 21.6207562,36.4958324 26.3309101,32.3927359" id="Fill-68" fill="#E79D70"></path>
                        <path d="M27.0678639,35.3340619 C27.0678639,33.349071 25.4623609,31.7404736 23.4818166,31.7404736 C21.5017811,31.7404736 19.8962781,33.349071 19.8962781,35.3340619 C19.8962781,37.3190528 21.5017811,38.9276503 23.4818166,38.9276503 C25.4623609,38.9276503 27.0678639,37.3190528 27.0678639,35.3340619" id="Fill-70" fill="#EAB07E"></path>
                        <path d="M25.3538686,38.9278543 C25.3538686,38.2531002 24.8083538,37.7063607 24.1351112,37.7063607 C23.4618686,37.7063607 22.9163538,38.2531002 22.9163538,38.9278543 C22.9163538,39.6026084 23.4618686,40.1493479 24.1351112,40.1493479 C24.8083538,40.1493479 25.3538686,39.6026084 25.3538686,38.9278543" id="Fill-72" fill="#334F5C"></path>
                        <g id="Group-76" transform="translate(10.686391, 0.233588)">
                            <mask id="mask-4" fill="white">
                                <use xlink:href="#path-3"></use>
                            </mask>
                            <g id="Clip-75"></g>
                            <path d="M19.6300343,9.97682332 C19.6300343,4.61959199 15.2964485,0.276276867 9.95121775,0.276276867 C4.60598698,0.276276867 0.272910059,4.61959199 0.272910059,9.97682332 C0.272910059,15.3340546 4.60598698,19.6773698 9.95121775,19.6773698 C15.2964485,19.6773698 19.6300343,15.3340546 19.6300343,9.97682332" id="Fill-74" fill="#E79D70" mask="url(#mask-4)"></path>
                        </g>
                        <path d="M25.4711645,35.3340619 C25.4711645,34.1691803 24.5287266,33.2256466 23.3669633,33.2256466 C22.2052,33.2256466 21.263271,34.1691803 21.263271,35.3340619 C21.263271,36.4984335 22.2052,37.4424772 23.3669633,37.4424772 C24.5287266,37.4424772 25.4711645,36.4984335 25.4711645,35.3340619" id="Fill-77" fill="#CB8A62"></path>
                    </g>
                </g>
            </g>
        </g>
    </g>
</svg>