<?xml version="1.0" encoding="UTF-8"?>
<svg width="250px" height="280px" viewBox="0 0 250 280" version="1.1" xmlns="http://www.w3.org/2000/svg" xmlns:xlink="http://www.w3.org/1999/xlink">
    <!-- Generator: sketchtool 51.1 (57501) - http://www.bohemiancoding.com/sketch -->
    <title>9CD4FC41-3C8C-470F-8BFC-55181834B40E</title>
    <desc>Created with sketchtool.</desc>
    <defs>
        <polygon id="path-1" points="0 0.447889963 31.4471718 0.447889963 31.4471718 33.5453416 0 33.5453416"></polygon>
        <polygon id="path-3" points="0.219796268 0.160039684 35.9001307 0.160039684 35.9001307 25.0822669 0.219796268 25.0822669"></polygon>
    </defs>
    <g id="Page-1" stroke="none" stroke-width="1" fill="none" fill-rule="evenodd">
        <g id="Homepage" transform="translate(-276.000000, -2363.000000)">
            <g id="Group-21" transform="translate(276.000000, 2363.000000)">
                <path d="M0.773553595,120.187199 C8.44956533,105.977285 61.8672247,120.026245 81.376024,103.137415 C100.884823,86.2485837 55.5826348,62.2142586 81.376024,50.4093785 C107.169413,38.6044984 113.733003,59.9113478 160.018491,59.9113478 C206.303978,59.9113478 215.534698,40.4948273 236.76227,50.4093785 C257.989842,60.3239297 234.200748,64.4212284 236.76227,103.137415 C239.323792,141.853601 256.392706,166.206202 245.36823,180.484383 C234.343754,194.762564 215.612912,165.926533 192.846579,180.484383 C170.080245,195.042233 207.532438,230.683179 177.627214,233.907893 C147.72199,237.132608 125.498208,191.752772 104.151737,191.752772 C82.8052651,191.752772 108.509987,237.331071 81.376024,233.907893 C54.2420614,230.484716 19.638637,193.20212 14.8323721,180.484383 C10.0261072,167.766647 56.4786782,174.895252 52.2983767,156.966263 C48.1180751,139.037273 -6.90245814,134.397113 0.773553595,120.187199 Z" id="Path-3" fill="#F2F3F5" fill-rule="nonzero"></path>
                <g id="Group-19" transform="translate(35.000000, 0.000000)">
                    <g id="Group-77">
                        <path d="M32.4863693,114.378362 C31.3204602,114.914303 29.9408011,114.402932 29.4059148,113.235327 L20.7613125,94.3903547 L24.9841534,92.4498062 L33.6282443,111.294779 C34.163642,112.46136 33.6522784,113.84242 32.4863693,114.378362" id="Fill-1" fill="#FFFFFF"></path>
                        <g id="Group-5" transform="translate(0.000000, 61.765338)">
                            <mask id="mask-2" fill="white">
                                <use xlink:href="#path-1"></use>
                            </mask>
                            <g id="Clip-4"></g>
                            <path d="M27.0406534,10.985777 C29.9104261,17.2425229 27.1700284,24.6433272 20.9196307,27.5155027 C14.6697443,30.388702 7.27644886,27.645521 4.40616477,21.3887751 C1.53690341,15.1325411 4.27678977,7.73173675 10.5271875,4.85904936 C16.7775852,1.98585009 24.1708807,4.72903108 27.0406534,10.985777 M9.16389205,1.88705667 C1.2740625,5.51374771 -2.18480114,14.8556124 1.43769886,22.7534552 C4.68230114,29.8271664 12.5076989,33.341755 19.7736648,31.3935283 C19.366108,31.7385375 19.2193466,32.3241316 19.4530398,32.8334552 C19.7342898,33.4461792 20.4583807,33.7149177 21.070483,33.433894 L25.5040057,31.3960878 C26.1155966,31.1145521 26.3845739,30.3897258 26.1033239,29.7770018 C25.8568466,29.2390128 25.2687784,28.966691 24.7144602,29.098245 C30.8462216,24.8301645 33.2348011,16.6533455 30.0096307,9.62109689 C26.3866193,1.72325411 17.054233,-1.73912249 9.16389205,1.88705667" id="Fill-3" fill="#334F5C" mask="url(#mask-2)"></path>
                        </g>
                        <polygon id="Fill-6" fill="#334F5C" points="33.0886534 110.117857 32.818142 109.528168 28.6116648 111.50506 28.8821761 112.09475"></polygon>
                        <polygon id="Fill-8" fill="#334F5C" points="32.484375 108.800424 32.2138636 108.210735 28.0073864 110.187627 28.2778977 110.777316"></polygon>
                        <g id="Group-12" transform="translate(61.363636, 254.745229)">
                            <mask id="mask-4" fill="white">
                                <use xlink:href="#path-3"></use>
                            </mask>
                            <g id="Clip-11"></g>
                            <path d="M35.9001307,17.4428227 C34.9392784,22.4556929 33.5294489,24.4300256 30.2470057,24.9859305 C26.9829716,25.5387642 15.755983,24.0333163 2.35058523,11.9237002 C0.497914773,10.2503547 -1.15123295,5.88296892 1.96092614,0.94688117 C5.07308523,-3.98920658 20.471267,15.9128044 20.471267,15.9128044 L35.9001307,17.4428227 Z" id="Fill-10" fill="#FFFFFF" mask="url(#mask-4)"></path>
                        </g>
                        <path d="M63.445858,255.477375 C61.7552898,258.285565 62.3919375,262.992841 66.175517,265.921835 C84.1934148,279.871159 95.3442102,279.019898 96.7504602,274.159569 C98.581142,267.830647 99.1988693,259.605711 94.411483,257.409221 C87.0529602,254.033865 75.3064261,251.628015 66.8070511,253.533755 C65.793017,253.761031 63.9567102,254.628673 63.445858,255.477375" id="Fill-13" fill="#99A7AD"></path>
                        <path d="M143.781903,113.418069 C141.477699,113.418069 139.384176,111.851707 138.809915,109.512402 C138.776676,109.376753 135.435426,95.828234 131.194687,83.2226033 C130.291108,80.5382888 131.733153,77.6287459 134.415767,76.7242486 C137.097358,75.821287 140.002926,77.2642852 140.906506,79.9491115 C145.288381,92.9739744 148.62196,106.49434 148.761562,107.063554 C149.437074,109.814413 147.756733,112.592402 145.008665,113.2686 C144.598551,113.369952 144.186392,113.418069 143.781903,113.418069" id="Fill-15" fill="#F0C9A4"></path>
                        <path d="M95.6582898,260.208044 C97.0722102,262.835027 98.2856761,268.091042 93.8777216,269.946618 C89.4692557,271.802194 82.4973239,270.075101 79.5314148,265.51883 C77.0037443,261.636197 77.3192557,260.131261 79.564142,255.154223 L95.6582898,260.208044 Z" id="Fill-17" fill="#334F5C"></path>
                        <path d="M124.47092,195.160665 C122.604955,195.160665 120.717,194.65083 119.021318,193.58253 C118.91342,193.513938 116.30342,191.865163 110.740295,188.050099 C106.312398,185.013609 101.417114,178.871525 103.245239,166.855583 C104.128875,161.048271 106.329784,155.11913 108.271943,149.887686 C109.277795,147.180336 110.654386,143.471232 110.807284,142.232475 C110.871716,141.547064 110.943307,140.845784 111.014386,140.147064 C111.701148,133.40147 112.155239,128.944505 107.988136,120.936095 C105.373534,115.911452 107.323364,109.71562 112.342909,107.098874 C117.362455,104.480592 123.551489,106.433938 126.16558,111.458069 C133.167682,124.915473 132.189955,134.514303 131.4045,142.227868 C131.338534,142.874377 131.272568,143.524468 131.210693,144.179166 C130.854784,147.956351 129.292568,152.163005 127.484386,157.035108 C126.060239,160.869623 123.215011,168.534048 123.309614,171.798325 C127.807057,174.8686 129.925636,176.209733 129.947625,176.223554 C134.731943,179.247247 136.165807,185.580263 133.148761,190.370976 C131.199955,193.464797 127.872,195.160665 124.47092,195.160665" id="Fill-25" fill="#E3584E"></path>
                        <path d="M145.961182,203.917397 C144.778398,203.917397 143.579761,203.609243 142.487489,202.962223 L122.652205,191.207854 C119.405045,189.284197 118.331693,185.089828 120.253909,181.839371 C122.175102,178.589938 126.365216,177.513448 129.612886,179.438128 L149.44817,191.192497 C152.694818,193.116154 153.769193,197.310523 151.846977,200.56098 C150.571125,202.718055 148.296068,203.917397 145.961182,203.917397" id="Fill-27" fill="#F0C9A4"></path>
                        <path d="M165.341557,217.468322 C163.877011,217.468322 162.394057,217.080314 161.049682,216.264885 L143.516557,205.627444 C139.598489,203.250771 138.347182,198.143715 140.721955,194.221155 C143.096727,190.300132 148.197068,189.047554 152.11667,191.424227 L169.649795,202.061155 C173.567864,204.43834 174.81917,209.544885 172.444398,213.467444 C170.884227,216.043751 168.146898,217.468322 165.341557,217.468322" id="Fill-29" fill="#FFFFFF"></path>
                        <path d="M172.566051,198.525887 C168.832074,197.022998 162.398097,194.339707 158.638551,196.284863 C154.878494,198.230018 153.787244,203.750165 154.656051,207.569324 C155.524347,211.387459 159.40304,230.665996 162.67321,233.614954 C166.70071,237.246764 171.525426,236.778391 171.525426,236.778391 L172.566051,198.525887 Z" id="Fill-31" fill="#99A7AD"></path>
                        <path d="M170.156045,198.783108 C163.817182,202.446143 163.444398,207.560366 163.806443,213.917952 C164.131159,219.622888 167.136955,236.269324 170.760989,236.912761 C171.259568,237.001828 173.228318,237.373967 173.947807,237.264936 C177.039,236.798099 177.150477,217.223181 176.393148,211.483437 C175.880761,207.599269 177.732409,200.079707 174.947011,199.00117 C173.72025,198.526143 171.673773,197.90574 170.156045,198.783108" id="Fill-33" fill="#FFFFFF"></path>
                        <path d="M172.566051,199.270984 C166.227188,202.934018 165.853892,208.048241 166.215938,214.40634 C166.577983,220.763927 169.609858,240.550764 174.975597,236.827327 C181.333892,232.415408 179.560483,217.711057 178.803153,211.971313 C178.045824,206.231569 177.261392,196.557492 172.566051,199.270984" id="Fill-35" fill="#334F5C"></path>
                        <path d="M89.4005795,269.250969 C93.9803523,269.127093 96.1935341,267.894991 96.0692727,263.310567 L95.6729659,248.660987 C95.5487045,244.076563 91.7349545,240.460622 87.1551818,240.585009 C82.5754091,240.708885 78.9631364,244.526508 79.0873977,249.110932 L79.3839886,260.077514 C79.5077386,264.661938 83.8308068,268.508739 89.4005795,269.250969" id="Fill-37" fill="#FFFFFF"></path>
                        <path d="M87.4210398,254.973221 C83.6502443,254.973221 80.5922898,251.915232 80.589733,248.139583 L80.561608,210.685616 C80.5585398,206.908943 83.6154716,203.8443 87.3888239,203.84174 L87.3934261,203.84174 C91.1642216,203.84174 94.2226875,206.899729 94.2252443,210.675378 L94.252858,248.129346 C94.2559261,251.90653 91.1995057,254.970662 87.4261534,254.973221 L87.4210398,254.973221 Z" id="Fill-39" fill="#F0C9A4"></path>
                        <path d="M87.4689545,223.897112 C81.9181023,223.897112 77.3567386,219.458574 77.2283864,213.873931 C76.1616818,167.318684 84.3179318,151.810165 90.2727614,140.485777 C93.0484432,135.208263 94.4413977,132.558757 94.3007727,127.371335 C94.147875,121.707861 98.6100341,116.992395 104.267761,116.83883 C104.362364,116.836271 104.456966,116.835247 104.550034,116.835247 C110.081966,116.835247 114.638727,121.246143 114.78958,126.81543 C115.07492,137.367386 111.686114,143.811481 108.409295,150.043144 C103.499182,159.37989 96.7737273,172.167751 97.7187273,213.404022 C97.8486136,219.068007 93.3670227,223.765046 87.7082727,223.894552 C87.6285,223.8966 87.5482159,223.897112 87.4689545,223.897112" id="Fill-41" fill="#E3584E"></path>
                        <path d="M129.799278,119.366508 C129.960358,119.93521 131.005585,125.941133 131.167687,127.119488 C131.328767,128.297331 109.314051,147.666984 99.1118352,148.439415 C89.6331989,149.157075 87.0283125,146.890457 87.0283125,146.890457 L95.7051307,128.969433 L129.799278,119.366508 Z" id="Fill-43" fill="#BC4542"></path>
                        <path d="M81.5003693,45.5158684 C68.3378693,61.280841 83.678267,87.2020841 84.5030966,112.662633 C85.3279261,138.123693 84.5030966,140.53159 84.5030966,140.53159 C84.5030966,140.53159 84.7966193,144.926106 97.0284375,144.259634 C109.259744,143.592651 135.466108,122.391993 135.180256,115.102267 C134.893892,107.812029 121.722188,33.311042 105.294119,33.311042 C92.5494034,33.311042 81.5003693,45.5158684 81.5003693,45.5158684" id="Fill-45" fill="#334F5C"></path>
                        <path d="M103.74571,30.6207898 C104.824687,33.0291993 106.011562,35.5819598 106.47946,40.1894186 C106.947358,44.7968775 102.273494,47.4704424 96.0737216,46.133404 C89.8739489,44.7968775 84.2985511,43.9706984 79.8374148,47.7729653 L77.8482102,39.1968775 L103.74571,30.6207898 Z" id="Fill-47" fill="#99A7AD"></path>
                        <path d="M96.893233,27.1660402 C106.132551,26.4094771 109.358744,39.0161316 88.3345398,41.7818355 C67.3103352,44.5480512 81.9649943,28.3879049 96.893233,27.1660402" id="Fill-49" fill="#334F5C"></path>
                        <path d="M33.1315568,109.349265 C30.9040568,109.349265 28.8534886,107.883232 28.2086591,105.632483 C27.4288295,102.909265 29.0022955,100.069338 31.7222386,99.2887166 L58.7263295,91.5393199 C61.4447386,90.7586984 64.2838295,92.3332505 65.0636591,95.056468 C65.8434886,97.7796856 64.2705341,100.619612 61.5500795,101.400746 L34.5465,109.149631 C34.0745114,109.28528 33.5994545,109.349265 33.1315568,109.349265" id="Fill-51" fill="#F0C9A4"></path>
                        <path d="M95.3761193,29.068351 C102.256006,28.5047678 104.658392,37.892702 89.002483,39.9525192 C73.3460625,42.0123364 84.2590739,29.9779671 95.3761193,29.068351" id="Fill-53" fill="#2D146B"></path>
                        <path d="M58.1334545,104.715342 C55.3137955,104.715342 52.6501023,103.017938 51.5511818,100.234318 C50.1137386,96.5963656 51.8958409,92.4813382 55.5295909,91.0434589 C64.9601591,87.3113199 67.4944773,86.3085411 76.0388523,56.7309177 C77.1234545,52.9726728 81.0481705,50.8084314 84.8010682,51.8941353 C88.5555,52.9808629 90.7190795,56.9080293 89.6339659,60.6657623 C80.7255,91.5036417 76.4039659,98.0158172 60.7327159,104.216768 C59.87925,104.555122 58.9986818,104.715342 58.1334545,104.715342" id="Fill-55" fill="#334F5C"></path>
                        <path d="M136.0485,88.6705229 C133.034523,88.6710347 130.242477,86.7289506 129.296455,83.6970676 C128.426114,80.9062815 125.145716,75.7255137 114.463841,66.8919488 C114.022023,66.5264644 113.673784,66.2372505 113.439068,66.0350567 C109.856966,62.9458428 110.179125,58.7985667 111.993955,56.2519488 C113.831284,53.6746179 117.676227,52.1768483 121.472591,54.3016746 C121.694523,54.4260622 122.026909,54.6226252 122.481511,54.9005777 C123.352875,55.4344717 124.068273,56.1265375 124.613386,56.9173967 C131.42117,62.6402486 140.123045,70.876958 142.804636,79.4745448 C143.969523,83.2087313 141.890318,87.1804314 138.15992,88.3470128 C137.457818,88.5660987 136.746511,88.6705229 136.0485,88.6705229" id="Fill-57" fill="#334F5C"></path>
                        <path d="M86.7483409,20.8330238 L95.5714091,37.9739378 C95.6169205,38.0681243 95.6522045,38.1643583 95.6910682,38.2600804 C93.9749318,38.9895137 91.7776023,39.5873931 89.0024318,39.9528775 C87.5281705,40.1463693 86.2901591,40.2154735 85.264875,40.1801536 L77.8485682,25.9794954 C79.7063523,23.9698428 83.0358409,21.9074662 86.7483409,20.8330238" id="Fill-59" fill="#F0C9A4"></path>
                        <path d="M65.2276534,19.2103547 C65.2276534,9.4753638 73.1108352,1.58366362 82.8359489,1.58366362 C92.5605511,1.58366362 100.444244,9.4753638 100.444244,19.2103547 C100.444244,28.9453455 92.5605511,36.8370457 82.8359489,36.8370457 C73.1108352,36.8370457 65.2276534,28.9453455 65.2276534,19.2103547" id="Fill-61" fill="#F0C9A4"></path>
                        <path d="M64.6483807,13.1250384 C62.717983,20.9875612 64.2111648,21.2307057 66.7321875,23.5643803 C69.2532102,25.8980548 76.0231534,26.6909616 81.1930398,22.6870128 C81.1930398,22.6870128 79.7734943,32.2904497 89.3830398,36.8369945 C98.9925852,41.3830274 94.4583239,46.1307422 89.5420739,51.4021133 C84.6248011,56.6729726 84.1185511,67.9896819 92.1801989,70.9202121 C100.241335,73.8512541 105.974744,76.6599561 110.366847,84.5977258 C114.758949,92.5360073 135.918665,84.5434662 138.304688,69.8324607 C140.109801,58.6984936 133.510142,53.8166654 124.482528,50.8886947 C115.454403,47.9612358 122.432983,34.253521 116.866278,28.2025521 C111.299574,22.1515832 107.049631,24.4524973 106.329631,16.4231005 C105.609119,8.39370384 93.593608,-1.01828885 82.8355398,0.0894259598 C72.077983,1.19714077 65.2313352,10.7514369 64.6483807,13.1250384" id="Fill-63" fill="#DD902F"></path>
                        <path d="M76.613983,25.8833638 C76.613983,23.8373675 78.2708011,22.1788665 80.3142102,22.1788665 C82.3581307,22.1788665 84.0154602,23.8373675 84.0154602,25.8833638 C84.0154602,27.9293601 82.3581307,29.5878611 80.3142102,29.5878611 C78.2708011,29.5878611 76.613983,27.9293601 76.613983,25.8833638" id="Fill-65" fill="#F0C9A4"></path>
                        <path d="M77.997733,25.8833638 C77.997733,24.6026325 79.0347784,23.5645338 80.3142102,23.5645338 C81.5941534,23.5645338 82.6317102,24.6026325 82.6317102,25.8833638 C82.6317102,27.1640951 81.5941534,28.2027057 80.3142102,28.2027057 C79.0347784,28.2027057 77.997733,27.1640951 77.997733,25.8833638" id="Fill-67" fill="#EBB17E"></path>
                        <path d="M28.3210568,110.491993 C22.1887841,110.491993 16.1102045,107.4683 13.9348636,102.839342 C12.5587841,99.9098355 13.8152045,96.4172578 16.7412273,95.0397806 C19.5915682,93.6996709 22.9711705,94.8555027 24.4183295,97.619159 C25.0641818,98.2236929 27.5519659,99.2198172 29.8546364,98.5743327 C32.970375,97.7015722 36.2011705,99.5213163 37.0725341,102.638684 C37.9444091,105.756051 36.1270227,108.991152 33.0128182,109.863912 C31.4894659,110.290311 29.9032159,110.491993 28.3210568,110.491993" id="Fill-69" fill="#F0C9A4"></path>
                        <path d="M29.0536364,97.5626984 L29.0536364,97.5632102 L29.0536364,97.5626984 Z M30.2732386,102.672314 C29.9659091,102.672314 29.655,102.589389 29.3742614,102.415349 C28.5207955,101.88555 25.7297727,99.9787861 25.6402841,97.6968117 C25.6029545,96.7534113 26.3372727,95.958457 27.2797159,95.9216015 C28.2011932,95.8775795 28.9958523,96.6008702 29.0515909,97.5263547 C29.1794318,97.9430274 30.2195455,98.9166289 31.1747727,99.5093894 C31.9765909,100.00694 32.2235795,101.060907 31.7265341,101.864051 C31.4033523,102.385148 30.8444318,102.672314 30.2732386,102.672314 Z" id="Fill-71" fill="#F0C9A4"></path>
                        <path d="M148.561926,115.534091 L148.56704,115.534091 L148.561926,115.534091 Z M153.081358,117.934311 C151.165278,117.934823 149.334085,116.987327 148.236187,115.369777 C147.341301,114.990472 145.422153,114.576358 143.892665,114.45453 C140.674142,114.198077 138.263062,111.381697 138.512097,108.159393 C138.760619,104.936578 141.555222,102.523561 144.779881,102.764146 C148.963347,103.077419 156.310619,104.418552 158.509994,109.87932 C159.719369,112.881514 158.268631,116.297309 155.268972,117.5074 C154.551528,117.797638 153.810562,117.934311 153.081358,117.934311 Z" id="Fill-73" fill="#F0C9A4"></path>
                        <path d="M145.340949,107.313506 C144.680778,107.313506 144.051801,106.928059 143.773108,106.283086 C143.397256,105.41698 143.795097,104.410618 144.660835,104.034896 L150.475551,101.510801 C151.340778,101.135079 152.346631,101.532812 152.721972,102.398918 C153.097312,103.265024 152.699983,104.271898 151.834244,104.64762 L146.019017,107.171715 C145.798108,107.267949 145.567483,107.313506 145.340949,107.313506" id="Fill-75" fill="#F0C9A4"></path>
                    </g>
                </g>
            </g>
        </g>
    </g>
</svg>