<?xml version="1.0" encoding="UTF-8"?>
<svg width="251px" height="190px" viewBox="0 0 251 190" version="1.1" xmlns="http://www.w3.org/2000/svg" xmlns:xlink="http://www.w3.org/1999/xlink">
    <!-- Generator: sketchtool 51.1 (57501) - http://www.bohemiancoding.com/sketch -->
    <title>4389965E-2B22-4E80-8BE1-F023FCE2AD42</title>
    <desc>Created with sketchtool.</desc>
    <defs>
        <polygon id="path-1" points="0 0.312553769 74.0247054 0.312553769 74.0247054 88.9708478 0 88.9708478"></polygon>
    </defs>
    <g id="Page-1" stroke="none" stroke-width="1" fill="none" fill-rule="evenodd">
        <g id="Homepage" transform="translate(-675.000000, -3171.000000)">
            <g id="Group-25" transform="translate(675.000000, 3171.000000)">
                <path d="M1.27649867,75.1057468 C8.98333776,60.8387649 62.6155259,74.9441472 82.2026738,57.9874897 C101.789822,41.0308322 56.3056967,16.8999837 82.2026738,5.04769442 C108.099651,-6.80459486 114.689601,14.5878242 161.160974,14.5878242 C207.632347,14.5878242 216.900138,-4.90667427 238.212961,5.04769442 C259.525784,15.0020631 235.641152,19.1158168 238.212961,57.9874897 C240.78477,96.8591626 257.922234,121.309566 246.853483,135.645089 C235.784732,149.980612 216.978665,121.028774 194.120901,135.645089 C171.263137,150.261404 208.865741,186.045486 178.840415,189.283151 C148.815089,192.520816 126.502056,146.958732 105.069855,146.958732 C83.6376548,146.958732 109.445608,192.720076 82.2026738,189.283151 C54.9597394,185.846226 20.2173455,148.413901 15.3917783,135.645089 C10.5662111,122.876277 57.2053387,130.033512 53.0082488,112.032518 C48.8111589,94.031524 -6.43034042,89.3727288 1.27649867,75.1057468 Z" id="Path-3" fill="#F2F3F5" fill-rule="nonzero"></path>
                <g id="Group-20" transform="translate(58.000000, 0.000000)">
                    <g id="Group-56">
                        <path d="M98.3631467,65.3408812 C97.0666222,65.3408812 95.7659289,64.8831 94.7248978,63.9515062 C92.4838222,61.9470062 92.2968178,58.5121625 94.3074133,56.2772875 C99.7150578,50.2691312 107.856302,49.4485687 108.767502,49.37435 C111.761956,49.1362562 114.397884,51.3592562 114.641467,54.3511625 C114.885049,57.3311937 112.667796,59.9448812 109.684062,60.2049437 C108.378009,60.3314125 104.5468,61.1745375 102.421858,63.5358812 C101.345689,64.7322875 99.8573956,65.3408812 98.3631467,65.3408812" id="Fill-1" fill="#F0C9A4"></path>
                        <path d="M65.5738827,70.5500875 C58.8738827,70.5500875 54.0915716,69.2491812 50.6296071,66.6283687 C44.7502827,62.1776187 44.325056,55.4718062 43.9832071,50.083525 C43.8420604,47.8516187 43.7080604,45.7426187 43.2554382,43.8634 C42.4079627,40.3371187 44.5871004,36.7924312 48.1241049,35.9469312 C51.662896,35.0984625 55.216576,37.2739625 56.0652427,40.8008375 C56.7828871,43.78265 56.9675093,46.6890562 57.130096,49.25465 C57.328416,52.3908375 57.5166116,55.3524625 58.5957582,56.1688687 C59.8952604,57.1527125 65.0045316,58.9998687 84.342816,54.9154625 C87.8988782,54.1667437 91.3971716,56.4313062 92.1511449,59.9789625 C92.9051182,63.5272125 90.6306916,67.012525 87.0722471,67.7642125 C78.2925671,69.6173062 71.2459538,70.5500875 65.5738827,70.5500875" id="Fill-3" fill="#BC4542"></path>
                        <path d="M85.7017547,66.0955375 C83.4076747,66.0955375 81.385168,64.4407562 81.0010347,62.1108812 C80.5740213,59.5191625 82.3350791,57.0735062 84.9340836,56.6471937 L95.9685369,54.8404125 C98.5681369,54.4141 101.02123,56.1704125 101.447648,58.7609437 C101.875257,61.3526625 100.114199,63.7983187 97.5151947,64.2246312 L86.4807413,66.0320062 C86.2186969,66.0747562 85.9590347,66.0955375 85.7017547,66.0955375" id="Fill-5" fill="#F0C9A4"></path>
                        <path d="M59.0669618,141.915453 C54.2340284,141.916047 50.0895573,138.266859 49.5886951,133.368422 C48.2201084,119.979953 46.2601351,104.856547 44.4216551,94.0348594 C41.2330507,99.1517969 37.7162951,105.239516 34.7593618,110.760797 C32.2782773,115.394422 26.4984107,117.143016 21.8512907,114.669453 C17.2041707,112.195297 15.4490684,106.433547 17.9307484,101.800516 C18.1141796,101.457328 22.4909173,93.3015781 27.5394418,85.1024844 C36.5525796,70.4647656 42.2401351,63.7363906 50.1729351,65.1239844 C58.0890596,66.5050469 60.0508196,75.3673594 61.4831307,81.8392344 C62.6051573,86.9116406 63.7938862,93.8359531 65.0171573,102.419797 C67.0676551,116.815859 68.508304,130.850922 68.5684551,131.441109 C69.1026684,136.666703 65.2863484,141.334172 60.0454596,141.866172 C59.7167129,141.900016 59.3903484,141.915453 59.0669618,141.915453" id="Fill-7" fill="#23383F"></path>
                        <path d="M80.1335484,146.726372 L60.4182773,146.726372 C57.2767218,146.726372 54.572304,144.514059 53.9588818,141.441997 L52.8368551,135.820372 C52.1269529,132.263809 54.4424729,128.806403 58.0104462,128.098059 C61.577824,127.393278 65.045744,129.699997 65.7556462,133.256559 L65.8235396,133.593809 L80.1335484,133.593809 C83.7706062,133.593809 86.7197973,136.533466 86.7197973,140.160091 C86.7197973,143.786716 83.7706062,146.726372 80.1335484,146.726372" id="Fill-9" fill="#99A7AD"></path>
                        <path d="M101.401969,91.95145 C99.7171422,91.95145 98.0835333,91.0590438 97.2158089,89.48145 C95.9496578,87.1788875 96.7953467,84.2885125 99.1049111,83.0262 L114.726929,74.4874812 C117.035898,73.2251687 119.935062,74.0671062 121.201809,76.3702625 C122.46796,78.672825 121.622271,81.5632 119.312707,82.8255125 L103.690689,91.364825 C102.963516,91.7626375 102.177382,91.95145 101.401969,91.95145" id="Fill-11" fill="#F0C9A4"></path>
                        <path d="M62.8996596,174.74015 C61.1832684,174.74015 59.4466284,174.278806 57.8809129,173.3104 C53.4041218,170.541744 52.0254107,164.67965 54.8024862,160.216431 C63.7947796,145.760994 70.0558551,133.997025 73.4112151,125.2499 C75.0859173,120.885837 75.7755707,117.943212 76.0358284,116.048556 C72.445224,117.044275 67.2311351,119.071337 63.4058818,120.558087 C47.8636684,126.599494 30.2489218,133.447806 16.8703618,125.826431 C10.0256418,121.926087 5.75848622,115.043337 4.18681511,105.368775 C3.344104,100.18415 6.87753511,95.3005562 12.0773307,94.4604 C17.2759351,93.61965 22.1761662,97.1423687 23.0188773,102.327587 C23.4345751,104.889025 24.3487529,108.179587 26.3361218,109.312462 C31.8039173,112.42965 46.6505218,106.657212 56.4748062,102.837619 C62.3410284,100.557619 67.8808862,98.4034937 72.7388329,97.279525 C81.2225218,95.3171812 87.4943173,96.8538062 91.3832951,101.843087 C100.145108,113.08515 94.244344,132.901556 71.0152951,170.240712 C69.2101662,173.143556 66.0906462,174.739556 62.8996596,174.74015" id="Fill-13" fill="#334F5C"></path>
                        <g id="Group-17" transform="translate(0.000000, 32.175906)">
                            <mask id="mask-2" fill="white">
                                <use xlink:href="#path-1"></use>
                            </mask>
                            <g id="Clip-16"></g>
                            <path d="M33.0177787,6.26180625 C0.826809778,20.5219 -2.76022133,72.650775 1.40568978,82.37165 C5.00939644,90.7797438 27.7113787,91.9084625 44.1564542,81.3302125 C48.3104542,78.6583375 50.5878587,73.8917125 50.1394053,68.983775 C49.2424987,59.1791812 48.9476987,42.1872438 69.6295564,24.1710875 C80.3114409,14.86465 72.7860009,-11.35535 33.0177787,6.26180625" id="Fill-15" fill="#E3584E" mask="url(#mask-2)"></path>
                        </g>
                        <path d="M76.7271493,189.519537 C75.6039316,189.519537 74.4658249,189.232756 73.4241982,188.629506 L55.9672738,178.517944 C53.0031938,176.800819 51.8555582,173.104725 53.3283671,170.018412 L56.9618516,162.407131 C58.5251849,159.1326 62.455256,157.74085 65.7391493,159.299444 C69.0236382,160.857444 70.4190249,164.775006 68.8562871,168.050131 L67.8301449,170.2001 L80.0420116,177.274037 C83.1871404,179.096256 84.2561627,183.114756 82.4284027,186.250944 C81.2063227,188.348069 78.9974071,189.519537 76.7271493,189.519537" id="Fill-18" fill="#99A7AD"></path>
                        <path d="M83.1171627,100.551266 C80.0512427,100.551266 77.2682116,99.8969531 74.7490116,98.5924844 C62.9504604,92.4839844 62.559776,75.1328281 62.2751004,62.4639844 C62.1875538,58.5850156 62.0976249,54.5742344 61.6598916,52.8559219 C60.7647716,49.3409219 62.897456,45.7683281 66.4231449,44.8759219 C69.9488338,43.9817344 73.5322916,46.1091406 74.4274116,49.6241406 C75.2331982,52.7888281 75.3314649,57.1356719 75.4446204,62.1694844 C75.6191182,69.9434531 75.9448871,84.4131406 80.8201049,86.9371719 C82.0421849,87.5707031 87.1044071,88.9214844 100.870674,79.7248906 C103.891927,77.7049531 107.983394,78.5118594 110.008283,81.5245469 C112.033172,84.5372344 111.225003,88.6157031 108.203154,90.6344531 C98.2835804,97.2612969 89.9904693,100.551266 83.1171627,100.551266" id="Fill-20" fill="#E3584E"></path>
                        <path d="M25.9577653,43.2080187 C25.964912,53.419925 27.1971164,66.1196437 36.4454987,62.4003937 C45.695072,58.68055 62.9769031,45.6121125 73.942272,47.6160187 C73.942272,47.6160187 74.1918098,45.4203312 73.7677742,43.1706125 C73.3443342,40.9208937 54.7385831,43.9110187 54.7385831,43.9110187 L27.240592,43.7809875 L25.9577653,43.2080187 Z" id="Fill-22" fill="#BC4542"></path>
                        <path d="M58.5039831,21.0740281 C20.2615742,18.6343094 22.8980987,52.8806219 30.7772987,55.8974656 C38.6570942,58.9143094 60.0119298,45.1339656 74.0152276,45.9735281 C74.0152276,45.9735281 76.2950142,36.6908406 71.575832,32.7477469 C66.4921698,28.4994656 58.5039831,21.0740281 58.5039831,21.0740281" id="Fill-24" fill="#E3584E"></path>
                        <path d="M57.0708978,21.1319781 C51.3529689,21.2976344 44.8113867,22.5724156 42.1790311,24.9972906 C39.5466756,27.4221656 37.4050578,32.2261969 59.2702844,36.2945719 C81.1355111,40.3629469 69.9497867,32.4268844 69.9497867,32.4268844 L57.0708978,21.1319781 Z" id="Fill-26" fill="#99A7AD"></path>
                        <path d="M58.8529191,22.3832469 C51.8313191,21.5828719 35.9960924,26.7176219 48.4384391,31.0169656 C60.8795947,35.3163094 71.0445369,36.7519969 72.6037013,35.7758719 C74.1622702,34.7991531 58.8529191,22.3832469 58.8529191,22.3832469" id="Fill-28" fill="#BC4542"></path>
                        <path d="M82.58152,10.1560344 C78.7884267,1.96169062 69.0504978,-1.61505938 60.8312356,2.16594062 C52.6125689,5.94812812 49.0243467,15.6559406 52.81744,23.8502844 C56.6105333,32.0446281 66.3484622,35.6213781 74.5677244,31.8403781 C82.7863911,28.0581906 86.3746133,18.3503781 82.58152,10.1560344" id="Fill-30" fill="#F0C9A4"></path>
                        <path d="M119.209914,76.8957906 L101.126465,63.2478531 C100.342118,62.6558844 100.188465,61.5426031 100.781638,60.7606344 L112.053718,45.9151031 C112.647487,45.1331344 113.764154,44.9793531 114.549096,45.5713219 L132.632545,59.2192594 C133.57114,59.9281969 133.756954,61.2617594 133.045265,62.1981031 L122.198412,76.4837281 C121.486723,77.4200719 120.149105,77.6047281 119.209914,76.8957906" id="Fill-32" fill="#334F5C"></path>
                        <path d="M119.761875,74.3598844 L103.461519,62.0573844 C102.779012,61.5431969 102.645012,60.5741969 103.161359,59.8943531 L112.668808,47.3739469 C112.918346,47.0450094 113.388239,46.9802906 113.718177,47.2290719 L131.293617,60.4940406 C131.758746,60.8449469 131.850461,61.5046031 131.498488,61.9683219 L122.360879,74.0012594 C121.742692,74.8164781 120.578977,74.9767906 119.761875,74.3598844" id="Fill-34" fill="#FFFFFF"></path>
                        <path d="M118.349157,83.9062562 C116.021726,83.9062562 113.866411,82.4076312 113.143406,80.0747875 C112.254837,77.206975 113.865815,74.1646 116.741753,73.2781312 C121.315024,71.8691625 122.436455,69.0755687 122.444197,69.0482562 C123.256535,66.158475 126.264091,64.4692562 129.163851,65.2815062 C132.061824,66.0907875 133.753797,69.0898187 132.942055,71.9796 C132.70026,72.8411312 130.280517,80.4821 119.960135,83.662225 C119.424731,83.8272875 118.882775,83.9062562 118.349157,83.9062562" id="Fill-36" fill="#F0C9A4"></path>
                        <path d="M83.4387627,8.244575 C91.3006916,19.335825 67.7226471,19.559075 72.8104782,33.7918562 C77.8977138,48.0246375 92.6740427,54.7132312 77.3557582,59.8937 C64.5828782,64.213825 82.7747182,40.302325 65.8246116,36.6745125 C54.1511271,34.1760125 53.2768516,28.1031375 53.2768516,28.1031375 C50.2615538,28.8132625 47.4969849,29.4093875 48.0901582,20.5215437 C49.3027093,2.33260625 71.6813049,-8.342425 83.4387627,8.244575" id="Fill-38" fill="#DD902F"></path>
                        <path d="M75.5581333,20.2008 C74.7606844,18.478925 72.7149511,17.7266437 70.9872444,18.521675 C69.2601333,19.3161125 68.5055644,21.3568312 69.3030133,23.0787062 C70.0998667,24.801175 72.1461956,25.5528625 73.8739022,24.7578312 C75.6010133,23.9628 76.3555822,21.922675 75.5581333,20.2008" id="Fill-40" fill="#F0C9A4"></path>
                        <path d="M74.3885218,20.7388562 C73.8894462,19.6606062 72.6084062,19.1903562 71.5268773,19.687325 C70.4453484,20.1848875 69.9736684,21.4626375 70.472744,22.5408875 C70.9718196,23.6191375 72.2528596,24.0893875 73.3337929,23.591825 C74.4153218,23.0942625 74.8875973,21.8171062 74.3885218,20.7388562" id="Fill-42" fill="#EBB17E"></path>
                        <path d="M74.6927316,24.5582125 C74.4068649,23.939525 73.6719493,23.6699625 73.0513804,23.9549625 C72.4314071,24.2405562 72.1604293,24.9732437 72.4468916,25.5913375 C72.7333538,26.2094312 73.4676738,26.4795875 74.0876471,26.1939937 C74.708216,25.9089937 74.9785982,25.1763062 74.6927316,24.5582125" id="Fill-44" fill="#19267B"></path>
                        <path d="M98.2590436,65.4342187 C97.3817902,65.4342187 96.6701013,64.7264687 96.6689102,63.851875 C96.6677191,62.9755 97.3788124,62.265375 98.2566613,62.2641875 C101.64835,62.2594375 103.46539,60.8665 103.541621,60.807125 C104.227106,60.2697812 105.224661,60.3784375 105.769595,61.0559062 C106.315719,61.7345625 106.218644,62.7184062 105.544475,63.2688125 C105.436679,63.3572812 102.849586,65.4276875 98.2614258,65.4342187 L98.2590436,65.4342187 Z" id="Fill-46" fill="#F0C9A4"></path>
                        <path d="M117.207477,76.1924344 C116.343922,76.1924344 115.635806,75.5042781 115.618535,74.6397781 C115.616153,74.5317156 115.573273,71.9679031 116.252206,69.6564344 C116.498766,68.8156844 117.380188,68.3329656 118.224091,68.5805594 C119.066802,68.8263719 119.550393,69.7069031 119.303833,70.5470594 C118.764855,72.3811531 118.797015,74.5560594 118.797611,74.5780281 C118.813095,75.4520281 118.115104,76.1752156 117.238446,76.1918406 C117.227726,76.1918406 117.217602,76.1924344 117.207477,76.1924344" id="Fill-48" fill="#F0C9A4"></path>
                        <path d="M111.360075,68.9599062 C111.360075,69.3494062 111.043835,69.6646875 110.65315,69.6646875 C110.26187,69.6646875 109.94563,69.3494062 109.94563,68.9599062 C109.94563,68.5704062 110.26187,68.2545312 110.65315,68.2545312 C111.043835,68.2545312 111.360075,68.5704062 111.360075,68.9599062" id="Fill-50" fill="#FFFFFF"></path>
                        <path d="M131.733435,59.468575 C131.733435,59.6544187 131.582164,59.8052312 131.39635,59.8052312 C131.209941,59.8052312 131.05867,59.6544187 131.05867,59.468575 C131.05867,59.2827312 131.209941,59.1325125 131.39635,59.1325125 C131.582164,59.1325125 131.733435,59.2827312 131.733435,59.468575" id="Fill-52" fill="#FFFFFF"></path>
                        <path d="M130.806393,58.795975 C130.806393,58.981225 130.655122,59.1320375 130.468713,59.1320375 C130.282304,59.1320375 130.131033,58.981225 130.131033,58.795975 C130.131033,58.6101312 130.282304,58.4593187 130.468713,58.4593187 C130.655122,58.4593187 130.806393,58.6101312 130.806393,58.795975" id="Fill-54" fill="#FFFFFF"></path>
                    </g>
                </g>
            </g>
        </g>
    </g>
</svg>