<?xml version="1.0" encoding="UTF-8"?>
<svg width="251px" height="280px" viewBox="0 0 251 280" version="1.1" xmlns="http://www.w3.org/2000/svg" xmlns:xlink="http://www.w3.org/1999/xlink">
    <!-- Generator: sketchtool 51.1 (57501) - http://www.bohemiancoding.com/sketch -->
    <title>99E33C9B-DAE6-4736-B9F8-E4FBD78F41D8</title>
    <desc>Created with sketchtool.</desc>
    <defs>
        <polygon id="path-1" points="0.274080239 0.0138892882 56.4320758 0.0138892882 56.4320758 108.339626 0.274080239 108.339626"></polygon>
        <polygon id="path-3" points="0.321041566 0.357342657 42.6905213 0.357342657 42.6905213 52.6257041 0.321041566 52.6257041"></polygon>
    </defs>
    <g id="Page-1" stroke="none" stroke-width="1" fill="none" fill-rule="evenodd">
        <g id="Homepage" transform="translate(-1076.000000, -3126.000000)">
            <g id="Group-26" transform="translate(1076.000000, 3126.000000)">
                <path d="M1.27649867,120.105747 C8.98333776,105.838765 62.6155259,119.944147 82.2026738,102.98749 C101.789822,86.0308322 56.3056967,61.8999837 82.2026738,50.0476944 C108.099651,38.1954051 114.689601,59.5878242 161.160974,59.5878242 C207.632347,59.5878242 216.900138,40.0933257 238.212961,50.0476944 C259.525784,60.0020631 235.641152,64.1158168 238.212961,102.98749 C240.78477,141.859163 257.922234,166.309566 246.853483,180.645089 C235.784732,194.980612 216.978665,166.028774 194.120901,180.645089 C171.263137,195.261404 208.865741,231.045486 178.840415,234.283151 C148.815089,237.520816 126.502056,191.958732 105.069855,191.958732 C83.6376548,191.958732 109.445608,237.720076 82.2026738,234.283151 C54.9597394,230.846226 20.2173455,193.413901 15.3917783,180.645089 C10.5662111,167.876277 57.2053387,175.033512 53.0082488,157.032518 C48.8111589,139.031524 -6.43034042,134.372729 1.27649867,120.105747 Z" id="Path-3" fill="#F2F3F5" fill-rule="nonzero"></path>
                <g id="Group-63" transform="translate(74.000000, 0.000000)">
                    <path d="M83.7126559,142.15135 C82.0940019,142.15135 80.4787981,141.698063 79.0671583,140.797853 L59.8922199,128.570371 C57.3030635,126.919252 55.799746,124.019881 55.9500777,120.968762 L56.6056227,107.663378 C56.726381,105.214357 57.9014332,102.935196 59.8311014,101.405965 C61.7612626,99.8772238 64.2587412,99.2452657 66.6906654,99.6730979 L85.2105517,102.927364 C89.3168265,103.648902 92.3096607,107.193448 92.3096607,111.335196 L92.3096607,133.613308 C92.3096607,136.735406 90.5934142,139.608832 87.8342104,141.106245 C86.5467791,141.804776 85.1282389,142.15135 83.7126559,142.15135" id="Fill-1" fill="#95CFFB"></path>
                    <path d="M94.8537175,259.564601 L91.8732057,259.564601 L91.8732057,262.106629 C84.2338882,258.92579 80.4120114,259.570476 78.02149,262.073832 C76.303272,263.872294 74.345509,267.745301 73.1724284,271.142993 L72.1486938,271.142993 L72.1486938,275.391944 L72.1491867,275.391944 C72.111727,276.731734 73.0225896,278.712783 75.5343621,279.369217 C78.1871014,280.061874 81.7921062,279.343273 83.4851867,278.273692 C86.8023431,276.177608 92.1679545,271.150336 94.3790635,267.006629 C94.6575469,266.484322 94.8024569,265.999706 94.8399166,265.548378 L94.8537175,265.548378 L94.8537175,259.564601 Z" id="Fill-3" fill="#334F5C"></path>
                    <path d="M70.7313858,245.130699 C70.7323716,245.115524 70.7304,245.10035 70.7313858,245.084196 L70.7316704,239.102867 L66.3584569,239.102867 L66.3584569,240.109301 C64.4519545,239.504266 62.1092436,239.372587 59.6945706,239.865035 L46.4609403,244.112028 C45.4988171,244.35972 44.6214711,244.710699 43.8500967,245.133636 L40.4639355,245.133636 L40.4639355,249.65035 L40.4718218,249.65035 C40.4718218,249.918112 40.4969592,250.186364 40.5644853,250.452168 C41.2175659,253.013776 44.8836891,254.505315 48.9751773,253.874336 L62.7248645,251.754266 C67.2678408,250.827622 70.5396512,248.018811 70.7308929,245.133636 L70.7313858,245.133636 L70.7313858,245.130699 Z" id="Fill-5" fill="#334F5C"></path>
                    <path d="M62.7248152,246.967343 L48.975128,249.087413 C44.8836398,249.718392 41.2175166,248.226853 40.564436,245.665245 C39.9138199,243.10951 44.6820474,239.21007 46.460891,237.972098 C49.8081137,235.642028 56.1363412,231.306923 60.0425024,230.283846 C65.1444171,228.947483 71.3252701,229.892238 70.7407014,238.984895 C70.5588246,241.813287 67.9203791,245.907063 62.7248152,246.967343" id="Fill-7" fill="#99A7AD"></path>
                    <path d="M55.313164,238.396601 C61.6034389,244.320657 72.0512493,237.334364 67.9257517,232.742755 C62.4334673,226.630727 50.5942256,233.951846 55.313164,238.396601" id="Fill-9" fill="#334F5C"></path>
                    <path d="M94.3791128,262.547531 C92.3350938,267.627671 86.7176152,272.047462 83.4847431,273.815084 C81.7270938,274.775503 78.1866578,275.603266 75.5344114,274.910119 C72.8880796,274.21942 72.0171412,272.056273 72.1615583,270.722846 C72.5469991,267.158231 77.132364,256.629839 79.6170275,254.02858 C82.0198711,251.512497 88.106582,250.50949 91.2122882,251.95893 C95.3565156,253.892986 95.1844967,260.544944 94.3791128,262.547531" id="Fill-11" fill="#99A7AD"></path>
                    <path d="M81.1451867,260.811287 C87.3245611,266.630587 96.7373005,259.280098 92.6847507,254.769748 C87.2895659,248.765413 76.5095469,256.445343 81.1451867,260.811287" id="Fill-13" fill="#334F5C"></path>
                    <path d="M61.5489251,239.735559 C61.4114085,239.735559 61.2733991,239.730175 61.1339109,239.720385 C58.1065744,239.495699 55.8353327,236.875839 56.0610768,233.869755 L56.7737972,224.379615 C57.0000341,221.372552 59.6330578,219.124231 62.6653232,219.341084 C65.6926597,219.565769 67.9639014,222.18465 67.7381573,225.191713 L67.0249441,234.681853 C66.8095507,237.550385 64.3988209,239.735559 61.5489251,239.735559" id="Fill-15" fill="#FFFFFF"></path>
                    <path d="M86.590055,261.504923 C83.6430597,261.504923 81.2037422,259.185133 81.0997422,256.236322 L80.7645763,246.726112 C80.6581118,243.712685 83.031382,241.183874 86.0661118,241.078629 C89.1057706,240.961636 91.6456379,243.330378 91.7521024,246.343804 L92.0872682,255.854503 C92.1937327,258.867441 89.8204626,261.395762 86.7857327,261.501497 C86.7206711,261.503944 86.6551166,261.504923 86.590055,261.504923" id="Fill-17" fill="#FFFFFF"></path>
                    <path d="M62.115454,232.476119 C62.0528569,232.476119 61.9902597,232.475629 61.9276626,232.474161 C57.1801365,232.372832 53.4149422,228.468986 53.5164777,223.755 L55.7793403,118.880315 C55.8808758,114.165839 59.7998521,110.421084 64.5587147,110.526818 C69.3057479,110.628147 73.071928,114.531503 72.9698995,119.245979 L70.7075299,224.120664 C70.6069801,228.772972 66.77771,232.476119 62.115454,232.476119" id="Fill-19" fill="#334F5C"></path>
                    <path d="M86.3065934,255.072951 C81.6596171,255.072951 77.8352758,251.391832 77.7159962,246.752252 C77.4074464,234.691692 76.966309,223.229804 76.5399583,212.145329 C75.6221953,188.298825 74.6733801,163.640224 74.9528493,131.217497 C74.9932664,126.527007 78.8348588,122.752392 83.5483754,122.752392 C83.5735128,122.752392 83.5981573,122.752392 83.6237877,122.752881 C88.3713137,122.793021 92.1877687,126.648406 92.1468588,131.36386 C91.8713327,163.387147 92.8117687,187.842112 93.7221384,211.493301 C94.1504607,222.631622 94.5935697,234.148825 94.9050768,246.317566 C95.0258351,251.031552 91.2759204,254.950573 86.5293801,255.070503 C86.4549536,255.072462 86.380527,255.072951 86.3065934,255.072951" id="Fill-21" fill="#334F5C"></path>
                    <path d="M11.1450047,104.341706 C8.34045498,104.341706 5.70595261,102.623035 4.68911848,99.8543636 C3.38887204,96.3132448 5.224891,92.3961818 8.78997156,91.1043636 L10.4372133,90.5086294 C29.2824076,83.701986 47.0816872,77.2727552 59.7386351,48.8943636 C61.2754692,45.4477203 65.3349194,43.8915664 68.8038863,45.4183497 C72.2738389,46.9446434 73.8407393,50.9752727 72.3039052,54.4214266 C57.2776303,88.1134545 34.8885498,96.2006573 15.1349573,103.335273 L13.4990521,103.926601 C12.721763,104.208559 11.9267299,104.341706 11.1450047,104.341706" id="Fill-23" fill="#BC4542"></path>
                    <g id="Group-27" transform="translate(47.317536, 39.782517)">
                        <mask id="mask-2" fill="white">
                            <use xlink:href="#path-1"></use>
                        </mask>
                        <g id="Clip-26"></g>
                        <path d="M11.6797915,11.5981189 C14.5420095,-4.91894406 56.4328152,-5.27237063 56.4323223,20.353014 C56.4323223,24.995042 54.2310711,77.1758811 49.1557725,101.254413 C46.4936682,113.885252 5.29882464,108.255881 0.598616114,95.1423846 C-1.80472038,88.4370699 9.86890995,22.0496573 11.6797915,11.5981189" id="Fill-25" fill="#E3584E" mask="url(#mask-2)"></path>
                    </g>
                    <g id="Group-30" transform="translate(51.260664, 0.132168)">
                        <mask id="mask-4" fill="white">
                            <use xlink:href="#path-3"></use>
                        </mask>
                        <g id="Clip-29"></g>
                        <path d="M42.6905213,43.3572657 C42.2843791,41.7286643 41.8802085,40.0941888 41.4789953,38.4543287 C40.5661611,34.7267063 39.6779716,31.0186643 38.8134408,27.3306923 C37.5136872,25.1802727 36.2139336,23.0293636 34.9141801,20.8784545 C32.4822559,14.9974755 30.0503318,9.1164965 27.6189005,3.23551748 C26.3462559,2.46845455 20.1407583,-1.09665035 13.1081896,1.0195035 C3.26121327,3.98251049 0.972720379,15.322021 0.704587678,16.769993 C-0.561649289,23.6123706 1.56418957,29.3455175 3.34845498,33.2885245 C5.13962085,37.2476853 7.36551659,40.7731399 9.46917536,43.5153776 C12.9918673,48.107965 15.5036398,50.1477552 18.0716019,51.513 C26.9875071,56.2534196 41.4730806,44.3764266 42.6905213,43.3572657" id="Fill-28" fill="#BC4542" mask="url(#mask-4)"></path>
                    </g>
                    <path d="M79.9538692,36.6271818 C86.2254142,26.6162028 80.8494521,1.47053846 67.5187223,2.59592308 C60.0859261,3.22298601 55.6439924,10.4501189 54.0342104,17.3037552 C54.0342104,18.4022168 52.5589877,26.3024266 60.0992341,36.074035 C67.5187223,45.6885105 75.7623242,43.3187902 79.9538692,36.6271818" id="Fill-31" fill="#334F5C"></path>
                    <path d="M42.2987223,122.978692 C40.2359735,122.978692 38.1963905,122.059881 36.8434047,120.308902 C34.5322389,117.319462 35.0995564,113.035755 38.1096417,110.74093 C42.2883716,107.554706 47.1783431,104.636734 52.356163,101.546944 C68.5910066,91.859042 86.9921062,80.8788322 89.6453384,57.4533077 C90.0692246,53.7080629 93.4696796,51.0113497 97.2417744,51.4347762 C101.012883,51.8557552 103.726248,55.2333776 103.301869,58.9791119 C101.772428,72.4812797 96.2165611,83.882958 86.3163526,93.8356853 C78.0697934,102.125545 68.1690919,108.033448 59.4340777,113.246245 C54.6012815,116.130441 50.0361251,118.854077 46.477945,121.566944 C45.2304379,122.518552 43.7586654,122.978692 42.2987223,122.978692" id="Fill-33" fill="#BC4542"></path>
                    <path d="M87.7602275,22.9696434 C88.861346,13.5558671 81.5576872,5.29195105 72.0158104,5.15635664 C63.8461422,5.04034266 56.7997725,11.1836993 55.8573649,19.243979 C54.7572322,28.6572657 62.0603981,36.9197133 71.6012891,37.0557972 C79.7704645,37.1727902 86.817327,31.0294336 87.7602275,22.9696434" id="Fill-35" fill="#EAB07E"></path>
                    <path d="M77.3045801,1.55742657 C90.4031583,5.53323077 99.0755754,15.5662378 98.8237081,24.9433007 C98.5698692,34.3986853 93.9509877,43.4893846 93.9509877,43.4893846 C93.1258882,44.4214126 92.2771299,45.1762378 91.4554806,45.7915524 C84.9281251,50.6768671 77.4889213,53.3344196 74.632618,52.746028 C75.953073,50.2460979 76.3740019,43.7684056 77.6944569,41.2684755 L83.7555374,25.4039301 L78.0877839,7.38455944 L68.2403147,0.504 C68.2403147,0.504 75.148182,0.902951049 77.3045801,1.55742657" id="Fill-37" fill="#E3584E"></path>
                    <path d="M63.5334521,67.0538322 C63.3077081,67.0538322 63.0903431,66.930965 62.9799355,66.718028 C62.6142104,66.0106853 62.3830445,65.2705455 62.2928455,64.5176783 C62.0626654,62.5850909 62.8473479,61.2893566 63.5408455,60.1458601 C64.0879545,59.2432028 64.5601441,58.4639021 64.5700019,57.4373986 C64.5813384,56.1328531 63.8015848,55.2972587 62.9759924,54.4132028 C62.1158976,53.4914545 61.1409592,52.4468392 61.182855,50.8373287 C61.2341156,48.9115944 62.7527128,47.0308951 65.6977365,45.2461399 C65.9910066,45.067958 66.3739829,45.1604755 66.5524095,45.4517343 C66.7313289,45.742993 66.6386654,46.1233427 66.3453953,46.3005455 C63.7843336,47.8527832 62.4658502,49.3903357 62.4269118,50.8691469 C62.3973384,51.9759301 63.0888645,52.7160699 63.8888265,53.5727133 C64.7982104,54.5483077 65.8303242,55.6526434 65.8140588,57.4486573 C65.8017365,58.8124336 65.1940019,59.813972 64.6069687,60.7832028 C63.95931,61.8513147 63.3481251,62.8597063 63.5285232,64.3722937 C63.6009782,64.9783077 63.7887697,65.5774685 64.0864758,66.1536224 C64.2432152,66.4571189 64.1229498,66.8291469 63.8168645,66.9853007 C63.7266654,67.0318042 63.629073,67.0538322 63.5334521,67.0538322" id="Fill-39" fill="#1D2D33"></path>
                    <polygon id="Fill-41" fill="#EEECF7" points="8.34602464 83.5250769 41.1572853 64.7112308 78.8688682 86.3343776 46.0571147 105.148224"></polygon>
                    <polygon id="Fill-43" fill="#D2D2D2" points="46.0570161 105.148371 46.0570161 116.154035 78.8687697 97.3401888 78.8687697 86.3345245"></polygon>
                    <polygon id="Fill-45" fill="#F2F2F2" points="8.34602464 83.5250769 8.34602464 94.5307413 46.0571147 116.153888 46.0571147 105.148224"></polygon>
                    <polygon id="Fill-47" fill="#E0E0E0" points="8.96790521 71.2375804 41.7796588 52.4237343 79.4907488 74.0468811 46.6794882 92.8607273"></polygon>
                    <polygon id="Fill-49" fill="#D2D2D2" points="46.6793896 92.8609231 46.6793896 103.866098 79.4906502 85.0522517 79.4906502 74.0470769"></polygon>
                    <polygon id="Fill-51" fill="#F2F2F2" points="8.96790521 71.2375804 8.96790521 82.2432448 46.6794882 103.866392 46.6794882 92.8607273"></polygon>
                    <path d="M41.8241175,112.322783 C41.8260891,112.323273 41.8285536,112.323762 41.8305251,112.324252 C41.8285536,112.323762 41.8260891,112.323273 41.8241175,112.322783 M40.3360796,123.038657 C39.8422028,123.038657 39.3414256,122.972084 38.8426199,122.832573 C36.4451981,122.161944 33.5080607,120.210266 32.0673403,110.997189 C31.6015583,108.017538 33.655928,105.226839 36.6556626,104.764252 C39.6544114,104.297259 42.4653687,106.340965 42.9311507,109.321105 C43.1642882,110.791105 43.5980322,112.545021 43.9376341,113.453552 C45.4931981,114.796769 46.2207052,116.956979 45.6243071,119.057958 C44.9416531,121.464881 42.7359659,123.038657 40.3360796,123.038657" id="Fill-53" fill="#EAB07E"></path>
                    <path d="M11.7250389,94.5588881 C11.7265175,94.5598671 11.7284891,94.5608462 11.7304607,94.5618252 C11.7284891,94.5608462 11.7265175,94.5598671 11.7250389,94.5588881 M8.96287773,104.742664 C8.02687773,104.742664 7.07855545,104.504762 6.21057441,104.004972 C5.31203412,103.488049 2.57747488,101.913294 0.22441327,93.9572797 C-0.631245498,91.0642727 1.03620474,88.0302867 3.94919052,87.1804965 C6.86316209,86.3307063 9.91711469,87.9872098 10.7727735,90.8797273 C11.2291905,92.4114056 11.9971147,94.3102168 12.4490957,95.0557413 C14.5039583,96.7210559 15.0964133,99.6683986 13.7237118,102.020497 C12.7039204,103.76707 10.8590294,104.742664 8.96287773,104.742664" id="Fill-55" fill="#EAB07E"></path>
                    <path d="M81.9268626,17.6285455 C81.9618578,17.442042 81.9820664,17.2501538 81.9820664,17.0528811 C81.9820664,15.485958 80.8232796,14.1912028 79.3101043,13.9591748 C79.5151469,13.5435804 79.6339336,13.0780559 79.6339336,12.5836503 C79.6339336,11.4372168 79.0114123,10.4366573 78.085763,9.89036364 C78.1064645,9.74595804 78.1202654,9.59959441 78.1202654,9.4498042 C78.1202654,7.82267133 76.8722654,6.48581818 75.2752986,6.33113287 C74.8632417,5.07553846 73.6768531,4.16798601 72.275564,4.16798601 C71.6895166,4.16798601 71.1433934,4.32952448 70.6736682,4.60511888 C70.1260664,4.15134266 69.422218,3.87770629 68.6528152,3.87770629 C67.8981991,3.87770629 67.2056872,4.14204196 66.6620284,4.58113287 C66.4550142,4.53854545 66.2410995,4.51602797 66.0212701,4.51602797 C64.2784076,4.51602797 62.8652891,5.91945455 62.8652891,7.65036364 C62.8652891,7.65281119 62.865782,7.65476923 62.865782,7.65672727 C62.8233934,7.65476923 62.7814976,7.65036364 62.7386161,7.65036364 C60.9957536,7.65036364 59.583128,9.05379021 59.583128,10.7846993 C59.583128,10.7915524 59.5841137,10.7974266 59.5841137,10.8042797 C59.4702559,10.792042 59.3549194,10.7846993 59.2381043,10.7846993 C57.4952417,10.7846993 56.0816303,12.1876364 56.0816303,13.9185455 C56.0816303,15.6499441 57.4952417,17.0528811 59.2381043,17.0528811 C59.8828057,17.0528811 60.482654,16.860014 60.9824455,16.5295944 C61.4467488,17.6858182 62.5828626,18.5042797 63.9126825,18.5042797 C64.8708626,18.5042797 65.7284929,18.0779161 66.3071469,17.4077762 C66.803981,18.4905734 67.9006635,19.2444196 69.1772512,19.2444196 C70.0368531,19.2444196 70.815128,18.9022517 71.3839242,18.3486154 C71.9522275,19.1778462 72.9094218,19.7226713 73.9952607,19.7226713 C74.4014028,19.7226713 74.7893081,19.6438601 75.1456682,19.5048392 C75.0308246,19.8288951 74.9647773,20.1744895 74.9647773,20.5352587 C74.9647773,22.2549091 76.3897251,23.6695944 78.1202654,23.6695944 C78.588019,23.6695944 79.0306351,23.5638601 79.4313555,23.3798042 C79.8330616,23.5638601 80.2786351,23.6695944 80.7503318,23.6695944 C82.4931943,23.6695944 83.9063128,22.2666573 83.9063128,20.5352587 C83.9063128,19.217986 83.0866351,18.0921119 81.9268626,17.6285455" id="Fill-57" fill="#E79D70"></path>
                    <path d="M71.8091412,42.4085944 C77.6730654,40.5401329 84.380819,26.2273357 79.4198711,14.2832797 C74.4589232,2.33922378 68.9626957,2.52279021 68.2406104,2.55901399 C67.519018,2.59572727 67.4130464,0.515797203 68.2406104,0.504048951 C69.0681744,0.491811189 74.2045915,0.456076923 78.1570844,5.15488811 C83.932781,12.0202727 90.2023545,30.0274056 79.4198711,47.6218811 C70.6503545,61.9307622 71.8091412,42.4085944 71.8091412,42.4085944" id="Fill-59" fill="#BC4542"></path>
                    <path d="M75.5991773,68.9248392 C75.460182,68.9248392 75.3211867,68.8788252 75.2048645,68.7848392 C74.9391962,68.567986 74.9007507,68.1788252 75.1181156,67.914979 C77.5303242,64.9955385 78.4264,62.6605734 77.7826844,60.9751888 C77.4435754,60.0886853 76.7673289,59.6422517 75.9106844,59.0763776 C75.2807697,58.6602937 74.5670635,58.1888951 73.8977175,57.4678462 C71.657528,55.0540699 71.0946464,51.0376364 72.2253384,45.5306434 C72.2938502,45.1963077 72.6255659,44.9799441 72.9592531,45.048965 C73.2954047,45.117007 73.5132626,45.443021 73.4442578,45.7773566 C72.3983431,50.8736503 72.8587033,54.5249091 74.8125232,56.6302937 C75.3808265,57.2421818 76.0003905,57.6514126 76.599746,58.0474266 C77.5170161,58.652951 78.4653384,59.2795245 78.9459071,60.5370769 C79.7591773,62.6654685 78.7950825,65.4116224 76.0807318,68.6986853 C75.957509,68.8474965 75.7790825,68.9248392 75.5991773,68.9248392" id="Fill-61" fill="#1D2D33"></path>
                </g>
            </g>
        </g>
    </g>
</svg>