<?xml version="1.0" encoding="UTF-8"?>
<svg width="249px" height="280px" viewBox="0 0 249 280" version="1.1" xmlns="http://www.w3.org/2000/svg" xmlns:xlink="http://www.w3.org/1999/xlink">
    <!-- Generator: sketchtool 51.1 (57501) - http://www.bohemiancoding.com/sketch -->
    <title>BCE85F87-6D5F-412E-BE05-57B003ABB75F</title>
    <desc>Created with sketchtool.</desc>
    <defs>
        <polygon id="path-1" points="0.131813665 0.227906977 41.5640683 0.227906977 41.5640683 31.5723292 0.131813665 31.5723292"></polygon>
        <polygon id="path-3" points="0.0130428325 0.416994633 34.1777739 0.416994633 34.1777739 17.5313059 0.0130428325 17.5313059"></polygon>
        <polygon id="path-5" points="0 0.440860244 4.73799689 0.440860244 4.73799689 6.91840429 0 6.91840429"></polygon>
        <polygon id="path-7" points="0 0.122218247 3.10843789 0.122218247 3.10843789 4.41388193 0 4.41388193"></polygon>
    </defs>
    <g id="Page-1" stroke="none" stroke-width="1" fill="none" fill-rule="evenodd">
        <g id="Homepage" transform="translate(-276.000000, -3126.000000)">
            <g id="Group-24" transform="translate(276.000000, 3126.000000)">
                <path d="M0.733323978,120.341269 C8.40933571,106.131355 61.8269951,120.180316 81.3357944,103.291485 C100.844594,86.4026539 55.5424052,62.3683288 81.3357944,50.5634487 C107.129184,38.7585686 113.692774,60.065418 159.978261,60.065418 C206.263749,60.065418 215.494469,40.6488975 236.72204,50.5634487 C257.949612,60.4779999 234.160519,64.5752986 236.72204,103.291485 C239.283562,142.007671 256.352476,166.360272 245.328,180.638453 C234.303524,194.916634 215.572682,166.080604 192.806349,180.638453 C170.040016,195.196303 207.492209,230.83725 177.586985,234.061964 C147.68176,237.286678 125.457979,191.906842 104.111507,191.906842 C82.7650355,191.906842 108.469757,237.485141 81.3357944,234.061964 C54.2018318,230.638786 19.5984074,193.35619 14.7921425,180.638453 C9.98587756,167.920717 56.4384486,175.049323 52.2581471,157.120333 C48.0778455,139.191343 -6.94268776,134.551183 0.733323978,120.341269 Z" id="Path-3" fill="#F2F3F5" fill-rule="nonzero"></path>
                <g id="Group-8" transform="translate(84.000000, 0.000000)">
                    <g id="Group-76">
                        <path d="M39.2421354,237.250061 C45.2190298,240.685195 44.1448994,245.73922 44.0503155,249.323621 C43.9552286,252.908522 22.8273093,266.208272 14.3006758,264.038898 C5.77353913,261.869524 11.0787876,250.173138 19.8901789,242.532494 C28.7015702,234.89185 33.5112596,233.956179 39.2421354,237.250061" id="Fill-1" fill="#FFFFFF"></path>
                        <path d="M38.744413,238.23522 C43.070618,240.722161 43.4741087,244.352143 37.1178727,247.685596 C32.9637298,249.864487 27.7274068,248.743485 25.2093634,246.30463 C21.167413,242.389639 25.7049224,239.645739 26.3720404,239.105274 C28.3029596,237.541982 32.7458851,234.787564 38.744413,238.23522" id="Fill-3" fill="#334F5C"></path>
                        <path d="M40.3308559,232.880959 C40.4817876,239.565395 40.450595,241.484823 40.3308559,242.321317 C40.2106137,243.15781 35.7425329,250.037095 27.5278248,245.787005 C19.3131168,241.536415 35.5694646,235.451549 35.5694646,235.451549 L40.3308559,232.880959 Z" id="Fill-5" fill="#FFFFFF"></path>
                        <path d="M16.2048801,262.437138 C28.2804205,261.278569 40.1607559,251.559213 44.1544081,247.162361 C44.1201969,247.921717 44.0678739,248.649016 44.0502652,249.323721 C43.9551783,252.908623 22.827259,266.208372 14.3006255,264.038998 C10.8070602,263.150411 9.63834596,260.661467 10.0775571,257.509338 C10.0775571,257.794347 10.1157932,263.021181 16.2048801,262.437138" id="Fill-7" fill="#334F5C"></path>
                        <path d="M22.7256317,254.311277 C22.3870416,254.311277 22.0856814,254.072351 22.0192714,253.729238 L20.3786441,245.204515 C20.3041845,244.81532 20.5597621,244.439649 20.9506752,244.365517 C21.3425944,244.290383 21.7184143,244.54634 21.793377,244.934533 L23.4340043,253.459256 C23.5089671,253.84795 23.2528863,254.224122 22.8619733,254.298755 C22.8161907,254.30727 22.7704081,254.311277 22.7256317,254.311277" id="Fill-9" fill="#334F5C"></path>
                        <path d="M26.6079969,250.16863 C26.5929037,250.16863 26.5768043,250.168129 26.5617112,250.167127 L17.0570404,249.565052 C16.6600901,249.539506 16.3582267,249.198898 16.3838851,248.803692 C16.4090404,248.408987 16.7506491,248.111957 17.1475994,248.133996 L26.6527733,248.736072 C27.0502267,248.761116 27.351587,249.101725 27.3264317,249.49693 C27.3017795,249.876608 26.984823,250.16863 26.6079969,250.16863" id="Fill-11" fill="#334F5C"></path>
                        <path d="M62.4709733,252.745531 C68.4478677,256.180665 67.3732342,261.234691 67.2786503,264.819091 C67.1840665,268.403993 46.0561472,281.703742 37.5290106,279.534369 C29.002377,277.364494 34.3076255,265.668107 43.1190168,258.027463 C51.9304081,250.38732 56.7400975,249.451148 62.4709733,252.745531" id="Fill-13" fill="#FFFFFF"></path>
                        <path d="M61.9732509,253.730691 C66.2989528,256.217131 66.7024435,259.847614 60.3467106,263.181066 C56.1925677,265.359456 50.9557416,264.238955 48.4382012,261.799599 C44.3957478,257.885109 48.9337602,255.140708 49.6003752,254.600744 C51.5312944,253.036952 55.974723,250.282533 61.9732509,253.730691" id="Fill-15" fill="#334F5C"></path>
                        <path d="M63.559241,248.375878 C63.7101727,255.060816 63.6789801,256.980243 63.559241,257.816737 C63.4395019,258.653231 58.970918,265.532515 50.7562099,261.282426 C42.5415019,257.031835 58.7983528,250.94697 58.7983528,250.94697 L63.559241,248.375878 Z" id="Fill-17" fill="#FFFFFF"></path>
                        <path d="M20.0204329,82.9867907 C16.3019795,82.9867907 13.2903894,81.3213166 11.7503832,78.4096172 C9.70324658,74.5402075 10.5378988,69.4591342 14.4560851,61.9367013 C16.7396814,57.5533739 19.3191037,53.8377388 19.4277745,53.6819606 C21.2414702,51.0778104 24.8316317,50.4321574 27.4452652,52.2368801 C30.059905,54.0421038 30.7099174,57.6164866 28.8962217,60.2191342 C26.9175075,63.06722 25.0615509,66.313517 23.8083149,68.9822826 C25.0087248,67.7946619 26.495905,66.0500465 28.273377,63.4879714 C32.0773584,58.0026762 35.4803646,51.2686512 37.7322652,46.8126941 C38.2952404,45.6987048 38.7902963,44.7209589 39.2068677,43.9260394 C40.6789547,41.1175242 44.1584329,40.0275778 46.9798491,41.4936959 C49.8007621,42.9588122 50.8945137,46.4234991 49.4229298,49.2320143 C49.0274888,49.9858605 48.5596006,50.913517 48.0258056,51.9689016 C40.4560789,66.9461467 31.4308677,82.9296887 20.0833211,82.9867907 L20.0204329,82.9867907 Z" id="Fill-19" fill="#F0C9A4"></path>
                        <path d="M57.3416609,254.698719 C57.1605429,254.698719 56.9789217,254.69371 56.7957913,254.684193 C51.2354683,254.389166 46.9686298,249.661725 47.264959,244.12634 C47.2906174,243.630955 49.9163255,194.391528 49.9163255,176.324766 C49.9163255,162.71346 51.3406174,144.090204 52.172754,134.380365 L49.0816733,132.603692 C44.5884373,145.245767 39.0331453,163.223871 39.0331453,173.250275 C39.0331453,190.985946 43.6843565,229.497216 43.7311453,229.883406 C44.3992696,235.387234 40.4594497,240.388665 34.9313255,241.053853 C29.4052137,241.713531 24.3796919,237.796537 23.7115677,232.293209 C23.5143503,230.6638 18.8686733,192.182082 18.8686733,173.250275 C18.8686733,153.331206 32.8736236,118.177431 34.4704807,114.234891 C35.5622199,111.538576 37.7743752,109.44634 40.5354186,108.498648 C43.295959,107.551456 46.3337106,107.842476 48.8623193,109.295571 L67.8309093,120.199041 C71.2510211,122.165052 73.2035739,125.938791 72.8257416,129.853281 C72.7980708,130.137288 70.0807975,158.483406 70.0807975,176.324766 C70.0807975,194.923979 67.5104311,243.150597 67.4002509,245.194748 C67.1139839,250.548308 62.6635118,254.698719 57.3416609,254.698719" id="Fill-21" fill="#334F5C"></path>
                        <path d="M76.8880677,57.3844723 C86.7308255,80.1461181 75.8395957,123.433417 73.6747323,131.320501 C71.9334839,137.663327 46.5653907,124.881503 36.6954652,119.631628 C34.4475894,118.436494 33.2899435,115.890948 33.8700242,113.419535 C35.1730677,107.870125 35.7727696,97.7054741 36.9887758,81.7369589 C37.6262106,73.3715206 39.2527509,47.6931664 42.1742851,40.2248301 C45.9083348,30.6797853 66.292664,32.8827191 76.8880677,57.3844723" id="Fill-23" fill="#E3584E"></path>
                        <path d="M77.0207366,63.0620608 C77.922805,73.3469267 72.896277,100.186354 63.9923143,109.268572 C55.0873453,118.350791 43.6532646,116.034655 34.6018919,109.357732 L35.5276062,100.734834 L55.900364,100.734834 L68.1862025,82.0705045 L77.0207366,63.0620608 Z" id="Fill-25" fill="#BC4542"></path>
                        <path d="M47.0540068,108.843013 C38.683336,108.843013 29.3844354,102.836286 18.1289571,90.2432987 C16.2780317,88.1721002 16.4636776,84.9994347 18.5440193,83.1571449 C20.6243609,81.3138533 23.8110317,81.4991843 25.661454,83.5698819 C37.9860317,97.3590054 44.8554354,99.3901324 48.4521373,98.665839 C55.5952304,97.2272701 60.5005099,82.8706333 64.8277211,70.2050161 C65.5169758,68.1869123 66.2057273,66.1713131 66.9065534,64.1892737 C67.8302553,61.5741038 70.707013,60.2011521 73.3347335,61.1202934 C75.9609447,62.0399356 77.3414665,64.9055528 76.4172615,67.5202218 C75.7285099,69.469703 75.0508267,71.4527442 74.3726404,73.4377889 C68.9164602,89.4078068 63.2741311,105.921295 50.451982,108.504408 C49.3345845,108.729309 48.2031,108.843013 47.0540068,108.843013" id="Fill-27" fill="#F0C9A4"></path>
                        <path d="M59.3413043,85.0138605 C60.8083602,83.7005152 68.2060248,85.6259535 68.1230124,90.2086369 C68.1230124,90.2086369 79.4816273,65.8546476 76.5465093,61.1252021 C72.2172857,54.1482433 67.635,62.2597281 67.2350311,63.1362934 C66.8355652,64.0123578 59.3413043,85.0138605 59.3413043,85.0138605" id="Fill-29" fill="#E3584E"></path>
                        <path d="M27.6805174,64.2785832 C32.3317286,63.9600143 36.3756913,71.0762218 35.7805174,72.7617317 C35.7805174,72.7617317 55.0685795,52.0993345 49.0217534,39.8865259 C45.3802752,32.5308909 40.3175236,40.3067764 37.5735857,46.5789767 C36.1432565,49.847814 27.6805174,64.2785832 27.6805174,64.2785832" id="Fill-31" fill="#E3584E"></path>
                        <path d="M24.1568161,62.6873918 C23.1289714,62.6873918 22.0895553,62.4144043 21.149754,61.8403792 C18.4375118,60.1834204 17.5867602,56.6521145 19.2510335,53.9512916 L30.9286174,34.9974454 C32.5928907,32.2966225 36.1407913,31.4506118 38.8520273,33.1070698 C41.5647727,34.7630268 42.414518,38.2953345 40.7507478,40.9956565 L29.073164,59.9500036 C27.9859528,61.7146547 26.0942758,62.6873918 24.1568161,62.6873918" id="Fill-33" fill="#F0C9A4"></path>
                        <path d="M56.6980379,35.7249445 C60.400895,37.4700608 62.2100627,43.6120286 56.7322491,47.8541038 C51.2514168,52.0991843 40.4738888,45.8620465 46.8220752,38.0085224 C50.3317398,33.6667692 54.406895,34.6450161 56.6980379,35.7249445" id="Fill-35" fill="#BFA086"></path>
                        <path d="M34.3137634,19.4204293 C34.1844652,19.7129517 34.2508752,20.0255098 34.4621795,20.1181753 C34.673987,20.2108408 34.9501919,20.048551 35.078987,19.7555277 C35.2087882,19.4630054 35.1418752,19.1504472 34.9310739,19.0577818 C34.7192665,18.9651163 34.4430615,19.127907 34.3137634,19.4204293" id="Fill-37" fill="#7094D7"></path>
                        <path d="M51.8074994,47.8002075 C49.1113565,47.8002075 46.7029901,45.9063256 46.1611453,43.1734454 L43.7749155,31.1284365 C43.1596174,28.0203864 45.1911578,25.0034991 48.3124248,24.3904043 C51.4326857,23.7773095 54.4644,25.7994204 55.0796981,28.9079714 L57.465928,40.9529803 C58.0822323,44.0610304 56.0506919,47.0779177 52.9289217,47.6905116 C52.5520957,47.764644 52.177282,47.8002075 51.8074994,47.8002075" id="Fill-39" fill="#F0C9A4"></path>
                        <path d="M31.4218621,20.4300322 C31.4218621,10.7522504 39.3015019,2.9072415 49.0215019,2.9072415 C58.7425081,2.9072415 66.6221478,10.7522504 66.6221478,20.4300322 C66.6221478,30.1073131 58.7425081,37.9528229 49.0215019,37.9528229 C39.3015019,37.9528229 31.4218621,30.1073131 31.4218621,20.4300322" id="Fill-41" fill="#F0C9A4"></path>
                        <g id="Group-45" transform="translate(28.173913, 0.272987)">
                            <mask id="mask-2" fill="white">
                                <use xlink:href="#path-1"></use>
                            </mask>
                            <g id="Clip-44"></g>
                            <path d="M41.5640683,18.5120072 C41.5640683,17.4441002 41.0649876,16.4939034 40.2881925,15.8747979 C40.3415217,15.6363721 40.3722112,15.3894311 40.3722112,15.1349767 C40.3722112,13.7645295 39.5511429,12.5874275 38.3728696,12.0579821 C38.6661801,11.5585903 38.8367329,10.9795564 38.8367329,10.359449 C38.8367329,8.49411807 37.3183602,6.9824186 35.444795,6.9824186 C35.444795,5.11708766 33.9259193,3.6048873 32.0528571,3.6048873 C31.6855901,3.6048873 31.3334161,3.66499463 31.0023727,3.77218605 C30.5078199,2.51644365 29.2827578,1.6263542 27.8463913,1.6263542 C27.3880621,1.6263542 26.9518696,1.71801789 26.5534099,1.88181038 C25.9612547,0.892543828 24.8800807,0.227856887 23.6399255,0.227856887 C23.0216087,0.227856887 22.4430373,0.39565653 21.9439565,0.683169946 C21.4448758,0.39565653 20.8663043,0.227856887 20.2479876,0.227856887 C18.8911118,0.227856887 17.7234037,1.02327728 17.1810559,2.16932379 C16.6502795,1.82671199 16.0193851,1.6263542 15.3401925,1.6263542 C14.4280621,1.6263542 13.6024658,1.98599642 12.9927019,2.56903757 C12.6636708,2.46284794 12.3125031,2.40424329 11.9482547,2.40424329 C10.3111491,2.40424329 8.94521739,3.55830411 8.62624845,5.09404651 C8.3787205,5.03694454 8.12113043,5.00338462 7.85599379,5.00338462 C5.98242857,5.00338462 4.4640559,6.51558497 4.4640559,8.38041503 C4.4640559,8.49211449 4.47009317,8.60181038 4.48065839,8.71050447 C3.33659627,9.25297317 2.54319876,10.411542 2.54319876,11.7579463 C2.54319876,12.3264615 2.68608075,12.8614168 2.93562112,13.3317567 C1.34329193,13.6092522 0.131813665,14.9897174 0.131813665,16.6546905 C0.131813665,17.4486082 0.409024845,18.1774097 0.86936646,18.7539392 C0.409024845,19.3304687 0.131813665,20.0587692 0.131813665,20.8531878 C0.131813665,22.5537245 1.39611801,23.9572308 3.03976398,24.1916494 C3.53230435,24.9975886 4.35186335,25.5811306 5.31681988,25.7584472 C6.37132919,26.7296816 7.77750932,27.3282504 9.32757764,27.3282504 C10.1310373,27.3282504 10.8972671,27.1669624 11.5960807,26.8779463 C12.4292236,28.0430268 13.7941491,28.8058891 15.3401925,28.8058891 C16.104913,28.8058891 16.824354,28.6170519 17.4592733,28.2879642 C18.0715528,29.1675349 19.0913478,29.7450662 20.2479876,29.7450662 C21.5948012,29.7450662 22.7549627,28.9611664 23.3023416,27.8291449 C23.7626832,28.061059 24.2813851,28.1952987 24.8332919,28.1952987 C26.5861118,28.1952987 28.0285155,26.8709338 28.2061118,25.1724007 C28.3550311,25.1924365 28.5059627,25.2064615 28.6609193,25.2064615 C29.4568323,25.2064615 30.1873416,24.9314705 30.7654099,24.4741538 C31.2081429,24.6469624 31.6876025,24.7802004 32.176118,24.8227764 C32.1514658,24.9855671 32.1353665,25.1508623 32.1353665,25.3206655 C32.1353665,26.082025 32.3914472,26.7822755 32.8180807,27.3467835 C32.747646,27.6182683 32.7058882,27.9017746 32.7058882,28.1952987 C32.7058882,30.0601288 34.2242609,31.5723292 36.0978261,31.5723292 C37.9713913,31.5723292 39.4902671,30.0601288 39.4902671,28.1952987 C39.4902671,27.4334383 39.2336832,26.7336887 38.8070497,26.1691807 C38.8437764,26.0289302 38.8719503,25.8861753 38.8905652,25.7399141 C40.4184969,25.4113274 41.5640683,24.0594132 41.5640683,22.4400215 C41.5640683,21.7062111 41.3266025,21.0295027 40.9276398,20.4760143 C41.3266025,19.922025 41.5640683,19.2453166 41.5640683,18.5120072" id="Fill-43" fill="#E79D70" mask="url(#mask-2)"></path>
                        </g>
                        <path d="M62.153564,26.6408229 C62.153564,24.7754919 60.6346882,23.2637925 58.7616261,23.2637925 C56.8880609,23.2637925 55.3696882,24.7754919 55.3696882,26.6408229 C55.3696882,28.5061538 56.8880609,30.0178533 58.7616261,30.0178533 C60.6346882,30.0178533 62.153564,28.5061538 62.153564,26.6408229" id="Fill-46" fill="#F0C9A4"></path>
                        <path d="M20.0671211,79.4370018 L20.0610839,79.4415098 L20.0671211,79.4370018 Z M20.0605807,79.4420107 C20.0580652,79.4435134 20.0560528,79.445517 20.0540404,79.4475206 C20.0560528,79.445517 20.0580652,79.4435134 20.0605807,79.4420107 Z M20.7473199,91.3182182 C19.3738416,91.3182182 17.9958354,90.8318497 16.8945373,89.8445868 C16.4538168,89.4498819 16.0312081,89.0752129 15.6282205,88.7190769 C11.6084068,85.1602218 7.0517795,81.125517 9.50794099,75.0952487 C10.6364068,72.3258032 12.5029286,70.7544973 13.0477919,70.3387549 C15.5748913,68.4128157 19.1907112,68.8901682 21.1256553,71.4056601 C22.7144627,73.4718497 22.6747174,76.270347 21.2091708,78.2709195 C21.8305062,78.8584687 22.6027733,79.5421896 23.2854876,80.1462683 C23.7040714,80.5174311 24.1447919,80.9076279 24.6041273,81.3188623 C26.9692267,83.4381467 27.1599037,87.0651234 25.031264,89.4198283 C23.8932391,90.6775742 22.3230466,91.3182182 20.7473199,91.3182182 Z" id="Fill-48" fill="#F0C9A4"></path>
                        <path d="M56.7702335,26.6408229 C56.7702335,25.5458676 57.6617366,24.6582826 58.7615255,24.6582826 C59.8618174,24.6582826 60.7533205,25.5458676 60.7533205,26.6408229 C60.7533205,27.7362791 59.8618174,28.623864 58.7615255,28.623864 C57.6617366,28.623864 56.7702335,27.7362791 56.7702335,26.6408229" id="Fill-50" fill="#BFA086"></path>
                        <g id="Group-54" transform="translate(33.204969, 262.240787)">
                            <mask id="mask-4" fill="white">
                                <use xlink:href="#path-3"></use>
                            </mask>
                            <g id="Clip-53"></g>
                            <path d="M6.22874907,15.691771 C18.3042894,14.5332021 30.1846248,4.81384615 34.1777739,0.416994633 C34.1440658,1.17584973 34.0917429,1.90314848 34.0741342,2.5783542 C33.9790472,6.16325581 12.851128,19.4630054 4.3239913,17.2936315 C0.830929193,16.4050447 -0.338288199,13.9161002 0.101426087,10.7634705 C0.100922981,11.0489803 0.139159006,16.275814 6.22874907,15.691771" id="Fill-52" fill="#334F5C" mask="url(#mask-4)"></path>
                        </g>
                        <path d="M45.9544696,269.806748 C45.6158795,269.806748 45.3145193,269.567821 45.2481093,269.224708 L43.607482,260.699986 C43.5330224,260.311292 43.7886,259.93512 44.179513,259.860987 C44.5709292,259.784351 44.9472522,260.041309 45.0222149,260.430004 L46.6623391,268.954726 C46.7373019,269.343921 46.4817242,269.719592 46.0908112,269.794225 C46.0450286,269.802741 45.999246,269.806748 45.9544696,269.806748" id="Fill-55" fill="#334F5C"></path>
                        <path d="M49.8363317,265.663599 C49.8212385,265.663599 49.8056422,265.663098 49.7905491,265.662097 L40.2853752,265.060021 C39.8879217,265.034977 39.5865615,264.693868 39.6117168,264.298662 C39.6373752,263.903456 39.984518,263.602919 40.3759342,263.628966 L49.8816112,264.231041 C50.2790646,264.256086 50.5804248,264.596694 50.5547665,264.9919 C50.5306174,265.371578 50.2136609,265.663599 49.8363317,265.663599" id="Fill-57" fill="#334F5C"></path>
                        <path d="M1.13581118,42.2866619 C1.33805963,40.7514204 1.56395404,39.2241932 1.8663205,37.7054812 C2.14655031,36.2994705 2.46350683,34.8984687 2.81517764,33.5034776 L2.88158758,33.2380036 C3.42242609,31.1227263 4.04225217,29.0244794 4.7380472,26.9517782 L4.82156273,26.7018318 C5.53999752,24.5755349 6.33741988,22.4777889 7.20477391,20.4201145 C7.83617143,18.9234419 8.4640472,17.2805081 9.44258758,15.9636565 C10.1650472,14.9904186 11.3176621,15.2714204 12.231805,15.8153918 C12.3102894,15.8624758 12.3877677,15.9110626 12.4642398,15.9611521 L12.3278981,16.1720286 C11.4529975,17.5294526 10.8749292,19.1142826 10.2772398,20.6039428 C9.46623354,22.6210447 8.71258137,24.6616887 7.98559379,26.710347 C7.50361863,28.0717782 7.00755652,29.4372165 6.60205342,30.8231914 C5.95053168,33.0551771 5.41573043,35.3262326 4.90407205,37.5937818 C4.32650683,40.1558569 3.73334534,42.756 3.47525217,45.3751771 L3.44808447,45.6641932 C3.20407826,45.7147835 2.95956894,45.750347 2.71757516,45.7568587 C2.31458758,45.7683792 1.90807826,45.6666977 1.60923354,45.3866977 C0.805270807,44.635356 1.01053789,43.2468766 1.13581118,42.2866619" id="Fill-59" fill="#99A7AD"></path>
                        <path d="M3.47545342,45.3752272 C3.73354658,42.7560501 4.32620497,40.155907 4.90427329,37.5938318 C5.41542857,35.3262826 5.95073292,33.0552272 6.60225466,30.8232415 C7.00775776,29.4372665 7.50381988,28.0718283 7.98579503,26.7103971 C8.7122795,24.6617388 9.46593168,22.6210948 10.277441,20.6039928 C10.8751304,19.1143327 11.4526957,17.5295027 12.3280994,16.1720787 L12.4639379,15.9612021 C13.4575714,16.6088587 14.2715963,17.4989481 15.089646,18.3464615 C19.1557453,22.5559785 23.3858571,26.7940465 28.5602981,29.6501467 C29.2103106,30.0077853 29.874913,30.3388766 30.5520932,30.6409159 L30.4851801,30.891864 C29.5589627,34.6225259 28.4923789,38.3151199 27.392087,41.9981968 L27.3156149,42.2451377 C24.1606398,41.8283936 20.9684348,41.6811306 17.8028944,42.0758354 C15.0021056,42.424458 12.283323,43.1903256 9.57862733,43.966712 C8.02503727,44.4130089 6.4709441,44.8593059 4.90729193,45.2690376 C4.43537888,45.3932594 3.94283851,45.561059 3.44778261,45.6642433 L3.47545342,45.3752272 Z" id="Fill-61" fill="#F2F2F2"></path>
                        <path d="M27.315464,42.2453381 C27.4502963,42.2633703 27.5846255,42.2804007 27.7194578,42.2994347 C28.1772839,42.4196494 28.6351099,42.5348551 29.0939422,42.6480572 L29.3459981,42.7086655 C31.2477373,43.1709911 33.1650727,43.5707048 35.0934764,43.9053023 L35.3500602,43.9498819 C35.3596193,43.9518855 35.3686752,43.9538891 35.3782342,43.9548909 C35.8058739,44.0275206 36.3426876,44.2038354 36.7803894,44.1146762 C37.1380975,44.0420465 37.3705323,43.7400072 37.5944143,43.4775385 C38.2187683,42.7457317 38.7616193,41.9437996 39.2078739,41.09278 C40.0797559,39.4323148 40.6009733,37.5910268 40.7081348,35.7186834 C40.7549236,34.9032272 40.7997,33.9710626 40.1169857,33.3910268 C39.4362839,32.8119928 38.3868056,32.6697388 37.5536627,32.4443363 C35.2705696,31.8247299 32.9774143,31.2436923 30.6757062,30.6967156 C30.6344516,30.6786834 30.5937,30.6591485 30.5524453,30.6411163 L30.4850292,30.8920644 C29.5588118,34.6227263 28.492228,38.3153202 27.391936,41.9983971 L27.315464,42.2453381 Z" id="Fill-63" fill="#99A7AD"></path>
                        <g id="Group-67" transform="translate(0.000000, 26.319499)">
                            <mask id="mask-6" fill="white">
                                <use xlink:href="#path-5"></use>
                            </mask>
                            <g id="Clip-66"></g>
                            <path d="M0.466630435,2.21901252 C0.141624224,3.07654383 -0.267400621,4.14895886 0.236208075,5.01600716 C0.759437888,5.91962075 1.99556832,6.32534526 2.82468634,6.88284079 C2.83676087,6.8903542 2.86845652,6.90788551 2.88153727,6.91840429 C3.42187267,4.80312701 4.04220186,2.70488014 4.73799689,0.632178891 C3.9551646,0.560550984 3.17333851,0.45436136 2.38648137,0.443341682 C2.0026118,0.437330948 1.65798447,0.421302326 1.36417081,0.693288014 C0.919928571,1.10452236 0.676928571,1.66452236 0.466630435,2.21901252" id="Fill-65" fill="#F2F2F2" mask="url(#mask-6)"></path>
                        </g>
                        <g id="Group-70" transform="translate(0.000000, 28.823971)">
                            <mask id="mask-8" fill="white">
                                <use xlink:href="#path-7"></use>
                            </mask>
                            <g id="Clip-69"></g>
                            <path d="M3.10843789,3.54633274 C3.03146273,3.83534884 2.95549379,4.12436494 2.88153727,4.41388193 C2.86845652,4.40336315 2.83676087,4.38583184 2.82518944,4.37831843 C1.99556832,3.8208229 0.759437888,3.41509839 0.236208075,2.51198569 C-0.190425466,1.77667263 0.037984472,0.896100179 0.315698758,0.122218247 C0.532537267,1.90940966 1.95330745,2.97080501 3.10843789,3.54633274" id="Fill-68" fill="#E6E6E6" mask="url(#mask-8)"></path>
                        </g>
                        <g id="Group-75" transform="translate(33.204969, 33.832916)" fill="#E6E6E6">
                            <path d="M0.722107453,0.507957066 C1.1764118,-0.0505402504 2.50209503,0.58259034 2.99312609,0.744379249 C3.46151739,0.876615385 4.16586522,1.01836852 4.50445528,1.41207156 C4.73588385,1.68055098 4.65991491,2.10530948 4.26598323,2.16040787 C4.05316957,2.19046154 3.79306398,2.0947907 3.58980932,2.0492093 C3.14103913,1.94953131 2.69327516,1.83532737 2.25305776,1.70359213 C1.93509503,1.60892308 0.205921118,1.14409302 0.722107453,0.507957066" id="Fill-71"></path>
                            <path d="M2.16954224,2.57805367 C2.6525236,2.73683721 3.15462298,2.85605009 3.62653602,3.04939535 C3.88764783,3.15808945 4.0919087,3.27129159 4.11706398,3.57633631 C4.1915236,4.48445796 2.72195217,3.89189982 2.31997081,3.77068336 C1.82239938,3.62141682 1.3117472,3.46563864 0.828262733,3.27630054 C0.558095031,3.16961002 0.231076398,3.01583542 0.167181988,2.69977102 C-0.0265136646,1.74155993 1.86214472,2.47236494 2.16954224,2.57805367" id="Fill-73"></path>
                        </g>
                    </g>
                </g>
            </g>
        </g>
    </g>
</svg>