<?xml version="1.0" encoding="UTF-8"?>
<svg width="18px" height="18px" viewBox="0 0 18 18" version="1.1" xmlns="http://www.w3.org/2000/svg" xmlns:xlink="http://www.w3.org/1999/xlink">
    <!-- Generator: sketchtool 51.1 (57501) - http://www.bohemiancoding.com/sketch -->
    <title>8146D120-FDFA-40F4-ACBD-FF4E367CED89</title>
    <desc>Created with sketchtool.</desc>
    <defs></defs>
    <g id="Page-1" stroke="none" stroke-width="1" fill="none" fill-rule="evenodd">
        <g id="Homepage" transform="translate(-500.000000, -65.000000)" fill="#FFFFFF" fill-rule="nonzero">
            <g id="Group-2" transform="translate(500.000000, 65.000000)">
                <g id="icon">
                    <path d="M9,-6.48081849e-17 C8.72952306,-0.00382521716 8.47793898,0.138281472 8.34158421,0.371904637 C8.20522944,0.605527802 8.20522944,0.894472198 8.34158421,1.12809536 C8.47793898,1.36171853 8.72952306,1.50382522 9,1.5 C12.7369448,1.5 15.75,4.5130551 15.75,8.25 C15.7461748,8.52047694 15.8882815,8.77206102 16.1219046,8.90841579 C16.3555278,9.04477056 16.6444722,9.04477056 16.8780954,8.90841579 C17.1117185,8.77206102 17.2538252,8.52047694 17.25,8.25 C17.25,3.7024449 13.5475553,-6.48081849e-17 9,-6.48081849e-17 Z M2.8037109,1.50292965 C2.70964455,1.4951367 2.61387893,1.50292965 2.51806643,1.52636715 C2.14606643,1.61711723 1.6634766,1.8375 1.1572266,2.34375 C-0.4275234,3.9285 -1.26832035,6.6000705 4.6904295,12.5595705 C10.6491795,18.5190705 13.32075,17.6782733 14.90625,16.0927733 C15.414,15.5850233 15.6343478,15.101754 15.7250978,14.729004 C15.8173478,14.347254 15.6524768,13.9543477 15.3134768,13.7563477 C14.4674768,13.2613478 12.6416723,12.1910625 11.7949215,11.6953125 C11.5166723,11.5325625 11.1751875,11.5354567 10.8984375,11.6997068 L9.4980465,12.5346682 C9.18454725,12.7214183 8.792883,12.7003245 8.504883,12.4760745 C8.007633,12.0875745 7.20798075,11.4333045 6.51123075,10.7373045 C5.81448075,10.0405545 5.16021075,9.24090225 4.77246075,8.74365225 C4.54821075,8.45640225 4.526367,8.063988 4.713867,7.750488 L5.5488285,6.35009775 C5.7138285,6.07334775 5.714508,5.7289335 5.551758,5.4506835 L3.49511715,1.93945312 C3.34549215,1.68520312 3.08591018,1.52630857 2.8037109,1.50292965 Z M9,3 C8.72952306,2.99617478 8.47793898,3.13828147 8.34158421,3.37190464 C8.20522944,3.6055278 8.20522944,3.8944722 8.34158421,4.12809536 C8.47793898,4.36171853 8.72952306,4.50382522 9,4.5 C11.0802495,4.5 12.75,6.1697505 12.75,8.25 C12.7461748,8.52047694 12.8882815,8.77206102 13.1219046,8.90841579 C13.3555278,9.04477056 13.6444722,9.04477056 13.8780954,8.90841579 C14.1117185,8.77206102 14.2538252,8.52047694 14.25,8.25 C14.25,5.3592495 11.8907505,3 9,3 Z M9,6 C8.72952306,5.99617478 8.47793898,6.13828147 8.34158421,6.37190464 C8.20522944,6.6055278 8.20522944,6.8944722 8.34158421,7.12809536 C8.47793898,7.36171853 8.72952306,7.50382522 9,7.5 C9.4237725,7.5 9.75,7.8262275 9.75,8.25 C9.74617478,8.52047694 9.88828147,8.77206102 10.1219046,8.90841579 C10.3555278,9.04477056 10.6444722,9.04477056 10.8780954,8.90841579 C11.1117185,8.77206102 11.2538252,8.52047694 11.25,8.25 C11.25,7.0162725 10.2337275,6 9,6 Z" id="Shape"></path>
                </g>
            </g>
        </g>
    </g>
</svg>