<svg xmlns="http://www.w3.org/2000/svg" width="2858.795" height="2858.794"><g data-name="Group 60" transform="rotate(-83 1021.228 1292.067)" opacity=".57"><g data-name="Ellipse 48" transform="translate(204.301 983.565)" fill="none" stroke="#fff" stroke-width="2"><circle cx="730.365" cy="730.365" r="730.365" stroke="none"/><circle cx="730.365" cy="730.365" r="729.365"/></g><g data-name="Ellipse 49" transform="translate(525.339 1304.604)" fill="none" stroke="#fff" stroke-width="2"><circle cx="409.326" cy="409.326" r="409.326" stroke="none"/><circle cx="409.326" cy="409.326" r="408.326"/></g><g data-name="Ellipse 50" transform="translate(-347.978 431.287)" fill="none" stroke="#fff" stroke-width="2" opacity=".55"><circle cx="1282.643" cy="1282.643" r="1282.643" stroke="none"/><circle cx="1282.643" cy="1282.643" r="1281.643"/></g><circle data-name="Ellipse 53" cx="12.722" cy="12.722" r="12.722" transform="translate(1244.808 1449.48)" fill="#fff"/><circle data-name="Ellipse 55" cx="12.722" cy="12.722" r="12.722" transform="translate(559.54 1887.677)" fill="#fff"/><circle data-name="Ellipse 54" cx="12.722" cy="12.722" r="12.722" transform="translate(1303.401 2322.602)" fill="#fff"/><circle data-name="Ellipse 57" cx="12.722" cy="12.722" r="12.722" transform="translate(324.146 1283.439)" fill="#fff"/><circle data-name="Ellipse 56" cx="12.722" cy="12.722" r="12.722" transform="translate(2203.476 1724.809)" fill="#fff"/><circle data-name="Ellipse 58" cx="12.722" cy="12.722" r="12.722" transform="translate(1822.848 790.707)" fill="#fff"/><circle data-name="Ellipse 59" cx="12.722" cy="12.722" r="12.722" transform="translate(762.403 429.627)" fill="#fff"/><circle data-name="Ellipse 60" cx="12.722" cy="12.722" r="12.722" transform="translate(16.513 796.782)" fill="#fff"/><circle data-name="Ellipse 61" cx="12.722" cy="12.722" r="12.722" transform="translate(-327.651 1418.162)" fill="#fff"/><circle data-name="Ellipse 62" cx="12.722" cy="12.722" r="12.722" transform="translate(-274.134 2161.701)" fill="#fff"/><circle data-name="Ellipse 63" cx="12.722" cy="12.722" r="12.722" transform="translate(641.694 2951.708)" fill="#fff"/><circle data-name="Ellipse 64" cx="12.722" cy="12.722" r="12.722" transform="translate(437.909 2245.874)" fill="#fff"/><circle data-name="Ellipse 65" cx="12.722" cy="12.722" r="12.722" transform="translate(1528.401 1294.903)" fill="#fff"/></g></svg>