<svg xmlns="http://www.w3.org/2000/svg" viewBox="0 0 1903 1913"><defs><style>.cls-2,.cls-7{fill:none}.cls-2{stroke:#fff;stroke-width:2px}.cls-5{fill:#fff}.cls-6{stroke:none}</style></defs><g id="Group_60" data-name="Group 60" transform="translate(399 -375)" opacity=".57"><g id="Ellipse_48" data-name="Ellipse 48" class="cls-2" transform="translate(380 1158)"><circle class="cls-6" cx="172.5" cy="172.5" r="172.5"/><circle class="cls-7" cx="172.5" cy="172.5" r="171.5"/></g><g id="Ellipse_49" data-name="Ellipse 49" class="cls-2" transform="translate(228 1006)"><circle class="cls-6" cx="324.5" cy="324.5" r="324.5"/><circle class="cls-7" cx="324.5" cy="324.5" r="323.5"/></g><g id="Ellipse_50" data-name="Ellipse 50" transform="translate(-32 746)" opacity=".55" stroke="#fff" stroke-width="2" fill="none"><circle class="cls-6" cx="584.5" cy="584.5" r="584.5"/><circle class="cls-7" cx="584.5" cy="584.5" r="583.5"/></g><g id="Ellipse_51" data-name="Ellipse 51" transform="translate(-399 379)" opacity=".42" stroke="#fff" stroke-width="2" fill="none"><circle class="cls-6" cx="951.5" cy="951.5" r="951.5"/><circle class="cls-7" cx="951.5" cy="951.5" r="950.5"/></g><circle id="Ellipse_52" data-name="Ellipse 52" class="cls-5" cx="9" cy="9" r="9" transform="translate(690 1409)"/><circle id="Ellipse_53" data-name="Ellipse 53" class="cls-5" cx="9" cy="9" r="9" transform="translate(792 1113)"/><circle id="Ellipse_55" data-name="Ellipse 55" class="cls-5" cx="9" cy="9" r="9" transform="translate(221 1297)"/><circle id="Ellipse_54" data-name="Ellipse 54" class="cls-5" cx="9" cy="9" r="9" transform="translate(991 1697)"/><circle id="Ellipse_57" data-name="Ellipse 57" class="cls-5" cx="9" cy="9" r="9" transform="translate(52 1006)"/><circle id="Ellipse_56" data-name="Ellipse 56" class="cls-5" cx="9" cy="9" r="9" transform="translate(1461 1073)"/><circle id="Ellipse_67" data-name="Ellipse 67" class="cls-5" cx="9" cy="9" r="9" transform="translate(1391 1751)"/><circle id="Ellipse_58" data-name="Ellipse 58" class="cls-5" cx="9" cy="9" r="9" transform="translate(1094 546)"/><circle id="Ellipse_59" data-name="Ellipse 59" class="cls-5" cx="9" cy="9" r="9" transform="translate(455 375)"/><circle id="Ellipse_60" data-name="Ellipse 60" class="cls-5" cx="9" cy="9" r="9" transform="translate(-132 653)"/><circle id="Ellipse_61" data-name="Ellipse 61" class="cls-5" cx="9" cy="9" r="9" transform="translate(-390 1145)"/><circle id="Ellipse_62" data-name="Ellipse 62" class="cls-5" cx="9" cy="9" r="9" transform="translate(-305 1750)"/><circle id="Ellipse_63" data-name="Ellipse 63" class="cls-5" cx="9" cy="9" r="9" transform="translate(96 2160)"/><circle id="Ellipse_66" data-name="Ellipse 66" class="cls-5" cx="9" cy="9" r="9" transform="translate(485 2270)"/><circle id="Ellipse_64" data-name="Ellipse 64" class="cls-5" cx="9" cy="9" r="9" transform="translate(182 1778)"/><circle id="Ellipse_65" data-name="Ellipse 65" class="cls-5" cx="9" cy="9" r="9" transform="translate(856 829)"/></g></svg>