<svg xmlns="http://www.w3.org/2000/svg" width="177" height="45.891"><path d="M0 38.694C.946 31.051 2.144 7.113 2.522 0H14.1c.3 2.447 2.964 11.792 3.948 17.745h.088C21.315 6.205 23.181 3.292 23.925 0h11.793c-.252 4.162-.769 16.812-.769 28.6h-7.807c.177-2.522.643-9.648.605-20.28h-.088c-2.059 6.651-4.415 13.423-6.647 20.28h-7.681C11.225 18.1 9.547 13.041 8.74 8.425h-.075C8.021 14.3 7.4 35.112 7.4 38.694zm45.971-18.262c0 2.9 2.409 3.935 4.868 3.935a24.241 24.241 0 0 0 6.5-1.261l-.9 5.2a31.593 31.593 0 0 1-6.457.706c-5.9 0-11.061-1.778-11.061-9.093 0-1.968.782-10.317 10.657-10.317 6.092 0 9.434 2.863 9.434 8.021a14.114 14.114 0 0 1-.265 2.787zm6.205-3.38c0-2.157-.9-3.267-2.674-3.267a3.431 3.431 0 0 0-3.3 3.267zm23.054 9.282h-.076a8.173 8.173 0 0 1-6.306 2.712c-4.906 0-7.87-3.784-7.87-8.463 0-5.348 2.939-10.947 11.137-10.947a28.856 28.856 0 0 1 3.557.252c.114-2.005.151-4.011.189-6.054h7.315c-.3 3.859-.631 7.5-.858 11.439s-.479 8.135-.479 13.331h-6.721zm-1.663-11.84a5.335 5.335 0 0 0-5.575 5.688c0 2.005 1.072 3.784 3.3 3.784 4.011 0 4.049-5.789 4.086-9.283a7.4 7.4 0 0 0-1.811-.189zm12.839 14.111a175.87 175.87 0 0 0 .971-18.515h7.429a181.613 181.613 0 0 0-.668 18.527zm1.148-20.824l.075-4.376h7.2l-.233 4.364zm19.827 7.151c-.113 2.081-.265 3.784-.265 6.23 0 1.413.3 2.522 1.854 2.522a10.241 10.241 0 0 0 2.6-.4l-.933 5.121a19.6 19.6 0 0 1-4.868.593c-3.569 0-5.94-.971-5.94-4.931 0-2.939.4-5.865.517-9.169h-2.765l.189-4.805h3l.227-3.342 6.76-1.526-.189 4.868h4.162l-.151 4.868zm13.293 5.5c0 2.9 2.409 3.935 4.868 3.935a24.241 24.241 0 0 0 6.5-1.261l-.87 5.234a31.593 31.593 0 0 1-6.457.706c-5.9 0-11.061-1.778-11.061-9.093 0-1.968.782-10.317 10.657-10.317 6.054-.013 9.384 2.85 9.384 8.021a14.114 14.114 0 0 1-.265 2.787zm6.205-3.38c0-2.157-.9-3.267-2.674-3.267a3.431 3.431 0 0 0-3.3 3.267zm25.2-1.224a14.731 14.731 0 0 0-4.717-.9 4.263 4.263 0 0 0-4.679 4.566c0 2.787 1.488 4.238 4.263 4.238a13.874 13.874 0 0 0 4.6-.9l-.9 5.537a23.232 23.232 0 0 1-5.537.668c-6.054 0-9.51-3.267-9.51-9.4 0-1.968.479-10.027 9.838-10.027a24.72 24.72 0 0 1 6.306.706zm11.59-12.044c-.151 1.375-.555 6.205-.668 8.765l.076.076c1.665-2.409 3.569-3.04 7.126-3.04s6.8 1.375 6.8 5.9c0 1-.517 8.425-.517 13.066h-7.315c.227-3.229.555-6.457.555-9.686 0-1.816-.555-3.494-2.712-3.494a3.784 3.784 0 0 0-3.67 3.04c-.631 1.968-.782 6.167-.933 10.09h-7.394c.517-4.641 1.261-15.778 1.261-24.758zM15.135 36.992h.984v6.911h-.984zm7.239 2.209a2.27 2.27 0 0 1 .593 1.69v3.01h-.947v-2.9a1.6 1.6 0 0 0-.366-1.148 1.375 1.375 0 0 0-1.047-.391 1.627 1.627 0 0 0-1.261.454 1.753 1.753 0 0 0-.441 1.261v2.7h-.945v-5.208h.96v.795a1.841 1.841 0 0 1 .769-.618 2.7 2.7 0 0 1 1.11-.214 2.157 2.157 0 0 1 1.577.568zm6.735-.001a2.27 2.27 0 0 1 .593 1.69v3.01h-.946V41a1.6 1.6 0 0 0-.366-1.148 1.375 1.375 0 0 0-1.047-.391 1.627 1.627 0 0 0-1.261.454 1.753 1.753 0 0 0-.441 1.261v2.7h-.921v-5.207h.908v.795a1.841 1.841 0 0 1 .769-.618 2.7 2.7 0 0 1 1.11-.214 2.157 2.157 0 0 1 1.602.568zm3.212 4.413a2.522 2.522 0 0 1-.971-.959 2.888 2.888 0 0 1 0-2.762 2.522 2.522 0 0 1 .971-.946 2.876 2.876 0 0 1 1.4-.341 2.838 2.838 0 0 1 1.4.341 2.522 2.522 0 0 1 .971.946 2.876 2.876 0 0 1 0 2.762 2.522 2.522 0 0 1-.971.959 3.048 3.048 0 0 1-2.8 0zm2.308-.732a1.64 1.64 0 0 0 .631-.656 2.157 2.157 0 0 0 .05-1.867 1.6 1.6 0 0 0-.631-.643 1.9 1.9 0 0 0-1.8 0 1.64 1.64 0 0 0-.631.643 2.119 2.119 0 0 0 0 1.93 1.677 1.677 0 0 0 .542.593 1.879 1.879 0 0 0 1.8 0zm7.609-4.212l-2.3 5.234h-.971l-2.3-5.234h.984l1.816 4.212 1.841-4.2zm4.289.429a2.056 2.056 0 0 1 .58 1.589v3.165h-.9v-.694a1.5 1.5 0 0 1-.681.555 2.522 2.522 0 0 1-1.047.189 2.182 2.182 0 0 1-1.413-.429 1.463 1.463 0 0 1 0-2.232 2.523 2.523 0 0 1 1.6-.416h1.488v-.189a1.261 1.261 0 0 0-.353-.933 1.5 1.5 0 0 0-1.047-.328 2.762 2.762 0 0 0-.908.151 2.346 2.346 0 0 0-.757.4l-.391-.706a2.888 2.888 0 0 1 .971-.5 4.061 4.061 0 0 1 1.2-.177 2.371 2.371 0 0 1 1.652.555zm-.946 3.784a1.387 1.387 0 0 0 .568-.681v-.58h-1.45q-1.261 0-1.261.807a.732.732 0 0 0 .3.618 1.4 1.4 0 0 0 .845.227 1.766 1.766 0 0 0 1.009-.277zm6.23.718a1.425 1.425 0 0 1-.517.277 2.157 2.157 0 0 1-.631.088 1.677 1.677 0 0 1-1.261-.429 1.627 1.627 0 0 1-.429-1.261v-2.824h-.883v-.78h.883v-1.15h.946v1.15h1.541v.782h-1.5v2.838a.921.921 0 0 0 .214.656.8.8 0 0 0 .605.227 1.148 1.148 0 0 0 .744-.252zm1.161-6.117a.58.58 0 0 1-.189-.429.593.593 0 0 1 .189-.479.618.618 0 0 1 .454-.189.643.643 0 0 1 .454.177.568.568 0 0 1 .189.429.605.605 0 0 1-.189.454.618.618 0 0 1-.454.189.631.631 0 0 1-.454-.152zm0 1.186h.946v5.234h-.946zm7.378 0l-2.333 5.234h-.971l-2.3-5.234h.984l1.841 4.212 1.841-4.2zm5.448 2.952h-4.252a1.652 1.652 0 0 0 .605 1.11 1.98 1.98 0 0 0 1.261.416 1.942 1.942 0 0 0 1.513-.631l.53.618a2.3 2.3 0 0 1-.883.631 3.33 3.33 0 0 1-2.649-.126 2.434 2.434 0 0 1-1-.959 2.724 2.724 0 0 1-.353-1.387 2.775 2.775 0 0 1 .341-1.375 2.447 2.447 0 0 1 .933-.959 2.674 2.674 0 0 1 1.35-.341 2.623 2.623 0 0 1 1.337.341 2.4 2.4 0 0 1 .921.959 2.9 2.9 0 0 1 .328 1.4 2.788 2.788 0 0 1 .018.303zm-3.708-1.766a1.677 1.677 0 0 0-.544 1.085h3.355a1.69 1.69 0 0 0-.542-1.085 1.766 1.766 0 0 0-2.283 0zm15.815-.668a2.3 2.3 0 0 1 .58 1.7v3.012h-.946v-2.9a1.652 1.652 0 0 0-.353-1.148 1.261 1.261 0 0 0-1-.391 1.5 1.5 0 0 0-1.148.454 1.8 1.8 0 0 0-.429 1.261v2.7h-.956v-2.9a1.652 1.652 0 0 0-.353-1.148 1.261 1.261 0 0 0-1-.391 1.5 1.5 0 0 0-1.148.454 1.8 1.8 0 0 0-.429 1.261v2.7h-.94V38.67h.908v.782a1.841 1.841 0 0 1 .757-.618 2.522 2.522 0 0 1 1.059-.214 2.321 2.321 0 0 1 1.085.252 1.715 1.715 0 0 1 .732.719 2.005 2.005 0 0 1 .82-.706 2.686 2.686 0 0 1 1.186-.252 2.131 2.131 0 0 1 1.577.555zm7.064 2.434h-4.252a1.652 1.652 0 0 0 .605 1.11 1.98 1.98 0 0 0 1.261.416 1.942 1.942 0 0 0 1.513-.631l.53.618a2.3 2.3 0 0 1-.883.631 3.33 3.33 0 0 1-2.649-.126 2.434 2.434 0 0 1-1-.959 2.724 2.724 0 0 1-.353-1.387 2.775 2.775 0 0 1 .341-1.375 2.447 2.447 0 0 1 .933-.959 2.674 2.674 0 0 1 1.35-.341 2.623 2.623 0 0 1 1.337.341 2.4 2.4 0 0 1 .921.959 2.9 2.9 0 0 1 .328 1.4 2.79 2.79 0 0 1 .013.3zm-3.708-1.766a1.677 1.677 0 0 0-.542 1.085h3.355a1.69 1.69 0 0 0-.542-1.085 1.766 1.766 0 0 0-2.283 0zm9.976-3.28v7.328h-.908v-.828a2.056 2.056 0 0 1-.795.656 2.523 2.523 0 0 1-1.072.227 2.75 2.75 0 0 1-1.362-.341 2.409 2.409 0 0 1-.946-.946 2.813 2.813 0 0 1-.391-1.396 2.775 2.775 0 0 1 .341-1.387 2.422 2.422 0 0 1 .946-.933 2.749 2.749 0 0 1 1.362-.341 2.522 2.522 0 0 1 1.034.214 2.018 2.018 0 0 1 .795.631v-2.884zm-1.8 6.306a1.627 1.627 0 0 0 .631-.656 2.157 2.157 0 0 0 0-1.93 1.589 1.589 0 0 0-.631-.643 1.9 1.9 0 0 0-1.8 0 1.64 1.64 0 0 0-.605.706 2.119 2.119 0 0 0 0 1.93 1.678 1.678 0 0 0 .631.656 1.867 1.867 0 0 0 1.8 0zm3.616-5.398a.58.58 0 0 1-.189-.429.593.593 0 0 1 .189-.441.618.618 0 0 1 .454-.189.643.643 0 0 1 .454.177.568.568 0 0 1 .189.429.605.605 0 0 1-.189.454.618.618 0 0 1-.454.189.631.631 0 0 1-.454-.19zm0 1.186h.946v5.234h-.946zm3.595 4.944a2.522 2.522 0 0 1-.984-.959 2.85 2.85 0 0 1 0-2.762 2.522 2.522 0 0 1 .984-.946 2.939 2.939 0 0 1 1.425-.341 2.737 2.737 0 0 1 1.261.29 2.043 2.043 0 0 1 .87.832l-.719.467a1.614 1.614 0 0 0-.618-.568 1.753 1.753 0 0 0-.807-.189 1.879 1.879 0 0 0-.921.227 1.614 1.614 0 0 0-.643.643 1.955 1.955 0 0 0-.227.959 1.98 1.98 0 0 0 .227.971 1.614 1.614 0 0 0 .618.643 1.879 1.879 0 0 0 .921.227 1.753 1.753 0 0 0 .807-.189 1.615 1.615 0 0 0 .618-.568l.719.454a2.068 2.068 0 0 1-.87.832 2.7 2.7 0 0 1-1.261.29 2.913 2.913 0 0 1-1.4-.313zm8.362-4.515a2.056 2.056 0 0 1 .58 1.589v3.166h-.908v-.694a1.5 1.5 0 0 1-.681.555 2.522 2.522 0 0 1-1.047.189 2.182 2.182 0 0 1-1.413-.429 1.463 1.463 0 0 1 0-2.232 2.522 2.522 0 0 1 1.6-.416h1.539v-.189a1.261 1.261 0 0 0-.353-.933 1.5 1.5 0 0 0-1.047-.328 2.762 2.762 0 0 0-.908.151 2.346 2.346 0 0 0-.757.4l-.391-.706a2.888 2.888 0 0 1 .971-.5 4.061 4.061 0 0 1 1.2-.177 2.371 2.371 0 0 1 1.614.555zm-.946 3.785a1.387 1.387 0 0 0 .568-.681v-.58h-1.45q-1.261 0-1.261.807a.732.732 0 0 0 .3.618 1.4 1.4 0 0 0 .845.227 1.766 1.766 0 0 0 1-.277zm3.279-6.308h.946v7.328h-.946zm8.362 7.025a1.425 1.425 0 0 1-.517.277 2.157 2.157 0 0 1-.631.088 1.677 1.677 0 0 1-1.261-.429 1.627 1.627 0 0 1-.429-1.261v-2.824h-.883v-.78h.883v-1.15h.946v1.15h1.5v.782h-1.475v2.838a.921.921 0 0 0 .214.656.8.8 0 0 0 .605.227 1.148 1.148 0 0 0 .744-.252zm5.676-1.979h-4.25a1.652 1.652 0 0 0 .605 1.11 1.98 1.98 0 0 0 1.261.416 1.942 1.942 0 0 0 1.513-.631l.53.618a2.3 2.3 0 0 1-.883.631 3.33 3.33 0 0 1-2.649-.126 2.434 2.434 0 0 1-1-.959 2.724 2.724 0 0 1-.353-1.387 2.775 2.775 0 0 1 .341-1.375 2.447 2.447 0 0 1 .933-.959 2.674 2.674 0 0 1 1.35-.341 2.623 2.623 0 0 1 1.337.341 2.4 2.4 0 0 1 .921.959 2.9 2.9 0 0 1 .328 1.4 2.792 2.792 0 0 1 .013.3zm-3.708-1.766a1.677 1.677 0 0 0-.542 1.085h3.355a1.69 1.69 0 0 0-.542-1.085 1.766 1.766 0 0 0-2.283 0zm5.927 3.758a2.522 2.522 0 0 1-.984-.959 2.85 2.85 0 0 1 0-2.762 2.522 2.522 0 0 1 .984-.946 2.939 2.939 0 0 1 1.422-.34 2.737 2.737 0 0 1 1.261.29 2.043 2.043 0 0 1 .87.832l-.719.467a1.614 1.614 0 0 0-.618-.568 1.753 1.753 0 0 0-.807-.189 1.879 1.879 0 0 0-.921.227 1.614 1.614 0 0 0-.643.643 1.955 1.955 0 0 0-.227.959 1.98 1.98 0 0 0 .227.971 1.614 1.614 0 0 0 .643.643 1.879 1.879 0 0 0 .921.227 1.753 1.753 0 0 0 .807-.189 1.614 1.614 0 0 0 .618-.568l.719.454a2.069 2.069 0 0 1-.87.832 2.7 2.7 0 0 1-1.261.29 2.913 2.913 0 0 1-1.422-.314zm9.064-4.415a2.27 2.27 0 0 1 .593 1.69v3.014h-.946v-2.9a1.6 1.6 0 0 0-.366-1.148 1.375 1.375 0 0 0-1.047-.391 1.627 1.627 0 0 0-1.261.454 1.753 1.753 0 0 0-.441 1.261v2.7h-.946v-7.303h.946v2.838a1.955 1.955 0 0 1 .782-.58 2.661 2.661 0 0 1 1.072-.2 2.157 2.157 0 0 1 1.614.568zm6.727.002a2.27 2.27 0 0 1 .593 1.69v3.01h-.946V41a1.6 1.6 0 0 0-.366-1.148 1.375 1.375 0 0 0-1.047-.391 1.627 1.627 0 0 0-1.261.454 1.753 1.753 0 0 0-.441 1.261v2.7h-.972v-5.207h.908v.795a1.841 1.841 0 0 1 .769-.618 2.7 2.7 0 0 1 1.11-.214 2.157 2.157 0 0 1 1.653.568zm3.215 4.413a2.522 2.522 0 0 1-.971-.959 2.888 2.888 0 0 1 0-2.762 2.522 2.522 0 0 1 .971-.946 2.876 2.876 0 0 1 1.4-.341 2.838 2.838 0 0 1 1.4.341 2.522 2.522 0 0 1 .971.946 2.876 2.876 0 0 1 0 2.762 2.522 2.522 0 0 1-.971.959 3.048 3.048 0 0 1-2.8 0zm2.308-.732a1.64 1.64 0 0 0 .631-.656 2.157 2.157 0 0 0 0-1.93 1.6 1.6 0 0 0-.631-.643 1.9 1.9 0 0 0-1.8 0 1.64 1.64 0 0 0-.631.643 2.119 2.119 0 0 0 0 1.93 1.678 1.678 0 0 0 .631.656 1.879 1.879 0 0 0 1.8 0zm3.128-6.306h.946v7.328h-.946zm3.591 7.038a2.522 2.522 0 0 1-.971-.959 2.888 2.888 0 0 1 0-2.762 2.522 2.522 0 0 1 .971-.946 2.876 2.876 0 0 1 1.4-.341 2.838 2.838 0 0 1 1.4.341 2.522 2.522 0 0 1 .971.946 2.876 2.876 0 0 1 0 2.762 2.523 2.523 0 0 1-.971.959 3.048 3.048 0 0 1-2.8 0zm2.308-.719a1.64 1.64 0 0 0 .631-.656 2.157 2.157 0 0 0 0-1.93 1.6 1.6 0 0 0-.631-.643 1.9 1.9 0 0 0-1.8 0 1.639 1.639 0 0 0-.631.643 2.119 2.119 0 0 0 0 1.93 1.678 1.678 0 0 0 .631.656 1.879 1.879 0 0 0 1.8 0zm8.139-4.225v4.532a2.7 2.7 0 0 1-.681 2.031 2.825 2.825 0 0 1-2.031.656 4.868 4.868 0 0 1-1.413-.2 2.8 2.8 0 0 1-1.085-.58l.454-.732a2.674 2.674 0 0 0 .908.5 3.43 3.43 0 0 0 1.11.189 1.867 1.867 0 0 0 1.362-.429 1.791 1.791 0 0 0 .441-1.261v-.494a2.106 2.106 0 0 1-.82.605 2.737 2.737 0 0 1-1.059.2 2.863 2.863 0 0 1-1.362-.315 2.384 2.384 0 0 1-.959-.9 2.686 2.686 0 0 1 0-2.636 2.346 2.346 0 0 1 .959-.9 2.9 2.9 0 0 1 1.362-.315 2.762 2.762 0 0 1 1.1.214 2.043 2.043 0 0 1 .832.643v-.807zm-1.8 3.973a1.6 1.6 0 0 0 .643-.605 1.69 1.69 0 0 0 .227-.883 1.6 1.6 0 0 0-.5-1.261 2.031 2.031 0 0 0-2.6 0 1.6 1.6 0 0 0-.5 1.261 1.69 1.69 0 0 0 .227.883 1.6 1.6 0 0 0 .643.605 1.968 1.968 0 0 0 .933.214 1.942 1.942 0 0 0 .923-.214zm3.679-5.159a.58.58 0 0 1-.189-.429.593.593 0 0 1 .189-.479.618.618 0 0 1 .454-.189.643.643 0 0 1 .454.177.567.567 0 0 1 .189.429.605.605 0 0 1-.189.454.618.618 0 0 1-.454.189.631.631 0 0 1-.454-.151zm0 1.186h.946v5.234h-.946zm7.391 2.952h-4.25a1.652 1.652 0 0 0 .605 1.11 1.98 1.98 0 0 0 1.261.416 1.942 1.942 0 0 0 1.513-.631l.53.618a2.3 2.3 0 0 1-.883.631 3.33 3.33 0 0 1-2.649-.126 2.434 2.434 0 0 1-1-.959 2.724 2.724 0 0 1-.353-1.387 2.775 2.775 0 0 1 .341-1.375 2.447 2.447 0 0 1 .933-.959 2.674 2.674 0 0 1 1.35-.341 2.623 2.623 0 0 1 1.337.341 2.4 2.4 0 0 1 .921.959 2.9 2.9 0 0 1 .328 1.4 2.792 2.792 0 0 1 .013.3zm-3.708-1.766a1.678 1.678 0 0 0-.542 1.085h3.355a1.69 1.69 0 0 0-.542-1.085 1.766 1.766 0 0 0-2.283 0zm5.309 3.934a2.711 2.711 0 0 1-.933-.441l.391-.757a2.825 2.825 0 0 0 .845.391 3.443 3.443 0 0 0 1 .151q1.261 0 1.261-.706a.454.454 0 0 0-.164-.378 1.059 1.059 0 0 0-.416-.2l-.719-.139a7.014 7.014 0 0 1-1.034-.227 1.589 1.589 0 0 1-.681-.429 1.261 1.261 0 0 1-.29-.858 1.337 1.337 0 0 1 .58-1.1 2.649 2.649 0 0 1 1.589-.429 4.389 4.389 0 0 1 1.047.126 2.824 2.824 0 0 1 .858.341l-.4.757a2.724 2.724 0 0 0-1.513-.416 1.74 1.74 0 0 0-.921.2.593.593 0 0 0-.315.53.5.5 0 0 0 .177.4 1.11 1.11 0 0 0 .441.214l.732.164a8.007 8.007 0 0 1 1.022.227 1.526 1.526 0 0 1 .668.416 1.173 1.173 0 0 1 .277.832 1.261 1.261 0 0 1-.605 1.135 2.876 2.876 0 0 1-1.652.416 4.389 4.389 0 0 1-1.236-.227z" fill="#fff"/><path fill="#343a7b" d="M14.037 32.628h161.437"/><path fill="none" stroke="#fff" stroke-linecap="square" stroke-miterlimit="10" stroke-width=".75" d="M14.037 32.628h161.437"/></svg>