<svg xmlns="http://www.w3.org/2000/svg" width="189.603" height="44.291"><path d="M0 41.45C1.013 33.262 2.3 7.62 2.7 0h12.4c.324 2.621 3.175 12.632 4.229 19.009h.095c3.4-12.362 5.4-15.483 6.2-19.009h12.637c-.27 4.458-.824 18.009-.824 30.641h-8.363c.189-2.7.689-10.335.648-21.725h-.095c-2.2 7.12-4.729 14.375-7.12 21.725H14.28C12.024 19.387 10.227 13.97 9.363 9.025h-.081c-.689 6.3-1.351 28.588-1.351 32.425zM49.245 21.886c0 3.107 2.58 4.215 5.215 4.215a25.967 25.967 0 0 0 6.958-1.351l-.959 5.566a33.843 33.843 0 0 1-6.917.757c-6.323 0-11.849-1.9-11.849-9.741 0-2.108.838-11.051 11.416-11.051 6.525 0 10.106 3.067 10.106 8.593a15.119 15.119 0 0 1-.284 2.986zm6.647-3.621c0-2.31-.959-3.5-2.864-3.5a3.675 3.675 0 0 0-3.54 3.5zM80.589 28.209h-.081a8.755 8.755 0 0 1-6.755 2.9c-5.255 0-8.43-4.053-8.43-9.065 0-5.728 3.148-11.727 11.93-11.727a30.911 30.911 0 0 1 3.81.27c.122-2.148.162-4.3.2-6.485h7.836c-.324 4.134-.676 8.039-.919 12.254s-.513 8.714-.513 14.28h-7.195zm-1.784-12.686a5.715 5.715 0 0 0-5.972 6.093c0 2.148 1.148 4.053 3.54 4.053 4.3 0 4.337-6.2 4.377-9.944a7.931 7.931 0 0 0-1.945-.2zM92.559 30.642a188.4 188.4 0 0 0 1.04-19.834h7.958a194.546 194.546 0 0 0-.716 19.847zm1.229-22.306l.081-4.688h7.714l-.257 4.675zM115.026 15.996c-.122 2.229-.284 4.053-.284 6.674 0 1.513.324 2.7 1.986 2.7a10.97 10.97 0 0 0 2.783-.432l-1 5.485a21 21 0 0 1-5.215.635c-3.823 0-6.363-1.04-6.363-5.283 0-3.148.432-6.282.554-9.822h-2.958l.2-5.147h3.215l.243-3.58 7.245-1.633-.2 5.215h4.458l-.162 5.215zM129.266 21.882c0 3.107 2.58 4.215 5.215 4.215a25.967 25.967 0 0 0 6.958-1.351l-.932 5.607a33.843 33.843 0 0 1-6.917.757c-6.323 0-11.849-1.9-11.849-9.741 0-2.108.838-11.051 11.416-11.051 6.485-.014 10.052 3.053 10.052 8.593a15.118 15.118 0 0 1-.284 2.986zm6.647-3.621c0-2.31-.959-3.5-2.864-3.5a3.675 3.675 0 0 0-3.54 3.5zM162.907 16.955a15.78 15.78 0 0 0-5.053-.959 4.566 4.566 0 0 0-5.011 4.891c0 2.986 1.594 4.539 4.566 4.539a14.861 14.861 0 0 0 4.931-.959l-.959 5.931a24.886 24.886 0 0 1-5.931.716c-6.485 0-10.187-3.5-10.187-10.065 0-2.108.513-10.741 10.538-10.741a26.48 26.48 0 0 1 6.755.757zM175.323 4.054c-.162 1.473-.594 6.647-.716 9.39l.081.081c1.783-2.58 3.823-3.256 7.633-3.256s7.282 1.473 7.282 6.323c0 1.067-.554 9.025-.554 14h-7.836c.243-3.459.594-6.917.594-10.376 0-1.945-.594-3.742-2.9-3.742a4.053 4.053 0 0 0-3.932 3.256c-.676 2.108-.838 6.607-1 10.808h-7.92c.554-4.972 1.351-16.9 1.351-26.521zM42.233 42.314l.486-6.255h1.135l-.486 6.255zM49.043 38.18a1.675 1.675 0 0 1 .378 1.189v.253l-.216 2.7h-1.091l.216-2.7a1.352 1.352 0 0 0 0-.176.905.905 0 0 0-.2-.635.8.8 0 0 0-.608-.216 1.04 1.04 0 0 0-.8.311 1.351 1.351 0 0 0-.338.851l-.2 2.513h-1.1l.257-3.094v-1.254h1.027v.662a1.554 1.554 0 0 1 .621-.567 1.918 1.918 0 0 1 .892-.2 1.473 1.473 0 0 1 1.162.363zM54.813 38.18a1.675 1.675 0 0 1 .378 1.189v.253l-.216 2.7h-1.096l.216-2.7a1.35 1.35 0 0 0 0-.176.905.905 0 0 0-.2-.635.8.8 0 0 0-.608-.216 1.04 1.04 0 0 0-.8.311 1.351 1.351 0 0 0-.338.851l-.2 2.513h-1.096l.243-3.094v-1.254h1.027v.662a1.554 1.554 0 0 1 .621-.567 1.918 1.918 0 0 1 .892-.2 1.473 1.473 0 0 1 1.175.365zM57.581 42.112a1.878 1.878 0 0 1-.77-.757 2.337 2.337 0 0 1-.27-1.148 2.783 2.783 0 0 1 .284-1.351 2.027 2.027 0 0 1 .8-.851 2.364 2.364 0 0 1 1.2-.3 2.4 2.4 0 0 1 1.162.27 1.878 1.878 0 0 1 .77.77 2.351 2.351 0 0 1 .27 1.148 2.837 2.837 0 0 1-.284 1.351 1.986 1.986 0 0 1-.8.851 2.378 2.378 0 0 1-1.2.3 2.459 2.459 0 0 1-1.162-.284zm2.054-1.027a2.054 2.054 0 0 0 .3-1.175 1.432 1.432 0 0 0-.284-.959 1.148 1.148 0 0 0-1.716.108 2.027 2.027 0 0 0-.311 1.175q0 1.351 1.121 1.351a1 1 0 0 0 .892-.5zM65.633 37.829h1.108l-2.3 4.431h-.946l-1.564-4.431h1.108l1.052 3.161zM71.942 37.829l-.338 4.485h-1.08v-.62a1.554 1.554 0 0 1-.594.5 1.783 1.783 0 0 1-.8.176 1.864 1.864 0 0 1-.986-.257 1.743 1.743 0 0 1-.662-.743 2.58 2.58 0 0 1-.243-1.135 3.013 3.013 0 0 1 .257-1.351 2.067 2.067 0 0 1 .743-.878 1.959 1.959 0 0 1 1.094-.311 1.743 1.743 0 0 1 .851.2 1.351 1.351 0 0 1 .567.567V37.8zm-1.567 3.229a1.864 1.864 0 0 0 .311-1.135 1.54 1.54 0 0 0-.284-1 1.013 1.013 0 0 0-.824-.351 1.04 1.04 0 0 0-.878.419 1.891 1.891 0 0 0-.311 1.162 1.486 1.486 0 0 0 .3.986 1.04 1.04 0 0 0 .838.351 1.013 1.013 0 0 0 .851-.378zM74.766 40.688q0 .784.662.784a1.973 1.973 0 0 0 .459 0l-.068.865a2.108 2.108 0 0 1-.716.108 1.446 1.446 0 0 1-1.067-.365 1.419 1.419 0 0 1-.365-1.054 1.754 1.754 0 0 1 0-.2l.162-2.04h-.877l.068-.824h.838l.081-1.081 1.121-.365-.068 1.31h1.189l-.068.824h-1.175zM77.009 42.314l.378-4.485h1.094l-.351 4.431zm.446-6.444h1.216l-.081 1.081h-1.216zM83.237 37.829h1.108l-2.3 4.431h-.98l-1.53-4.431h1.108l1.054 3.161zM85.941 40.152a1.351 1.351 0 0 0 .311.986 1.189 1.189 0 0 0 .919.338 2.189 2.189 0 0 0 1.351-.459l.243.743a1.946 1.946 0 0 1-.743.419 3 3 0 0 1-.946.149 2.513 2.513 0 0 1-1.189-.27 1.864 1.864 0 0 1-.784-.757 2.324 2.324 0 0 1-.27-1.148 2.7 2.7 0 0 1 .284-1.27 2.108 2.108 0 0 1 1.984-1.056 1.891 1.891 0 0 1 1.351.513 1.959 1.959 0 0 1 .513 1.446 3.7 3.7 0 0 1 0 .432zm0-.594h2.094a1.027 1.027 0 0 0-.243-.757.919.919 0 0 0-.689-.27 1.108 1.108 0 0 0-1.094 1.04zM99.689 38.167a1.716 1.716 0 0 1 .365 1.175v.257l-.216 2.7h-1.092l.216-2.7a1.727 1.727 0 0 0 0-.2.905.905 0 0 0-.176-.608.676.676 0 0 0-.54-.2.905.905 0 0 0-.73.311 1.527 1.527 0 0 0-.311.919l-.189 2.459h-1.093l.216-2.7a1.8 1.8 0 0 0 0-.189.959.959 0 0 0-.176-.621.662.662 0 0 0-.54-.2.905.905 0 0 0-.73.311 1.554 1.554 0 0 0-.311.919l-.193 2.447h-1.09l.257-3.067v-1.255h1.027v.635a1.581 1.581 0 0 1 1.351-.743 1.54 1.54 0 0 1 .824.2 1.108 1.108 0 0 1 .473.594 1.7 1.7 0 0 1 .635-.581 1.824 1.824 0 0 1 .959-.2 1.351 1.351 0 0 1 1.067.338zM102.448 40.152a1.351 1.351 0 0 0 .311.986 1.189 1.189 0 0 0 .919.338 2.189 2.189 0 0 0 1.352-.459l.243.743a1.945 1.945 0 0 1-.743.419 3 3 0 0 1-.946.149 2.513 2.513 0 0 1-1.189-.27 1.864 1.864 0 0 1-.784-.757 2.324 2.324 0 0 1-.27-1.148 2.7 2.7 0 0 1 .284-1.27 2.108 2.108 0 0 1 1.985-1.056 1.891 1.891 0 0 1 1.351.513 1.959 1.959 0 0 1 .513 1.446 3.7 3.7 0 0 1 0 .432zm0-.594h2.094a1.027 1.027 0 0 0-.243-.757.919.919 0 0 0-.689-.27 1.108 1.108 0 0 0-1.094 1.04zM111.499 35.856l-.513 6.458h-1.08v-.619a1.513 1.513 0 0 1-.594.513 1.783 1.783 0 0 1-.811.189 1.864 1.864 0 0 1-.986-.257 1.743 1.743 0 0 1-.662-.743 2.54 2.54 0 0 1-.243-1.135 3.04 3.04 0 0 1 .27-1.351 2.054 2.054 0 0 1 .743-.878 1.972 1.972 0 0 1 1.108-.311 1.783 1.783 0 0 1 .851.189 1.351 1.351 0 0 1 .567.567l.216-2.7zm-1.729 5.256a1.864 1.864 0 0 0 .311-1.135 1.54 1.54 0 0 0-.284-1 1.013 1.013 0 0 0-.824-.351 1.054 1.054 0 0 0-.878.419 1.851 1.851 0 0 0-.324 1.148 1.486 1.486 0 0 0 .3.986 1.04 1.04 0 0 0 .838.351 1.013 1.013 0 0 0 .865-.419zM112.635 42.314l.351-4.485h1.094l-.351 4.431zm.446-6.444h1.216l-.081 1.081H113zM116.363 42.111a1.878 1.878 0 0 1-.77-.757 2.3 2.3 0 0 1-.27-1.135 2.7 2.7 0 0 1 .3-1.351 2.054 2.054 0 0 1 .838-.851 2.567 2.567 0 0 1 1.256-.3 2.513 2.513 0 0 1 1.689.567l-.378.77a2.081 2.081 0 0 0-1.27-.473 1.175 1.175 0 0 0-.959.419 1.8 1.8 0 0 0-.338 1.175 1.351 1.351 0 0 0 .311.973 1.094 1.094 0 0 0 .865.338 1.783 1.783 0 0 0 .635-.108 2.4 2.4 0 0 0 .608-.351l.243.77a2.081 2.081 0 0 1-.7.419 2.554 2.554 0 0 1-.865.149 2.459 2.459 0 0 1-1.189-.257zM124.876 37.829l-.356 4.432h-1.076v-.621a1.554 1.554 0 0 1-.594.5 1.783 1.783 0 0 1-.8.176 1.864 1.864 0 0 1-.986-.257 1.743 1.743 0 0 1-.662-.743 2.58 2.58 0 0 1-.243-1.135 3.013 3.013 0 0 1 .257-1.351 2.067 2.067 0 0 1 .743-.878 1.959 1.959 0 0 1 1.094-.311 1.743 1.743 0 0 1 .851.2 1.351 1.351 0 0 1 .567.567v-.662zm-1.567 3.229a1.864 1.864 0 0 0 .311-1.135 1.54 1.54 0 0 0-.284-1 1.013 1.013 0 0 0-.824-.351 1.04 1.04 0 0 0-.878.419 1.891 1.891 0 0 0-.311 1.162 1.486 1.486 0 0 0 .3.986 1.04 1.04 0 0 0 .838.351 1.013 1.013 0 0 0 .851-.378zM126.173 42.316l.51-6.46h1.1l-.516 6.46zM133.333 40.693q0 .784.662.784a1.972 1.972 0 0 0 .459 0l-.068.865a2.108 2.108 0 0 1-.716.108 1.446 1.446 0 0 1-1.067-.365 1.419 1.419 0 0 1-.365-1.054 1.761 1.761 0 0 1 0-.2l.162-2.121h-.85l.068-.824h.784l.081-1.081 1.121-.365-.054 1.392h1.189l-.068.824h-1.176zM136.589 40.152a1.351 1.351 0 0 0 .311.986 1.189 1.189 0 0 0 .919.338 2.189 2.189 0 0 0 1.351-.459l.243.743a1.945 1.945 0 0 1-.743.419 3 3 0 0 1-.946.149 2.513 2.513 0 0 1-1.189-.27 1.864 1.864 0 0 1-.784-.757 2.324 2.324 0 0 1-.27-1.148 2.7 2.7 0 0 1 .284-1.27 2.108 2.108 0 0 1 2.036-1.057 1.891 1.891 0 0 1 1.351.513 1.959 1.959 0 0 1 .513 1.446 3.7 3.7 0 0 1 0 .432zm0-.594h2.094a1.027 1.027 0 0 0-.243-.757.919.919 0 0 0-.689-.27 1.108 1.108 0 0 0-1.094 1.04zM141.858 42.111a1.878 1.878 0 0 1-.77-.757 2.3 2.3 0 0 1-.27-1.135 2.7 2.7 0 0 1 .3-1.351 2.054 2.054 0 0 1 .838-.851 2.567 2.567 0 0 1 1.253-.192 2.513 2.513 0 0 1 1.689.567l-.378.77a2.081 2.081 0 0 0-1.27-.473 1.175 1.175 0 0 0-.959.419 1.8 1.8 0 0 0-.338 1.175 1.351 1.351 0 0 0 .311.973 1.094 1.094 0 0 0 .865.338 1.783 1.783 0 0 0 .635-.108 2.4 2.4 0 0 0 .608-.351l.189.743a2.081 2.081 0 0 1-.7.419 2.553 2.553 0 0 1-.865.149 2.459 2.459 0 0 1-1.135-.338zM149.721 38.18a1.675 1.675 0 0 1 .378 1.189v.257l-.216 2.7h-1.094l.216-2.7a1.355 1.355 0 0 0 0-.176.905.905 0 0 0-.2-.635.8.8 0 0 0-.608-.216 1.04 1.04 0 0 0-.8.311 1.351 1.351 0 0 0-.338.851l-.2 2.513h-1.097l.513-6.458h1.097l-.2 2.567a1.567 1.567 0 0 1 .608-.486 1.946 1.946 0 0 1 .838-.068 1.473 1.473 0 0 1 1.108.351zM155.49 38.18a1.675 1.675 0 0 1 .378 1.189v.257l-.216 2.7h-1.094l.216-2.7a1.355 1.355 0 0 0 0-.176.905.905 0 0 0-.2-.635.8.8 0 0 0-.608-.216 1.04 1.04 0 0 0-.8.311 1.351 1.351 0 0 0-.338.851l-.162 2.553h-1.094l.257-3.175v-1.256h1.027v.662a1.554 1.554 0 0 1 .621-.567 1.918 1.918 0 0 1 .892-.2 1.473 1.473 0 0 1 1.121.405zM158.26 42.112a1.878 1.878 0 0 1-.77-.757 2.337 2.337 0 0 1-.27-1.148 2.783 2.783 0 0 1 .284-1.351 2.027 2.027 0 0 1 .8-.851 2.364 2.364 0 0 1 1.2-.3 2.4 2.4 0 0 1 1.162.27 1.878 1.878 0 0 1 .77.77 2.351 2.351 0 0 1 .27 1.148 2.837 2.837 0 0 1-.284 1.351 1.986 1.986 0 0 1-.8.851 2.378 2.378 0 0 1-1.2.3 2.459 2.459 0 0 1-1.162-.283zm2.054-1.027a2.053 2.053 0 0 0 .3-1.175 1.432 1.432 0 0 0-.284-.959 1.148 1.148 0 0 0-1.716.108 2.027 2.027 0 0 0-.311 1.175q0 1.351 1.121 1.351a1 1 0 0 0 .892-.5zM162.948 42.316l.513-6.458h1.094l-.517 6.458zM166.676 42.112a1.878 1.878 0 0 1-.77-.757 2.338 2.338 0 0 1-.27-1.148 2.783 2.783 0 0 1 .284-1.351 2.027 2.027 0 0 1 .8-.851 2.364 2.364 0 0 1 1.2-.3 2.4 2.4 0 0 1 1.162.27 1.878 1.878 0 0 1 .77.77 2.35 2.35 0 0 1 .27 1.148 2.837 2.837 0 0 1-.284 1.351 1.986 1.986 0 0 1-.8.851 2.378 2.378 0 0 1-1.2.3 2.459 2.459 0 0 1-1.162-.283zm2.054-1.027a2.053 2.053 0 0 0 .3-1.175 1.432 1.432 0 0 0-.284-.959 1.148 1.148 0 0 0-1.716.108 2.027 2.027 0 0 0-.311 1.175q0 1.351 1.121 1.351a1 1 0 0 0 .905-.5zM175.999 37.829l-.365 4.31a2.337 2.337 0 0 1-.676 1.621 2.418 2.418 0 0 1-1.662.527 3.8 3.8 0 0 1-1.837-.432l.243-.838a3.107 3.107 0 0 0 1.635.432 1.121 1.121 0 0 0 1.216-1.189v-.73a1.473 1.473 0 0 1-.594.486 1.891 1.891 0 0 1-.824.176 1.959 1.959 0 0 1-1-.257 1.716 1.716 0 0 1-.676-.716 2.351 2.351 0 0 1-.243-1.081 2.7 2.7 0 0 1 .257-1.216 2.04 2.04 0 0 1 .743-.838 2.013 2.013 0 0 1 1.108-.311 1.81 1.81 0 0 1 .865.2 1.351 1.351 0 0 1 .567.567v-.648zm-1.554 3.067a1.621 1.621 0 0 0 .324-1.067 1.351 1.351 0 0 0-.3-.932 1.108 1.108 0 0 0-.851-.324 1.081 1.081 0 0 0-.892.392 1.662 1.662 0 0 0-.324 1.094 1.351 1.351 0 0 0 .3.905 1.108 1.108 0 0 0 .851.324 1.094 1.094 0 0 0 .892-.351zM177.309 42.314l.351-4.485h1.094l-.419 4.485zm.446-6.444h1.214l-.081 1.081h-1.219zM181.038 40.153a1.351 1.351 0 0 0 .311.986 1.189 1.189 0 0 0 .919.338 2.189 2.189 0 0 0 1.351-.459l.243.743a1.946 1.946 0 0 1-.743.419 3 3 0 0 1-.946.149 2.513 2.513 0 0 1-1.189-.27 1.864 1.864 0 0 1-.784-.757 2.324 2.324 0 0 1-.27-1.148 2.7 2.7 0 0 1 .284-1.27 2.108 2.108 0 0 1 1.936-1.177 1.891 1.891 0 0 1 1.351.513 1.959 1.959 0 0 1 .513 1.446 3.7 3.7 0 0 1 0 .432zm0-.594h2.094a1.027 1.027 0 0 0-.243-.757.919.919 0 0 0-.689-.27 1.108 1.108 0 0 0-1.081 1.04zM185.091 41.882l.378-.77a2.7 2.7 0 0 0 1.594.513q.851 0 .851-.486a.378.378 0 0 0-.23-.351 4.446 4.446 0 0 0-.716-.27 6.487 6.487 0 0 1-.77-.257 1.351 1.351 0 0 1-.527-.378.973.973 0 0 1-.216-.648 1.216 1.216 0 0 1 .513-1.013 2.189 2.189 0 0 1 1.352-.394 3.04 3.04 0 0 1 .946.149 2.229 2.229 0 0 1 .77.419l-.365.743a2.229 2.229 0 0 0-1.351-.5 1.243 1.243 0 0 0-.635.135.419.419 0 0 0-.216.392.378.378 0 0 0 .23.351 4.363 4.363 0 0 0 .73.27 7.107 7.107 0 0 1 .784.27 1.351 1.351 0 0 1 .513.378.986.986 0 0 1 .216.662 1.162 1.162 0 0 1-.513 1 2.337 2.337 0 0 1-1.351.365 3.472 3.472 0 0 1-1.987-.58z" fill="#000163"/><path fill="none" stroke="#000163" stroke-linecap="round" stroke-miterlimit="10" stroke-width=".75" d="M15.037 34.276h173.607"/></svg>