<svg xmlns="http://www.w3.org/2000/svg" viewBox="0 0 314.55 51.11"><g data-name="Шар 2"><path d="M0 1h32v7H19.64v43h-7.26V8H0zm50.65 42.93H73v7.18H43.4V1.16h29.08v7.05H50.65v14.12h12.8v6.84h-12.8zm156.57 3.3l-16-.09-1.57 4h-7.46L202.64 1l20.46 50.11h-7.46l-13-33.39-9 23 11.36.08zm91.46 0l-16-.09-1.58 4h-7.45L294.09 1l20.46 50.15h-7.46l-13-33.39-9 23 11.34.09zm-56.88-3.3h20.45v7.18h-27.77V.89h7.32zm-77.91-5.14v.01L131.46 0v51.11h6.91V19.43l25.72 31.68h6.71V47.3l-6.91-8.51zm6.91-3.25V.89h-6.91v26.14l6.91 8.51zm-51.36-18.78v-.07a7.35 7.35 0 0 1-.1-.82 2.94 2.94 0 0 0-.17-.75v-.34a3.24 3.24 0 0 1-.21-.62c0-.18-.09-.38-.14-.61a17.07 17.07 0 0 0-7.45-9.79 20.57 20.57 0 0 0-5-2.15 20.34 20.34 0 0 0-5.78-.79H84.34v22.09h7.39V7.25h9.78a9 9 0 0 1 4.14 1 10.85 10.85 0 0 1 3.25 2.51 12.31 12.31 0 0 1 2.19 3.6 11.19 11.19 0 0 1 0 8.41 12.86 12.86 0 0 1-2.19 3.6 10.63 10.63 0 0 1-3.25 2.54 9 9 0 0 1-4.14 1H84.34v21.2h7.32V36.26h9c.64 0 1.23 0 1.78-.07s1.1-.11 1.64-.2l7.74 15.12h7.73l-8.83-17.38a.83.83 0 0 1 .34-.2 1 1 0 0 0 .35-.21 17.24 17.24 0 0 0 4.59-4.17 17.62 17.62 0 0 0 2.84-5.54 5.93 5.93 0 0 1 .35-1.3V22a3.91 3.91 0 0 0 .17-.78 7.42 7.42 0 0 1 .1-.79v-.14a5.67 5.67 0 0 0 .07-.82v-1.89a5.79 5.79 0 0 0-.09-.82z" fill="#1e1e1e" data-name="Layer 1"/></g></svg>