<svg xmlns="http://www.w3.org/2000/svg" viewBox="0 0 140.33 36.38"><g data-name="Слой 2"><g data-name="Слой 1"><path d="M0 30.68C.75 24.62 1.7 5.64 2 0h9.18c.24 1.94 2.35 9.35 3.13 14.07h.07c2.52-9.15 4-11.46 4.59-14.07h9.35c-.2 3.3-.61 13.33-.61 22.68h-6.19c.14-2 .51-7.65.48-16.08h-.07c-1.63 5.27-3.5 10.64-5.27 16.08h-6.09c-1.67-8.33-3-12.34-3.64-16h-.06c-.51 4.66-1 21.16-1 24zM36.45 16.2c0 2.3 1.91 3.12 3.86 3.12a19.22 19.22 0 0 0 5.15-1l-.71 4.12a25.05 25.05 0 0 1-5.12.56c-4.68 0-8.77-1.41-8.77-7.21 0-1.56.62-8.18 8.45-8.18 4.83 0 7.48 2.27 7.48 6.36a11.19 11.19 0 0 1-.21 2.21zm4.92-2.68c0-1.71-.71-2.59-2.12-2.59a2.72 2.72 0 0 0-2.62 2.59zm18.28 7.36h-.06a6.48 6.48 0 0 1-5 2.15c-3.89 0-6.24-3-6.24-6.71 0-4.24 2.33-8.68 8.83-8.68a22.88 22.88 0 0 1 2.82.2c.09-1.59.12-3.18.15-4.8h5.8c-.24 3.06-.5 5.95-.68 9.07s-.38 6.45-.38 10.57h-5.33zm-1.32-9.39A4.23 4.23 0 0 0 53.91 16c0 1.59.85 3 2.62 3 3.18 0 3.21-4.59 3.24-7.36a5.87 5.87 0 0 0-1.44-.15zm10.18 11.19A139.45 139.45 0 0 0 69.28 8h5.89a144 144 0 0 0-.53 14.69zm.91-16.51l.06-3.47h5.71L75 6.16zm15.72 5.67c-.09 1.65-.21 3-.21 4.94 0 1.12.24 2 1.47 2a8.12 8.12 0 0 0 2.06-.32l-.74 4.06a15.54 15.54 0 0 1-3.86.47c-2.83 0-4.71-.77-4.71-3.91 0-2.33.32-4.65.41-7.27h-2.19L77.52 8h2.38l.18-2.65 5.36-1.21L85.29 8h3.3l-.12 3.86zm10.54 4.36c0 2.3 1.91 3.12 3.86 3.12a19.22 19.22 0 0 0 5.15-1l-.69 4.15a25.05 25.05 0 0 1-5.12.56c-4.68 0-8.77-1.41-8.77-7.21 0-1.56.62-8.18 8.45-8.18C103.36 7.63 106 9.9 106 14a11.19 11.19 0 0 1-.21 2.21zm4.92-2.68c0-1.71-.71-2.59-2.12-2.59a2.72 2.72 0 0 0-2.62 2.59zm19.98-.97a11.68 11.68 0 0 0-3.74-.71 3.38 3.38 0 0 0-3.71 3.62c0 2.21 1.18 3.36 3.38 3.36a11 11 0 0 0 3.65-.71l-.71 4.39a18.42 18.42 0 0 1-4.39.53c-4.8 0-7.54-2.59-7.54-7.45 0-1.56.38-7.95 7.8-7.95a19.6 19.6 0 0 1 5 .56zM129.77 3c-.12 1.09-.44 4.92-.53 6.95l.06.06c1.32-1.91 2.83-2.41 5.65-2.41s5.39 1.09 5.39 4.68c0 .79-.41 6.68-.41 10.36h-5.8c.18-2.56.44-5.12.44-7.68 0-1.44-.44-2.77-2.15-2.77a3 3 0 0 0-2.91 2.41c-.5 1.56-.62 4.89-.74 8h-5.86c.41-3.68 1-12.51 1-19.63zM12 29.33h.78v5.48H12zm5.74 1.75a1.8 1.8 0 0 1 .47 1.34v2.39h-.75v-2.3a1.27 1.27 0 0 0-.29-.91 1.09 1.09 0 0 0-.83-.31 1.29 1.29 0 0 0-1 .36 1.39 1.39 0 0 0-.35 1v2.14h-.75v-4.13H15v.63a1.46 1.46 0 0 1 .61-.49 2.14 2.14 0 0 1 .88-.17 1.71 1.71 0 0 1 1.25.45zm5.34 0a1.8 1.8 0 0 1 .47 1.34v2.39h-.75v-2.3a1.27 1.27 0 0 0-.29-.91 1.09 1.09 0 0 0-.83-.31 1.29 1.29 0 0 0-1 .36 1.39 1.39 0 0 0-.35 1v2.14h-.73v-4.13h.72v.63a1.46 1.46 0 0 1 .61-.49 2.14 2.14 0 0 1 .88-.17 1.71 1.71 0 0 1 1.27.45zm2.55 3.5a2 2 0 0 1-.77-.76 2.29 2.29 0 0 1 0-2.19 2 2 0 0 1 .77-.75 2.28 2.28 0 0 1 1.11-.27 2.25 2.25 0 0 1 1.11.27 2 2 0 0 1 .77.75 2.28 2.28 0 0 1 0 2.19 2 2 0 0 1-.77.76 2.23 2.23 0 0 1-1.11.27 2.25 2.25 0 0 1-1.11-.27zm1.83-.58a1.3 1.3 0 0 0 .5-.52A1.71 1.71 0 0 0 28 32a1.27 1.27 0 0 0-.5-.51 1.51 1.51 0 0 0-1.43 0 1.3 1.3 0 0 0-.5.51 1.68 1.68 0 0 0 0 1.53A1.33 1.33 0 0 0 26 34a1.49 1.49 0 0 0 1.43 0zm6.03-3.34l-1.82 4.15h-.77l-1.82-4.15h.78L31.3 34l1.46-3.33zm3.4.34a1.63 1.63 0 0 1 .46 1.26v2.51h-.71v-.55a1.19 1.19 0 0 1-.54.44 2 2 0 0 1-.83.15 1.73 1.73 0 0 1-1.12-.34 1.16 1.16 0 0 1 0-1.77 2 2 0 0 1 1.27-.33h1.18v-.15a1 1 0 0 0-.28-.74 1.19 1.19 0 0 0-.83-.26 2.19 2.19 0 0 0-.72.12 1.86 1.86 0 0 0-.6.32l-.31-.56a2.29 2.29 0 0 1 .77-.4 3.22 3.22 0 0 1 .95-.14 1.88 1.88 0 0 1 1.31.44zm-.75 3a1.1 1.1 0 0 0 .45-.54V33h-1.15q-1 0-1 .64a.58.58 0 0 0 .24.49 1.11 1.11 0 0 0 .67.18 1.4 1.4 0 0 0 .8-.22zm4.94.57a1.13 1.13 0 0 1-.41.22 1.71 1.71 0 0 1-.5.07 1.33 1.33 0 0 1-1-.34 1.29 1.29 0 0 1-.34-1v-2.24h-.7v-.62h.7v-.91h.75v.91h1.22v.62h-1.19v2.25a.73.73 0 0 0 .17.52.63.63 0 0 0 .48.18.91.91 0 0 0 .59-.2zm.92-4.85a.46.46 0 0 1-.15-.34A.47.47 0 0 1 42 29a.49.49 0 0 1 .36-.15.51.51 0 0 1 .36.14.45.45 0 0 1 .15.34.48.48 0 0 1-.15.36.49.49 0 0 1-.36.15.5.5 0 0 1-.36-.12zm0 .94h.75v4.15H42zm5.85 0L46 34.81h-.77l-1.82-4.15h.78L45.65 34l1.46-3.33zM52.17 33H48.8a1.31 1.31 0 0 0 .48.88 1.57 1.57 0 0 0 1 .33 1.54 1.54 0 0 0 1.2-.5l.42.49a1.82 1.82 0 0 1-.7.5 2.64 2.64 0 0 1-2.1-.1 1.93 1.93 0 0 1-.79-.76 2.16 2.16 0 0 1-.28-1.1 2.2 2.2 0 0 1 .27-1.09 1.94 1.94 0 0 1 .74-.76 2.12 2.12 0 0 1 1.07-.27 2.08 2.08 0 0 1 1.06.27 1.9 1.9 0 0 1 .73.76 2.3 2.3 0 0 1 .26 1.11 2.21 2.21 0 0 1 .01.24zm-2.94-1.4a1.33 1.33 0 0 0-.43.86h2.66a1.34 1.34 0 0 0-.43-.86 1.4 1.4 0 0 0-1.81 0zm12.54-.53a1.82 1.82 0 0 1 .46 1.35v2.39h-.75v-2.3a1.31 1.31 0 0 0-.28-.91 1 1 0 0 0-.79-.31 1.19 1.19 0 0 0-.91.36 1.43 1.43 0 0 0-.34 1v2.14h-.76v-2.3a1.31 1.31 0 0 0-.28-.91 1 1 0 0 0-.79-.31 1.19 1.19 0 0 0-.91.36 1.43 1.43 0 0 0-.34 1v2.14h-.75v-4.11h.72v.62a1.46 1.46 0 0 1 .6-.49 2 2 0 0 1 .84-.17 1.84 1.84 0 0 1 .86.2 1.36 1.36 0 0 1 .58.57 1.59 1.59 0 0 1 .65-.56 2.13 2.13 0 0 1 .94-.2 1.69 1.69 0 0 1 1.25.44zm5.6 1.93H64a1.31 1.31 0 0 0 .48.88 1.57 1.57 0 0 0 1 .33 1.54 1.54 0 0 0 1.2-.5l.42.49a1.82 1.82 0 0 1-.7.5 2.64 2.64 0 0 1-2.1-.1 1.93 1.93 0 0 1-.79-.76 2.16 2.16 0 0 1-.28-1.1 2.2 2.2 0 0 1 .27-1.09 1.94 1.94 0 0 1 .74-.76 2.12 2.12 0 0 1 1.07-.27 2.08 2.08 0 0 1 1.06.27 1.9 1.9 0 0 1 .73.76 2.3 2.3 0 0 1 .26 1.11 2.21 2.21 0 0 1 .01.24zm-2.94-1.4a1.33 1.33 0 0 0-.43.86h2.66a1.34 1.34 0 0 0-.43-.86 1.4 1.4 0 0 0-1.81 0zm7.91-2.6v5.81h-.72v-.66a1.63 1.63 0 0 1-.63.52 2 2 0 0 1-.85.18 2.18 2.18 0 0 1-1.08-.27 1.91 1.91 0 0 1-.75-.75 2.23 2.23 0 0 1-.31-1.1 2.2 2.2 0 0 1 .27-1.1 1.92 1.92 0 0 1 .75-.74 2.18 2.18 0 0 1 1.08-.27 2 2 0 0 1 .82.17 1.6 1.6 0 0 1 .63.5V29zm-1.43 5a1.29 1.29 0 0 0 .5-.52 1.71 1.71 0 0 0 0-1.53 1.26 1.26 0 0 0-.5-.51 1.51 1.51 0 0 0-1.43 0A1.3 1.3 0 0 0 69 32a1.68 1.68 0 0 0 0 1.53 1.33 1.33 0 0 0 .5.52 1.48 1.48 0 0 0 1.43 0zm2.87-4.28a.46.46 0 0 1-.15-.34.47.47 0 0 1 .15-.35.49.49 0 0 1 .36-.15.51.51 0 0 1 .36.14.45.45 0 0 1 .15.34.48.48 0 0 1-.15.36.49.49 0 0 1-.36.15.5.5 0 0 1-.36-.15zm0 .94h.75v4.15h-.75zm2.85 3.92a2 2 0 0 1-.78-.76 2.26 2.26 0 0 1 0-2.19 2 2 0 0 1 .78-.75 2.33 2.33 0 0 1 1.13-.27 2.17 2.17 0 0 1 1 .23 1.62 1.62 0 0 1 .69.66l-.57.37a1.28 1.28 0 0 0-.49-.45 1.39 1.39 0 0 0-.64-.15 1.49 1.49 0 0 0-.73.18 1.28 1.28 0 0 0-.51.51 1.55 1.55 0 0 0-.18.76 1.57 1.57 0 0 0 .18.77A1.28 1.28 0 0 0 77 34a1.49 1.49 0 0 0 .73.18 1.39 1.39 0 0 0 .64-.15 1.28 1.28 0 0 0 .49-.45l.57.36a1.64 1.64 0 0 1-.69.66 2.14 2.14 0 0 1-1 .23 2.31 2.31 0 0 1-1.11-.25zM83.26 31a1.63 1.63 0 0 1 .46 1.26v2.51H83v-.55a1.19 1.19 0 0 1-.54.44 2 2 0 0 1-.83.15 1.73 1.73 0 0 1-1.12-.34 1.16 1.16 0 0 1 0-1.77 2 2 0 0 1 1.27-.33H83v-.15a1 1 0 0 0-.28-.74 1.19 1.19 0 0 0-.83-.26 2.19 2.19 0 0 0-.72.12 1.86 1.86 0 0 0-.6.32l-.31-.56a2.29 2.29 0 0 1 .77-.4 3.22 3.22 0 0 1 .95-.14 1.88 1.88 0 0 1 1.28.44zm-.75 3a1.1 1.1 0 0 0 .45-.54V33h-1.15q-1 0-1 .64a.58.58 0 0 0 .24.49 1.11 1.11 0 0 0 .67.18 1.4 1.4 0 0 0 .79-.22zm2.6-5h.75v5.81h-.75zm6.63 5.57a1.13 1.13 0 0 1-.41.22 1.71 1.71 0 0 1-.5.07 1.33 1.33 0 0 1-1-.34 1.29 1.29 0 0 1-.34-1v-2.24h-.7v-.62h.7v-.91h.75v.91h1.19v.62h-1.17v2.25a.73.73 0 0 0 .17.52.63.63 0 0 0 .48.18.91.91 0 0 0 .59-.2zm4.5-1.57h-3.37a1.31 1.31 0 0 0 .48.88 1.57 1.57 0 0 0 1 .33 1.54 1.54 0 0 0 1.2-.5l.42.49a1.82 1.82 0 0 1-.7.5 2.64 2.64 0 0 1-2.1-.1 1.93 1.93 0 0 1-.79-.76 2.16 2.16 0 0 1-.28-1.1 2.2 2.2 0 0 1 .27-1.09 1.94 1.94 0 0 1 .74-.76 2.12 2.12 0 0 1 1.07-.27 2.08 2.08 0 0 1 1.06.27 1.9 1.9 0 0 1 .73.76 2.3 2.3 0 0 1 .26 1.11 2.21 2.21 0 0 1 .01.24zm-2.94-1.4a1.33 1.33 0 0 0-.43.86h2.66a1.34 1.34 0 0 0-.43-.86 1.4 1.4 0 0 0-1.81 0zm4.7 2.98a2 2 0 0 1-.78-.76 2.26 2.26 0 0 1 0-2.19 2 2 0 0 1 .78-.75 2.33 2.33 0 0 1 1.13-.27 2.17 2.17 0 0 1 1 .23 1.62 1.62 0 0 1 .69.66l-.57.37a1.28 1.28 0 0 0-.49-.45 1.39 1.39 0 0 0-.64-.15 1.49 1.49 0 0 0-.73.18 1.28 1.28 0 0 0-.51.51 1.55 1.55 0 0 0-.18.76 1.57 1.57 0 0 0 .18.77 1.28 1.28 0 0 0 .51.51 1.49 1.49 0 0 0 .73.18 1.39 1.39 0 0 0 .64-.15 1.28 1.28 0 0 0 .49-.45l.57.36a1.64 1.64 0 0 1-.69.66 2.14 2.14 0 0 1-1 .23 2.31 2.31 0 0 1-1.13-.25zm7.19-3.5a1.8 1.8 0 0 1 .47 1.34v2.39h-.75v-2.3a1.27 1.27 0 0 0-.29-.91 1.09 1.09 0 0 0-.83-.31 1.29 1.29 0 0 0-1 .36 1.39 1.39 0 0 0-.35 1v2.14h-.75V29h.75v2.25a1.55 1.55 0 0 1 .62-.46 2.11 2.11 0 0 1 .85-.16 1.71 1.71 0 0 1 1.28.45zm5.33 0a1.8 1.8 0 0 1 .47 1.34v2.39h-.75v-2.3a1.27 1.27 0 0 0-.29-.91 1.09 1.09 0 0 0-.83-.31 1.29 1.29 0 0 0-1 .36 1.39 1.39 0 0 0-.35 1v2.14H107v-4.13h.72v.63a1.46 1.46 0 0 1 .61-.49 2.14 2.14 0 0 1 .88-.17 1.71 1.71 0 0 1 1.31.45zm2.55 3.5a2 2 0 0 1-.77-.76 2.29 2.29 0 0 1 0-2.19 2 2 0 0 1 .77-.75 2.28 2.28 0 0 1 1.11-.27 2.25 2.25 0 0 1 1.11.27 2 2 0 0 1 .77.75 2.28 2.28 0 0 1 0 2.19 2 2 0 0 1-.77.76 2.23 2.23 0 0 1-1.11.27 2.25 2.25 0 0 1-1.11-.27zm1.83-.58a1.3 1.3 0 0 0 .5-.52 1.71 1.71 0 0 0 0-1.53 1.27 1.27 0 0 0-.5-.51 1.51 1.51 0 0 0-1.43 0 1.3 1.3 0 0 0-.5.51 1.68 1.68 0 0 0 0 1.53 1.33 1.33 0 0 0 .5.52 1.49 1.49 0 0 0 1.43 0zm2.48-5h.75v5.81h-.75zm2.85 5.58a2 2 0 0 1-.77-.76 2.29 2.29 0 0 1 0-2.19 2 2 0 0 1 .77-.75 2.28 2.28 0 0 1 1.11-.27 2.25 2.25 0 0 1 1.11.27 2 2 0 0 1 .77.75 2.28 2.28 0 0 1 0 2.19 2 2 0 0 1-.77.76 2.23 2.23 0 0 1-1.11.27 2.25 2.25 0 0 1-1.11-.27zm1.83-.57a1.3 1.3 0 0 0 .5-.52 1.71 1.71 0 0 0 0-1.53 1.27 1.27 0 0 0-.5-.51 1.51 1.51 0 0 0-1.43 0 1.3 1.3 0 0 0-.5.51 1.68 1.68 0 0 0 0 1.53 1.33 1.33 0 0 0 .5.52 1.49 1.49 0 0 0 1.43 0zm6.45-3.35v3.59a2.14 2.14 0 0 1-.54 1.61 2.24 2.24 0 0 1-1.61.52 3.86 3.86 0 0 1-1.12-.16 2.22 2.22 0 0 1-.86-.46l.36-.58a2.12 2.12 0 0 0 .72.4 2.72 2.72 0 0 0 .88.15 1.48 1.48 0 0 0 1.08-.34 1.42 1.42 0 0 0 .35-1V34a1.67 1.67 0 0 1-.65.48 2.17 2.17 0 0 1-.84.16 2.27 2.27 0 0 1-1.08-.25 1.89 1.89 0 0 1-.76-.71 2.13 2.13 0 0 1 0-2.09 1.86 1.86 0 0 1 .76-.71 2.3 2.3 0 0 1 1.08-.25 2.19 2.19 0 0 1 .87.17 1.62 1.62 0 0 1 .66.51v-.64zm-1.43 3.15a1.27 1.27 0 0 0 .51-.48 1.34 1.34 0 0 0 .18-.7 1.27 1.27 0 0 0-.4-1 1.61 1.61 0 0 0-2.06 0 1.27 1.27 0 0 0-.4 1 1.34 1.34 0 0 0 .18.7 1.27 1.27 0 0 0 .51.48 1.56 1.56 0 0 0 .74.17 1.54 1.54 0 0 0 .74-.17zm2.92-4.09a.46.46 0 0 1-.15-.34.47.47 0 0 1 .15-.38.49.49 0 0 1 .36-.15.51.51 0 0 1 .36.14.45.45 0 0 1 .15.34.48.48 0 0 1-.15.36.49.49 0 0 1-.36.15.5.5 0 0 1-.36-.12zm0 .94h.75v4.15H130zm5.86 2.34h-3.37a1.31 1.31 0 0 0 .48.88 1.57 1.57 0 0 0 1 .33 1.54 1.54 0 0 0 1.2-.5l.42.49a1.82 1.82 0 0 1-.7.5 2.64 2.64 0 0 1-2.1-.1 1.93 1.93 0 0 1-.79-.76 2.16 2.16 0 0 1-.28-1.1 2.2 2.2 0 0 1 .27-1.09 1.94 1.94 0 0 1 .74-.76 2.12 2.12 0 0 1 1.07-.27 2.08 2.08 0 0 1 1.06.27 1.9 1.9 0 0 1 .73.76 2.3 2.3 0 0 1 .26 1.11 2.21 2.21 0 0 1 .01.24zm-2.94-1.4a1.33 1.33 0 0 0-.43.86h2.66a1.34 1.34 0 0 0-.43-.86 1.4 1.4 0 0 0-1.81 0zm4.21 3.12a2.15 2.15 0 0 1-.74-.35l.31-.6a2.24 2.24 0 0 0 .67.31 2.73 2.73 0 0 0 .79.12q1 0 1-.56a.36.36 0 0 0-.13-.3.84.84 0 0 0-.33-.16l-.57-.11a5.56 5.56 0 0 1-.82-.18 1.26 1.26 0 0 1-.54-.34 1 1 0 0 1-.23-.68A1.06 1.06 0 0 1 137 31a2.1 2.1 0 0 1 1.26-.34 3.48 3.48 0 0 1 .83.1 2.24 2.24 0 0 1 .68.27l-.32.6a2.16 2.16 0 0 0-1.2-.33 1.38 1.38 0 0 0-.73.16.47.47 0 0 0-.25.42.4.4 0 0 0 .14.32.88.88 0 0 0 .35.17l.58.13a6.35 6.35 0 0 1 .81.18 1.21 1.21 0 0 1 .53.33.93.93 0 0 1 .22.66 1 1 0 0 1-.48.9 2.28 2.28 0 0 1-1.31.33 3.48 3.48 0 0 1-.98-.18zm-126-8.85h128" fill="#fff"/><path fill="none" stroke="#fff" stroke-linecap="square" stroke-miterlimit="10" stroke-width=".75" d="M11.13 25.87h128"/></g></g></svg>