<svg xmlns="http://www.w3.org/2000/svg" width="68.001" height="68.003"><path d="M67.614 33.062L56.992 22.436a1.328 1.328 0 0 0-1.878 1.878l8.358 8.358H35.329V4.534l8.363 8.358a1.328 1.328 0 1 0 1.878-1.878L34.94.388a1.328 1.328 0 0 0-1.865-.012l-.013.012-10.626 10.626a1.328 1.328 0 0 0 1.878 1.878l8.358-8.358v28.139H4.533l8.359-8.358a1.328 1.328 0 0 0-1.878-1.878L.376 33.075a1.33 1.33 0 0 0 .016 1.865l10.621 10.626a1.329 1.329 0 0 0 1.879-1.879l-8.359-8.358h28.139v28.139l-8.358-8.358a1.328 1.328 0 0 0-1.878 1.878c2.556 2.558 10.549 10.551 10.639 10.638a1.327 1.327 0 0 0 1.865-.012l10.625-10.626a1.328 1.328 0 1 0-1.878-1.878l-8.358 8.358V35.329h28.139l-8.358 8.358a1.33 1.33 0 0 0 1.882 1.879L67.614 34.94a1.331 1.331 0 0 0 0-1.878z" fill="#131892"/></svg>