<svg xmlns="http://www.w3.org/2000/svg" width="15.35" height="15.32"><path d="M7.949 15.32c1.174-.167 2.2-1.392 2.85-3.2a13.93 13.93 0 00-2.85-.336zm1.876-.289c.069-.02.139-.04.207-.063l.172-.059c.057-.02.135-.047.2-.073l.17-.068.2-.082.168-.077c.063-.03.126-.06.189-.092l.165-.086q.092-.049.183-.1a6.19 6.19 0 00.161-.094l.177-.11.157-.1c.052-.032.115-.08.172-.12l.152-.11.166-.13c.049-.039.1-.078.146-.118l.16-.14c.053-.047.094-.082.139-.125s.1-.1.154-.15.089-.087.132-.131l.024-.026a9.221 9.221 0 00-1.88-.723 6.808 6.808 0 01-1.753 2.847l.067-.016.174-.052zm5.523-7.097h-3.289a14.226 14.226 0 01-.554 3.8 9.542 9.542 0 012.082.829 7.665 7.665 0 001.761-4.629zm-7.399-.551h3.563a13.724 13.724 0 00-.54-3.66 14.451 14.451 0 01-3.023.36zm0-7.383v3.537a13.943 13.943 0 002.85-.336c-.648-1.809-1.677-3.034-2.85-3.2zm.001 11.235a14.458 14.458 0 013.023.361 13.726 13.726 0 00.54-3.661H7.95zm5.639-8.473a9.541 9.541 0 01-2.082.829 14.229 14.229 0 01.554 3.8h3.288a7.667 7.667 0 00-1.76-4.629zm-.371-.417l-.024-.025c-.043-.045-.088-.088-.133-.131s-.1-.1-.154-.15-.092-.082-.139-.125-.106-.095-.161-.14-.1-.078-.144-.117-.111-.089-.168-.131l-.15-.11-.173-.122c-.058-.04-.1-.068-.156-.1s-.119-.076-.179-.112l-.16-.094q-.092-.053-.185-.1L11.126.8c-.063-.032-.127-.063-.192-.093s-.111-.052-.167-.076-.131-.055-.2-.082l-.17-.068-.2-.073c-.066-.024-.114-.04-.172-.059S9.888.307 9.817.286 9.703.252 9.645.237L9.578.221a6.808 6.808 0 011.753 2.847 9.207 9.207 0 001.882-.724zM0 7.386h3.289a14.233 14.233 0 01.554-3.8 9.529 9.529 0 01-2.082-.829A7.665 7.665 0 000 7.386zm7.4 7.934v-3.537a13.943 13.943 0 00-2.85.336c.647 1.809 1.676 3.034 2.85 3.201zm.001-7.386H3.838a13.72 13.72 0 00.54 3.661 14.44 14.44 0 013.023-.361zM7.4 0C6.226.167 5.2 1.392 4.55 3.2a13.924 13.924 0 002.85.336zm.001 4.084a14.45 14.45 0 01-3.023-.36 13.719 13.719 0 00-.54 3.66h3.563zM5.765.222l-.067.016-.173.05c-.058.017-.137.04-.206.062l-.173.059c-.067.024-.134.047-.2.072l-.171.068-.2.082c-.057.025-.112.051-.168.077s-.126.06-.189.092l-.165.086q-.092.049-.183.1t-.162.094a7.6 7.6 0 00-.177.11l-.157.1c-.052.032-.115.08-.172.12l-.152.11c-.056.042-.11.086-.166.13s-.1.078-.146.118l-.16.139c-.053.047-.094.082-.14.126s-.1.1-.154.149-.089.087-.133.132l-.024.026a9.21 9.21 0 001.88.723A6.805 6.805 0 015.765.222zm-3.478 12.91c.051.05.1.1.154.15s.092.082.139.124.106.095.161.14.1.078.144.117.11.089.168.131l.15.11c.057.041.115.082.174.122s.1.068.156.1.119.075.179.112l.16.094q.092.053.185.1l.165.085c.063.032.127.063.192.093l.167.076c.065.029.13.055.2.082l.17.068c.067.026.134.049.2.073s.114.04.172.059.137.043.208.063.114.034.172.049l.067.016a6.81 6.81 0 01-1.753-2.847 9.214 9.214 0 00-1.88.724l.024.025c.041.044.085.088.13.131zm-.526-.574a9.54 9.54 0 012.082-.829 14.233 14.233 0 01-.554-3.8H0a7.666 7.666 0 001.761 4.629zm0 0" fill="#131892"/></svg>