<svg xmlns="http://www.w3.org/2000/svg" width="19.415" height="19.417"><path d="M19.374 15.044q-.082-.248-1.048-.731-.262-.152-.744-.414t-.876-.483q-.394-.221-.738-.427-.055-.041-.345-.241a3.875 3.875 0 00-.49-.3.9.9 0 00-.393-.1 1.144 1.144 0 00-.689.393 6.714 6.714 0 00-.758.855 8.314 8.314 0 01-.731.855 1.051 1.051 0 01-.634.393.938.938 0 01-.31-.069c-.124-.046-.218-.085-.283-.117s-.174-.1-.331-.193-.244-.149-.262-.159a14.491 14.491 0 01-3.241-2.4 14.484 14.484 0 01-2.4-3.241q-.014-.028-.159-.262T4.75 8.08a2.989 2.989 0 01-.117-.28.933.933 0 01-.069-.31 1.051 1.051 0 01.393-.634 8.3 8.3 0 01.855-.731 6.711 6.711 0 00.855-.758 1.145 1.145 0 00.393-.689.9.9 0 00-.1-.393 3.833 3.833 0 00-.3-.49q-.2-.29-.241-.345l-.421-.74q-.221-.39-.483-.876-.262-.482-.414-.745Q4.62.124 4.371.041A.772.772 0 004.082 0a4.543 4.543 0 00-.972.138 5.461 5.461 0 00-.945.29A3.7 3.7 0 00.703 2.11a5.346 5.346 0 00-.7 2.565 5.325 5.325 0 00.045.725 5.95 5.95 0 00.172.793q.124.441.2.655t.283.765q.207.552.248.676A12.491 12.491 0 002.096 10.7a20.447 20.447 0 002.971 3.648 20.455 20.455 0 003.648 2.972 12.509 12.509 0 002.413 1.145q.124.041.676.248t.765.283q.214.076.655.2a6 6 0 00.793.173 5.115 5.115 0 003.289-.655 3.694 3.694 0 001.684-1.463 5.431 5.431 0 00.29-.945 4.533 4.533 0 00.138-.972.769.769 0 00-.044-.29z" fill="#fff"/></svg>