<svg xmlns="http://www.w3.org/2000/svg" width="13.784" height="13.786"><path d="M13.755 10.681q-.058-.176-.744-.519-.186-.108-.528-.294t-.622-.343q-.279-.157-.524-.3-.039-.029-.245-.171a2.752 2.752 0 0 0-.348-.211.641.641 0 0 0-.279-.068.813.813 0 0 0-.489.279 4.767 4.767 0 0 0-.538.607 5.9 5.9 0 0 1-.519.607.746.746 0 0 1-.45.279.666.666 0 0 1-.22-.049c-.088-.033-.155-.061-.2-.083s-.124-.069-.235-.137l-.186-.113a10.288 10.288 0 0 1-2.3-1.7 10.283 10.283 0 0 1-1.7-2.3q-.01-.02-.113-.186t-.137-.235a2.122 2.122 0 0 1-.083-.2.662.662 0 0 1-.049-.22.746.746 0 0 1 .279-.45 5.9 5.9 0 0 1 .607-.519 4.765 4.765 0 0 0 .607-.538.813.813 0 0 0 .279-.489.639.639 0 0 0-.068-.279 2.722 2.722 0 0 0-.211-.348q-.142-.206-.171-.245-.147-.245-.3-.524T3.916 1.3Q3.73.96 3.622.773 3.28.088 3.104.029A.548.548 0 0 0 2.898 0a3.225 3.225 0 0 0-.69.1 3.877 3.877 0 0 0-.671.2A2.625 2.625 0 0 0 .499 1.5a3.8 3.8 0 0 0-.5 1.821 3.781 3.781 0 0 0 .034.514 4.224 4.224 0 0 0 .124.565q.088.313.142.465t.2.543q.147.392.176.48A8.868 8.868 0 0 0 1.49 7.6a14.517 14.517 0 0 0 2.11 2.59 14.523 14.523 0 0 0 2.59 2.11 8.881 8.881 0 0 0 1.713.813q.088.029.48.176t.543.2q.152.054.465.142a4.261 4.261 0 0 0 .563.123 3.632 3.632 0 0 0 2.335-.465 2.623 2.623 0 0 0 1.194-1.038 3.856 3.856 0 0 0 .206-.671 3.219 3.219 0 0 0 .1-.69.546.546 0 0 0-.034-.209z" fill="#131892"/></svg>