<svg xmlns="http://www.w3.org/2000/svg" width="212.06" height="42.533"><g fill="none" stroke-linecap="round" stroke-miterlimit="10"><path d="M.5 28.988s11.292 0 16.491-5.325 3.878-13.312 11.471-13.312c11.551 0 5.858 31.682 19.717 31.682 12.189 0 10.482-26.358 19.717-26.358 10.984 0 4.567 17.838 19 17.838 13.9 0 9.127-11.714 17.208-11.714 7.593 0 2.638 7.188 11.873 7.188s8.2-3.461 13.221-3.461c3.958 0 3.865 3.994 13.264 3.461" stroke="#29d5eb"/><path d="M.5 28.987c3.238-.374 5.967-2 7.17-4.26C9.821 21 10.9.5 18.783.5c12.906 0 4.3 33.013 16.849 32.747C47.462 33 42.443 8.407 51.047 7.955c10.038-.532 3.943 22.1 13.264 22.1S70.764 21 76.5 21c6.453 0 4.768 8.312 10.038 8.52 6.811.266 4.66-5.059 10.038-5.325 6.094-.3 4.653 5.112 10.038 5.325 6.811.266 5.377-3.461 13.264-3.461 7.17 0 1.075 3.461 22.664 2.929 4.617-.112 69.018 0 69.018 0" stroke="#88a0d9"/></g></svg>