<svg xmlns="http://www.w3.org/2000/svg" width="106.706" height="99.822"><g fill="#fff"><path d="M1.721 43.027h9.548a25.6 25.6 0 0 0 2.424 5.831l-6.758 6.755a1.722 1.722 0 0 0 0 2.435l7.3 7.3a1.723 1.723 0 0 0 2.434 0l6.759-6.759a25.579 25.579 0 0 0 5.829 2.424v9.555a1.721 1.721 0 0 0 1.721 1.721h10.328a1.721 1.721 0 0 0 1.721-1.721v-9.552a25.579 25.579 0 0 0 5.829-2.424l6.759 6.759a1.772 1.772 0 0 0 2.434 0l7.3-7.3a1.722 1.722 0 0 0 0-2.435l-6.757-6.758a25.6 25.6 0 0 0 2.424-5.831h9.548a1.721 1.721 0 0 0 1.721-1.721V30.979a1.721 1.721 0 0 0-1.721-1.721h-9.548a25.6 25.6 0 0 0-2.424-5.831l6.758-6.759a1.722 1.722 0 0 0 0-2.435l-7.3-7.3a1.722 1.722 0 0 0-2.434 0l-6.759 6.759a25.652 25.652 0 0 0-5.83-2.424V1.721A1.721 1.721 0 0 0 41.306 0H30.979a1.721 1.721 0 0 0-1.721 1.721v9.547a25.652 25.652 0 0 0-5.829 2.424L16.67 6.934a1.772 1.772 0 0 0-2.434 0l-7.3 7.3a1.722 1.722 0 0 0 0 2.435l6.759 6.755a25.6 25.6 0 0 0-2.424 5.831h-9.55A1.721 1.721 0 0 0 0 30.979v10.327a1.721 1.721 0 0 0 1.721 1.721zM3.442 32.7h9.173a1.721 1.721 0 0 0 1.685-1.352 22.143 22.143 0 0 1 3.015-7.253 1.721 1.721 0 0 0-.233-2.146l-6.5-6.5 4.869-4.869 6.494 6.5a1.722 1.722 0 0 0 2.148.233 22.178 22.178 0 0 1 7.253-3.015 1.723 1.723 0 0 0 1.354-1.682V3.442h6.884v9.173a1.723 1.723 0 0 0 1.353 1.682 22.178 22.178 0 0 1 7.253 3.015 1.722 1.722 0 0 0 2.148-.233l6.494-6.5 4.868 4.875-6.494 6.493a1.722 1.722 0 0 0-.233 2.148 22.137 22.137 0 0 1 3.013 7.254 1.722 1.722 0 0 0 1.681 1.353h9.175v6.884h-9.175a1.722 1.722 0 0 0-1.681 1.353 22.116 22.116 0 0 1-3.013 7.251 1.722 1.722 0 0 0 .233 2.147l6.5 6.494-4.869 4.871-6.494-6.5a1.722 1.722 0 0 0-2.153-.234 22.126 22.126 0 0 1-7.251 3.015 1.721 1.721 0 0 0-1.354 1.685v9.173H32.7v-9.173a1.721 1.721 0 0 0-1.355-1.681 22.127 22.127 0 0 1-7.25-3.019 1.722 1.722 0 0 0-2.148.233l-6.494 6.5-4.867-4.869 6.494-6.494a1.721 1.721 0 0 0 .233-2.148 22.149 22.149 0 0 1-3.013-7.254 1.72 1.72 0 0 0-1.681-1.351H3.442zm0 0"/><path d="M36.143 49.911a13.769 13.769 0 1 0-13.769-13.769 13.768 13.768 0 0 0 13.769 13.769zm0-24.1a10.326 10.326 0 1 1-10.327 10.331 10.327 10.327 0 0 1 10.327-10.326zm0 0M98.1 79.169V65.401a1.721 1.721 0 0 0-1.721-1.721h-3.441V49.911a1.721 1.721 0 0 0-1.721-1.721h-15.49a1.721 1.721 0 0 0-1.721 1.721V63.68H65.4a1.721 1.721 0 0 0-1.721 1.721V79.17H8.605A8.616 8.616 0 0 0 0 87.775v3.442a8.615 8.615 0 0 0 8.605 8.605H98.1a8.615 8.615 0 0 0 8.605-8.605v-3.442a8.616 8.616 0 0 0-8.605-8.606zm-3.442 0H82.612V67.122h12.047zm-17.21-27.537H89.5V63.68H77.448zm-10.326 15.49h12.047v12.047H67.122zm36.143 24.1a5.163 5.163 0 0 1-5.163 5.163H8.605a5.163 5.163 0 0 1-5.163-5.163V87.78a5.164 5.164 0 0 1 5.163-5.163H98.1a5.164 5.164 0 0 1 5.163 5.163zm0 0"/></g></svg>