<svg xmlns="http://www.w3.org/2000/svg" width="98.848" height="98.842"><path d="M98.608 22.688a2.192 2.192 0 0 0-.314-.467 1.658 1.658 0 0 0-.125-.144 2.086 2.086 0 0 0-.58-.4l-.051-.023L50.314.187c-.008 0-.018 0-.024-.006A2.149 2.149 0 0 0 49.459 0h-.067a2.149 2.149 0 0 0-.831.18c-.008 0-.018 0-.024.006L1.313 21.65l-.051.023a2.132 2.132 0 0 0-.58.4c-.047.045-.082.1-.125.144a2.192 2.192 0 0 0-.314.467c-.031.066-.064.127-.09.2a2.146 2.146 0 0 0-.15.748V75.2c0 .025.01.051.01.078 0 .064.02.124.028.189a2.168 2.168 0 0 0 .154.574c.018.038.014.079.033.118a1.053 1.053 0 0 0 .067.1 2.192 2.192 0 0 0 .171.25 2.093 2.093 0 0 0 .2.234 2.393 2.393 0 0 0 .211.172 2.1 2.1 0 0 0 .281.18.814.814 0 0 0 .1.062l47.274 21.488c.008.005.017 0 .024.005a2.118 2.118 0 0 0 .868.191 2.149 2.149 0 0 0 .864-.187h.024l47.275-21.492c.037-.018.064-.045.1-.063a2.1 2.1 0 0 0 .281-.18 1.659 1.659 0 0 0 .211-.172 1.733 1.733 0 0 0 .2-.234 2.276 2.276 0 0 0 .171-.249c.02-.035.049-.061.067-.1s.015-.079.033-.118a2.15 2.15 0 0 0 .154-.574c.008-.065.026-.125.028-.189a.718.718 0 0 0 .015-.082v-51.57a2.146 2.146 0 0 0-.15-.748c-.026-.068-.059-.131-.09-.2zm-94.307 4.28l12.893 5.86V65.28L4.301 71.727zm45.126-5.277l23.3 10.48-23.3 10.587-23.3-10.587zM77.36 65.2L51.573 76.349V46.5l25.813-11.731zM21.489 34.782L47.275 46.5v29.851L21.489 65.2zm-2.083 34.2l27.869 12.052v12.321L7.138 75.112zm32.167 12.052l27.869-12.055 12.268 6.133-40.137 18.243zm30.084-15.753l.028-32.465 12.866-5.848v44.759zM77.931 29.8L51.573 17.944V5.479l39.928 18.153zM47.275 5.479v12.465L20.917 29.8 7.343 23.632zm0 0" fill="#fff"/></svg>