<svg xmlns="http://www.w3.org/2000/svg" width="109.574" height="86.46"><path d="M107.434-.001H11.557A2.14 2.14 0 0 0 9.415 2.14v10.7a2.14 2.14 0 1 0 4.28 0V4.28h13.057v7.062a2.14 2.14 0 0 0 4.28 0V4.28h8.774v7.062a2.14 2.14 0 0 0 4.28 0V4.28h8.774v70.893a2.14 2.14 0 0 0 4.28 0V4.28h8.775v61.794a2.14 2.14 0 1 0 4.28 0V4.28h8.774v70.893a2.14 2.14 0 0 0 4.28 0V4.28h8.988v61.794a2.14 2.14 0 1 0 4.28 0V4.28h8.774v77.9H44.087v-7.118a2.14 2.14 0 1 0-4.28 0v7.118h-8.775v-7.118a2.14 2.14 0 1 0-4.28 0v7.118H13.697v-8.563a2.14 2.14 0 0 0-4.28 0v10.7a2.14 2.14 0 0 0 2.14 2.14h95.877a2.14 2.14 0 0 0 2.14-2.14V2.14a2.14 2.14 0 0 0-2.14-2.141z" fill="#fff"/><path d="M46.973 41.716l-4.3-4.3a2.14 2.14 0 0 0-3.027 3.027l.65.65h-.78a13.938 13.938 0 0 0-6.313 1.517 9.621 9.621 0 0 1-8.73 0 13.913 13.913 0 0 0-12.625 0 9.622 9.622 0 0 1-8.73 0 2.14 2.14 0 1 0-1.947 3.812 13.914 13.914 0 0 0 12.625 0 9.622 9.622 0 0 1 8.731 0 13.914 13.914 0 0 0 12.625 0 9.685 9.685 0 0 1 4.391-1.048h.754l-.649.649a2.14 2.14 0 1 0 3.026 3.026l4.3-4.3a2.14 2.14 0 0 0-.001-3.033zm0 17.183l-4.322-4.322a2.14 2.14 0 0 0-3.027 3.027l.669.669h-.78a13.938 13.938 0 0 0-6.315 1.517 9.621 9.621 0 0 1-8.73 0 13.913 13.913 0 0 0-12.625 0 9.622 9.622 0 0 1-8.73 0 2.14 2.14 0 1 0-1.947 3.812 13.914 13.914 0 0 0 12.625 0 9.619 9.619 0 0 1 8.73 0 13.913 13.913 0 0 0 12.625 0 9.721 9.721 0 0 1 4.391-1.048h.754l-.669.669a2.14 2.14 0 1 0 3.027 3.027l4.322-4.322a2.14 2.14 0 0 0 .002-3.029zm0-34.455l-4.2-4.2a2.14 2.14 0 0 0-3.027 3.027l.543.543h-.78a13.941 13.941 0 0 0-6.309 1.522 9.621 9.621 0 0 1-8.73 0 13.913 13.913 0 0 0-12.625 0 9.621 9.621 0 0 1-8.73 0 2.14 2.14 0 1 0-1.947 3.811 13.913 13.913 0 0 0 12.625 0 9.622 9.622 0 0 1 8.731 0 13.912 13.912 0 0 0 12.625 0 9.642 9.642 0 0 1 4.37-1.048h.775l-.543.543a2.14 2.14 0 1 0 3.027 3.027l4.2-4.2a2.14 2.14 0 0 0-.005-3.025z" fill="#27d7ec"/><path d="M95.892 73.66a2.139 2.139 0 1 0 .627 1.513 2.156 2.156 0 0 0-.627-1.513zm-26.324 0a2.139 2.139 0 1 0 .627 1.513 2.157 2.157 0 0 0-.627-1.513z" fill="#fff"/></svg>