<svg xmlns="http://www.w3.org/2000/svg" width="121.271" height="84.787"><g transform="translate(2 2)"><path stroke-width="4" stroke="#27d7ec" stroke-linecap="round" stroke-linejoin="round" fill="none" d="M91.89 36.119v-5.83m0 22.12v-8.236m0 19.78v-2.805m18.732-5.39h6.126m-49.544 0h7.062"/><ellipse cx="25.38" cy="25.38" rx="25.38" ry="25.38" transform="translate(66.509 29.771)" fill="none" stroke="#fff" stroke-miterlimit="10" stroke-width="4"/><path d="M91.89 55.382a1.7 1.7 0 1 1-1.7 1.7 1.7 1.7 0 0 1 1.7-1.7m0-4.315a6.02 6.02 0 1 0 6.02 6.02 6.02 6.02 0 0 0-6.02-6.02z" fill="#27d7ec"/><path d="M0 .002c9.047 0 8.184 7.189 15.951 7.191s9.207-7.12 18.2-7.191 9.781 7.191 16.469 7.194c10.212 0 10.428-7.191 18.772-7.194 7.623 0 9.563 7.2 16.469 7.2 10.249 0 8.523-7.2 17.406-7.2M0 50.305c9.047 0 8.184 7.189 15.951 7.191s9.207-7.12 18.2-7.191 9.781 7.191 16.469 7.194c8.59 0 10.106-5.086 15.337-6.7M0 69.015c8.3 7.17 13.822 11.763 26.008 11.772 20.97.017 25.641-12.348 41.679-15.766M0 25.402c8.3 7.17 13.822 11.763 26.008 11.772 24.332.019 29.176-18.146 51.184-18.146 18.938 0 26.323 6.149 26.323 6.149" fill="none" stroke="#fff" stroke-linecap="round" stroke-miterlimit="10" stroke-width="4"/></g></svg>