<svg xmlns="http://www.w3.org/2000/svg" width="102.863" height="103.018"><path d="M101.839 80.627l-2.37-1.046c-.092-.332-.193-.65-.3-.96l1.321-2.276a1.721 1.721 0 0 0 .014-1.7 19.384 19.384 0 0 0-2.47-3.451 1.7 1.7 0 0 0-1.661-.528l-2.494.57q-.367-.287-.754-.557l-.241-2.645a1.714 1.714 0 0 0-.989-1.4 18.582 18.582 0 0 0-3.981-1.336 1.706 1.706 0 0 0-1.653.56l-1.746 2.028h-.838l-1.746-2.028a1.7 1.7 0 0 0-1.652-.56 18.576 18.576 0 0 0-3.981 1.336 1.714 1.714 0 0 0-.989 1.4l-.241 2.645q-.387.269-.754.557l-2.494-.57a1.708 1.708 0 0 0-1.661.528 19.269 19.269 0 0 0-2.469 3.453 1.718 1.718 0 0 0 .013 1.7l1.319 2.274q-.161.465-.3.962l-2.37 1.046a1.715 1.715 0 0 0-1.024 1.57v3.885a1.714 1.714 0 0 0 1.024 1.57l2.37 1.046c.092.332.193.65.3.96l-1.321 2.276a1.721 1.721 0 0 0-.014 1.7 19.388 19.388 0 0 0 2.47 3.451 1.707 1.707 0 0 0 1.663.528l2.49-.572c.245.193.5.379.756.558l.241 2.645a1.713 1.713 0 0 0 .989 1.4 18.58 18.58 0 0 0 3.981 1.336 1.708 1.708 0 0 0 1.653-.56l1.746-2.028h.838l1.746 2.028a1.713 1.713 0 0 0 1.3.6 1.674 1.674 0 0 0 .352-.037 18.569 18.569 0 0 0 3.981-1.336 1.713 1.713 0 0 0 .989-1.4l.241-2.645q.387-.269.754-.556l2.494.57a1.7 1.7 0 0 0 1.661-.528 19.4 19.4 0 0 0 2.471-3.451 1.722 1.722 0 0 0-.013-1.7l-1.321-2.276c.107-.31.208-.629.3-.96l2.37-1.046a1.715 1.715 0 0 0 1.024-1.57v-3.89a1.714 1.714 0 0 0-1.024-1.57zm-4.522 5.269a1.71 1.71 0 0 0-.98 1.19 12.818 12.818 0 0 1-.647 2.07 1.722 1.722 0 0 0 .1 1.52l1.222 2.105q-.415.644-.9 1.254l-2.3-.526a1.7 1.7 0 0 0-1.517.386 12.7 12.7 0 0 1-1.713 1.265 1.718 1.718 0 0 0-.808 1.3l-.223 2.45c-.461.181-.924.339-1.384.469l-1.572-1.825a1.717 1.717 0 0 0-1.3-.6h-2.41a1.718 1.718 0 0 0-1.3.6l-1.572 1.825a14.938 14.938 0 0 1-1.384-.469l-.223-2.45a1.718 1.718 0 0 0-.808-1.3 12.591 12.591 0 0 1-1.711-1.265 1.718 1.718 0 0 0-1.52-.387l-2.3.526c-.32-.4-.618-.823-.9-1.252l1.222-2.105a1.722 1.722 0 0 0 .1-1.52 12.824 12.824 0 0 1-.647-2.07 1.711 1.711 0 0 0-.98-1.19l-2.114-.932v-1.649l2.114-.932a1.71 1.71 0 0 0 .98-1.19 12.917 12.917 0 0 1 .647-2.073 1.718 1.718 0 0 0-.1-1.518l-1.22-2.105c.275-.427.573-.846.893-1.252l2.3.526a1.711 1.711 0 0 0 1.517-.385 12.711 12.711 0 0 1 1.713-1.265 1.718 1.718 0 0 0 .808-1.3l.223-2.45c.461-.181.924-.339 1.384-.469l1.572 1.825a1.717 1.717 0 0 0 1.3.6h2.41a1.719 1.719 0 0 0 1.3-.6l1.572-1.825c.461.131.924.288 1.384.469l.223 2.45a1.718 1.718 0 0 0 .808 1.3 12.705 12.705 0 0 1 1.713 1.265 1.71 1.71 0 0 0 1.517.385l2.3-.526q.48.609.9 1.254l-1.222 2.105a1.722 1.722 0 0 0-.1 1.52 12.821 12.821 0 0 1 .647 2.07 1.711 1.711 0 0 0 .98 1.19l2.114.932v1.65z" fill="#fff"/><path d="M84.095 75.557a8.581 8.581 0 1 0 8.581 8.581 8.581 8.581 0 0 0-8.581-8.581zm0 13.73a5.149 5.149 0 1 1 5.149-5.149 5.149 5.149 0 0 1-5.149 5.15zM48.052 6.907a25.744 25.744 0 1 0 25.744 25.744A25.744 25.744 0 0 0 48.052 6.907zm-21.381 32.1a22.287 22.287 0 0 1 27.743-27.736c-.419.276-.855.544-1.243.836a1.717 1.717 0 0 0-.6 1.907l.788 2.4c-.324.305-.64.622-.945.945l-2.4-.788a1.728 1.728 0 0 0-1.906.6 25.685 25.685 0 0 0-3.156 5.4 1.715 1.715 0 0 0 .434 1.951l1.909 1.71a21.18 21.18 0 0 0-.349 1.289l-2.487.523a1.717 1.717 0 0 0-1.363 1.679v5.853a1.716 1.716 0 0 0 1.363 1.679l2.487.523c.1.431.218.862.347 1.289l-1.907 1.71a1.715 1.715 0 0 0-.434 1.951 25.79 25.79 0 0 0 3.153 5.4 1.717 1.717 0 0 0 1.907.6l2.4-.788c.305.324.622.64.945.945l-.788 2.4a1.718 1.718 0 0 0 .6 1.906c.388.293.825.562 1.245.839a22.307 22.307 0 0 1-27.743-15.023zm31.724 13.4a23.661 23.661 0 0 1-2.165-1.253l.742-2.259a1.719 1.719 0 0 0-.521-1.847 18.744 18.744 0 0 1-2.2-2.2 1.722 1.722 0 0 0-1.845-.52l-2.266.746a22.407 22.407 0 0 1-1.517-2.584l1.8-1.614a1.718 1.718 0 0 0 .471-1.86 18.482 18.482 0 0 1-.806-2.988 1.716 1.716 0 0 0-1.336-1.374l-2.221-.468v-3.068l2.221-.468a1.716 1.716 0 0 0 1.336-1.374 18.668 18.668 0 0 1 .806-2.992 1.715 1.715 0 0 0-.471-1.859l-1.8-1.612a22.552 22.552 0 0 1 1.517-2.584l2.268.746a1.725 1.725 0 0 0 1.847-.521 18.744 18.744 0 0 1 2.2-2.2 1.72 1.72 0 0 0 .52-1.845l-.742-2.259a23.927 23.927 0 0 1 2.165-1.252 22.419 22.419 0 0 1 6.226 4.86 15.42 15.42 0 0 0 0 29.783 22.415 22.415 0 0 1-6.229 4.866zm-1.637-21.459a11.987 11.987 0 0 1 10.158-10.161 22.126 22.126 0 0 1 0 23.729 11.986 11.986 0 0 1-10.158-13.571z" fill="#fff"/><path d="M93.268 29.334l-2.058-.908c-.07-.246-.144-.488-.225-.724l1.148-1.979a1.718 1.718 0 0 0 .014-1.7 17.609 17.609 0 0 0-2.242-3.136 1.709 1.709 0 0 0-1.664-.53l-2.162.494a16.012 16.012 0 0 0-.558-.411l-.211-2.3a1.72 1.72 0 0 0-.987-1.4 16.785 16.785 0 0 0-3.618-1.215 1.711 1.711 0 0 0-1.614.518L77.195 18.1A32.572 32.572 0 0 0 18.84 47.055q.717 1.445 1.574 2.813l-4.591 5.739a1.725 1.725 0 0 0-.36 1.3 1.706 1.706 0 0 0 .692 1.16l3.727 2.711L.383 84.773a1.719 1.719 0 0 0 .257 2.418v.009l8.581 6.865a1.719 1.719 0 0 0 2.405-.258l19.932-24.53 3.473 2.523a1.717 1.717 0 0 0 2.35-.315l5.359-6.698a32.237 32.237 0 0 0 34.465-17.6l1.877 2.066a1.716 1.716 0 0 0 1.27.561 1.675 1.675 0 0 0 .352-.037 16.8 16.8 0 0 0 3.62-1.215 1.721 1.721 0 0 0 .987-1.4l.211-2.3c.189-.134.375-.272.556-.411l2.164.494a1.7 1.7 0 0 0 1.664-.53 17.643 17.643 0 0 0 2.241-3.134 1.717 1.717 0 0 0-.012-1.7l-1.15-1.981c.08-.236.154-.478.225-.724l2.058-.908a1.715 1.715 0 0 0 1.024-1.57V30.9a1.714 1.714 0 0 0-1.024-1.566zM10.04 90.317L4.14 85.6l18.521-22.8 6.119 4.451zm25.684-22.259l-3.461-2.518-.2-.142-12.439-9.05 2.841-3.548a32.666 32.666 0 0 0 16.54 11.157zm12.331-6.23A29.176 29.176 0 1 1 77.23 32.652a29.176 29.176 0 0 1-29.176 29.176zM90.86 33.282l-1.8.793a1.71 1.71 0 0 0-.98 1.19 11.594 11.594 0 0 1-.573 1.84 1.715 1.715 0 0 0 .1 1.517l1.046 1.8q-.314.48-.672.94l-1.961-.449a1.7 1.7 0 0 0-1.518.384 11.326 11.326 0 0 1-1.522 1.126 1.718 1.718 0 0 0-.8 1.3l-.193 2.1q-.525.2-1.054.357l-2.241-2.467a32 32 0 0 0-.011-22.16l2.247-2.439c.352.1.707.223 1.059.359l.193 2.1a1.72 1.72 0 0 0 .806 1.3A11.153 11.153 0 0 1 84.503 24a1.707 1.707 0 0 0 1.518.384l1.961-.449q.357.46.672.94l-1.046 1.8a1.716 1.716 0 0 0-.1 1.517 11.6 11.6 0 0 1 .573 1.84 1.711 1.711 0 0 0 .98 1.19l1.8.793v1.261z" fill="#fff"/></svg>