<svg xmlns="http://www.w3.org/2000/svg" width="107.78" height="87.773"><g transform="translate(2 2)"><path d="M62.55 78.217a41.847 41.847 0 1 1 20.29-44.806M53.02 64.13A24.925 24.925 0 1 1 65.873 35.2M41.845 0v83.891" fill="none" stroke="#fff" stroke-miterlimit="10" stroke-width="4"/><path stroke-width="4" stroke="#27d7ec" stroke-linecap="round" stroke-linejoin="round" fill="none" d="M78.4 39.36v-5.828m0 22.118v-8.234m0 19.777v-2.805m18.733-5.389h6.123m-49.544 0h7.064"/><ellipse cx="25.38" cy="25.38" rx="25.38" ry="25.38" transform="translate(53.02 33.012)" fill="none" stroke="#fff" stroke-miterlimit="10" stroke-width="4"/><path d="M78.4 58.625a1.7 1.7 0 1 1-1.7 1.7 1.7 1.7 0 0 1 1.7-1.7m0-4.315a6.02 6.02 0 1 0 6.02 6.02 6.02 6.02 0 0 0-6.02-6.02z" fill="#27d7ec"/></g></svg>