<svg xmlns="http://www.w3.org/2000/svg" width="739.716" height="65.916"><g fill="none" stroke-linecap="round" stroke-miterlimit="10"><path d="M530.113 30.649l-18.8.342c-22.732-1.328-30.813-7.722-44.358-7.441-24.119.5-25.428 6.013-42.245 6.013-16.686 0-12.145-6.514-29.635-6.514-12.668 0-13.65 6.013-24.734 6.013-15.05 0-10.234-9.9-17.425-9.019-8.225 1-1.623 9.52-14.114 9.52-10.738 0-9.161-9.52-20.285-9.019-10.424.466-8.507 8.518-19.63 8.017-12.563-.566-7.2-9.956-18.322-9.019-11.876 1-6.177 15.929-19.63 16.535-11.085.5-5.889-20.544-18.322-20.043-12.891.5-7.44 26.557-24.865 26.056C194 41.408 208.1 5.511 188.3 6.012c-14.631.371-6.118 35.075-23.556 35.075-14.258 0-7.715-28.561-23.556-28.06-14.324.451-11.6 26.557-28.228 27.058S105.058.5 90.8.5c-17.439 0-8.507 56.12-29.446 56.12C44.341 56.62 54.706.5 36.489.5c-9.815 0-10.47 18.1-17.772 26.056C13.168 32.569.5 31.065.5 31.065" stroke="#29d5eb"/><path d="M.5 31.065c12.76-.251 8.834-21.616 19.957-22.3 16.358-1 4.58 58.124 23.556 56.621S54.156 20.543 71.5 20.292c17.124-.246 5.843 32.479 20.939 32.069 18.322-.5 8.421-36.042 22.575-37.33 19.3-1.754 1.348 35.641 28.464 36.829 22.9 1 12.432-29.563 32.063-30.064 17.667-.451 8.179 23.3 23.229 24.8s10.648-23.979 20.93-25.552c14.723-2.255 8.834 28.311 23.883 28.311 16.358 0 7.2-26.867 19.957-27.809 10.142-.752 5.235 12.026 18.976 12.527s9.161-16.034 19.63-15.533 4.58 14.531 15.7 15.533 10.469-11.024 18.322-11.024 10.8 10.272 19.3 9.27 8.618-7.05 17.34-7.266c10.142-.251 10.142 5.261 19.957 5.261 17.013 0 19.565-4.264 32.063-4.51 12.76-.251 14.068 7.266 37.625 8.268s37.625-6.263 46.131-6.263c7.145 0 10.587 1.2 15.7 2.505 5.889 1.5 214.917 0 214.917 0" stroke="#88a0d9"/></g></svg>